<svg width="258" height="31" viewBox="0 0 258 31" fill="none" xmlns="http://www.w3.org/2000/svg">
<path d="M22.0738 5.708H26.9598V7.248H22.0738V5.708ZM22.2278 11H20.4078V1.2H27.5618V2.726H22.2278V11ZM32.4628 11.098C31.6321 11.098 30.9041 10.9347 30.2788 10.608C29.6628 10.272 29.1821 9.81467 28.8368 9.236C28.5008 8.65733 28.3328 7.99933 28.3328 7.262C28.3328 6.51533 28.4961 5.85733 28.8228 5.288C29.1588 4.70933 29.6161 4.25667 30.1948 3.93C30.7828 3.60333 31.4501 3.44 32.1968 3.44C32.9248 3.44 33.5734 3.59867 34.1428 3.916C34.7121 4.23333 35.1601 4.68133 35.4868 5.26C35.8134 5.83867 35.9768 6.52 35.9768 7.304C35.9768 7.37867 35.9721 7.46267 35.9628 7.556C35.9628 7.64933 35.9581 7.738 35.9488 7.822H29.7188V6.66H35.0248L34.3388 7.024C34.3481 6.59467 34.2594 6.21667 34.0728 5.89C33.8861 5.56333 33.6294 5.30667 33.3028 5.12C32.9854 4.93333 32.6168 4.84 32.1968 4.84C31.7674 4.84 31.3894 4.93333 31.0628 5.12C30.7454 5.30667 30.4934 5.568 30.3068 5.904C30.1294 6.23067 30.0408 6.618 30.0408 7.066V7.346C30.0408 7.794 30.1434 8.19067 30.3488 8.536C30.5541 8.88133 30.8434 9.14733 31.2168 9.334C31.5901 9.52067 32.0194 9.614 32.5048 9.614C32.9248 9.614 33.3028 9.54867 33.6388 9.418C33.9748 9.28733 34.2734 9.082 34.5348 8.802L35.4728 9.88C35.1368 10.272 34.7121 10.5753 34.1988 10.79C33.6948 10.9953 33.1161 11.098 32.4628 11.098ZM41.1718 11.098C40.3411 11.098 39.6131 10.9347 38.9878 10.608C38.3718 10.272 37.8911 9.81467 37.5458 9.236C37.2098 8.65733 37.0418 7.99933 37.0418 7.262C37.0418 6.51533 37.2051 5.85733 37.5318 5.288C37.8678 4.70933 38.3251 4.25667 38.9038 3.93C39.4918 3.60333 40.1591 3.44 40.9058 3.44C41.6338 3.44 42.2824 3.59867 42.8518 3.916C43.4211 4.23333 43.8691 4.68133 44.1958 5.26C44.5224 5.83867 44.6858 6.52 44.6858 7.304C44.6858 7.37867 44.6811 7.46267 44.6718 7.556C44.6718 7.64933 44.6671 7.738 44.6578 7.822H38.4278V6.66H43.7338L43.0478 7.024C43.0571 6.59467 42.9684 6.21667 42.7818 5.89C42.5951 5.56333 42.3384 5.30667 42.0118 5.12C41.6944 4.93333 41.3258 4.84 40.9058 4.84C40.4764 4.84 40.0984 4.93333 39.7718 5.12C39.4544 5.30667 39.2024 5.568 39.0158 5.904C38.8384 6.23067 38.7498 6.618 38.7498 7.066V7.346C38.7498 7.794 38.8524 8.19067 39.0578 8.536C39.2631 8.88133 39.5524 9.14733 39.9258 9.334C40.2991 9.52067 40.7284 9.614 41.2138 9.614C41.6338 9.614 42.0118 9.54867 42.3478 9.418C42.6838 9.28733 42.9824 9.082 43.2438 8.802L44.1818 9.88C43.8458 10.272 43.4211 10.5753 42.9078 10.79C42.4038 10.9953 41.8251 11.098 41.1718 11.098ZM46.3668 11V0.611999H48.1168V11H46.3668ZM54.5208 11V3.104C54.5208 2.32 54.7494 1.69467 55.2068 1.228C55.6734 0.752 56.3361 0.514 57.1948 0.514C57.5028 0.514 57.7921 0.546666 58.0628 0.611999C58.3428 0.677333 58.5761 0.78 58.7628 0.92L58.2868 2.236C58.1561 2.13333 58.0068 2.05867 57.8388 2.012C57.6708 1.956 57.4981 1.928 57.3208 1.928C56.9568 1.928 56.6814 2.03067 56.4948 2.236C56.3081 2.432 56.2148 2.73067 56.2148 3.132V3.972L56.2708 4.756V11H54.5208ZM53.2888 4.98V3.58H58.2728V4.98H53.2888ZM59.4644 11V3.524H61.1304V5.582L60.9344 4.98C61.1584 4.476 61.5084 4.09333 61.9844 3.832C62.4697 3.57067 63.0717 3.44 63.7904 3.44V5.106C63.7157 5.08733 63.6457 5.078 63.5804 5.078C63.5151 5.06867 63.4497 5.064 63.3844 5.064C62.7217 5.064 62.1944 5.26 61.8024 5.652C61.4104 6.03467 61.2144 6.60867 61.2144 7.374V11H59.4644ZM68.7206 11.098C67.8899 11.098 67.1619 10.9347 66.5366 10.608C65.9206 10.272 65.4399 9.81467 65.0946 9.236C64.7586 8.65733 64.5906 7.99933 64.5906 7.262C64.5906 6.51533 64.7539 5.85733 65.0806 5.288C65.4166 4.70933 65.8739 4.25667 66.4526 3.93C67.0406 3.60333 67.7079 3.44 68.4546 3.44C69.1826 3.44 69.8313 3.59867 70.4006 3.916C70.9699 4.23333 71.4179 4.68133 71.7446 5.26C72.0713 5.83867 72.2346 6.52 72.2346 7.304C72.2346 7.37867 72.2299 7.46267 72.2206 7.556C72.2206 7.64933 72.2159 7.738 72.2066 7.822H65.9766V6.66H71.2826L70.5966 7.024C70.6059 6.59467 70.5173 6.21667 70.3306 5.89C70.1439 5.56333 69.8873 5.30667 69.5606 5.12C69.2433 4.93333 68.8746 4.84 68.4546 4.84C68.0253 4.84 67.6473 4.93333 67.3206 5.12C67.0033 5.30667 66.7513 5.568 66.5646 5.904C66.3873 6.23067 66.2986 6.618 66.2986 7.066V7.346C66.2986 7.794 66.4013 8.19067 66.6066 8.536C66.8119 8.88133 67.1013 9.14733 67.4746 9.334C67.8479 9.52067 68.2773 9.614 68.7626 9.614C69.1826 9.614 69.5606 9.54867 69.8966 9.418C70.2326 9.28733 70.5313 9.082 70.7926 8.802L71.7306 9.88C71.3946 10.272 70.9699 10.5753 70.4566 10.79C69.9526 10.9953 69.3739 11.098 68.7206 11.098ZM77.4296 11.098C76.5989 11.098 75.8709 10.9347 75.2456 10.608C74.6296 10.272 74.1489 9.81467 73.8036 9.236C73.4676 8.65733 73.2996 7.99933 73.2996 7.262C73.2996 6.51533 73.4629 5.85733 73.7896 5.288C74.1256 4.70933 74.5829 4.25667 75.1616 3.93C75.7496 3.60333 76.4169 3.44 77.1636 3.44C77.8916 3.44 78.5402 3.59867 79.1096 3.916C79.6789 4.23333 80.1269 4.68133 80.4536 5.26C80.7802 5.83867 80.9436 6.52 80.9436 7.304C80.9436 7.37867 80.9389 7.46267 80.9296 7.556C80.9296 7.64933 80.9249 7.738 80.9156 7.822H74.6856V6.66H79.9916L79.3056 7.024C79.3149 6.59467 79.2262 6.21667 79.0396 5.89C78.8529 5.56333 78.5962 5.30667 78.2696 5.12C77.9522 4.93333 77.5836 4.84 77.1636 4.84C76.7342 4.84 76.3562 4.93333 76.0296 5.12C75.7122 5.30667 75.4602 5.568 75.2736 5.904C75.0962 6.23067 75.0076 6.618 75.0076 7.066V7.346C75.0076 7.794 75.1102 8.19067 75.3156 8.536C75.5209 8.88133 75.8102 9.14733 76.1836 9.334C76.5569 9.52067 76.9862 9.614 77.4716 9.614C77.8916 9.614 78.2696 9.54867 78.6056 9.418C78.9416 9.28733 79.2402 9.082 79.5016 8.802L80.4396 9.88C80.1036 10.272 79.6789 10.5753 79.1656 10.79C78.6616 10.9953 78.0829 11.098 77.4296 11.098ZM89.3077 11.098C88.4864 11.098 87.8517 10.888 87.4037 10.468C86.9557 10.0387 86.7317 9.40867 86.7317 8.578V1.872H88.4817V8.536C88.4817 8.89067 88.5704 9.166 88.7477 9.362C88.9344 9.558 89.191 9.656 89.5177 9.656C89.9097 9.656 90.2364 9.55333 90.4977 9.348L90.9877 10.594C90.7824 10.762 90.5304 10.888 90.2317 10.972C89.933 11.056 89.625 11.098 89.3077 11.098ZM85.4997 4.98V3.58H90.4837V4.98H85.4997ZM95.5412 11.098C94.7759 11.098 94.0945 10.9347 93.4972 10.608C92.8999 10.272 92.4285 9.81467 92.0832 9.236C91.7379 8.65733 91.5652 7.99933 91.5652 7.262C91.5652 6.51533 91.7379 5.85733 92.0832 5.288C92.4285 4.70933 92.8999 4.25667 93.4972 3.93C94.0945 3.60333 94.7759 3.44 95.5412 3.44C96.3159 3.44 97.0019 3.60333 97.5992 3.93C98.2059 4.25667 98.6772 4.70467 99.0132 5.274C99.3585 5.84333 99.5312 6.506 99.5312 7.262C99.5312 7.99933 99.3585 8.65733 99.0132 9.236C98.6772 9.81467 98.2059 10.272 97.5992 10.608C97.0019 10.9347 96.3159 11.098 95.5412 11.098ZM95.5412 9.6C95.9705 9.6 96.3532 9.50667 96.6892 9.32C97.0252 9.13333 97.2865 8.86267 97.4732 8.508C97.6692 8.15333 97.7672 7.738 97.7672 7.262C97.7672 6.77667 97.6692 6.36133 97.4732 6.016C97.2865 5.66133 97.0252 5.39067 96.6892 5.204C96.3532 5.01733 95.9752 4.924 95.5552 4.924C95.1259 4.924 94.7432 5.01733 94.4072 5.204C94.0805 5.39067 93.8192 5.66133 93.6232 6.016C93.4272 6.36133 93.3292 6.77667 93.3292 7.262C93.3292 7.738 93.4272 8.15333 93.6232 8.508C93.8192 8.86267 94.0805 9.13333 94.4072 9.32C94.7432 9.50667 95.1212 9.6 95.5412 9.6ZM105.074 11V3.524H106.74V5.582L106.544 4.98C106.768 4.476 107.118 4.09333 107.594 3.832C108.079 3.57067 108.681 3.44 109.4 3.44V5.106C109.325 5.08733 109.255 5.078 109.19 5.078C109.124 5.06867 109.059 5.064 108.994 5.064C108.331 5.064 107.804 5.26 107.412 5.652C107.02 6.03467 106.824 6.60867 106.824 7.374V11H105.074ZM114.33 11.098C113.499 11.098 112.771 10.9347 112.146 10.608C111.53 10.272 111.049 9.81467 110.704 9.236C110.368 8.65733 110.2 7.99933 110.2 7.262C110.2 6.51533 110.363 5.85733 110.69 5.288C111.026 4.70933 111.483 4.25667 112.062 3.93C112.65 3.60333 113.317 3.44 114.064 3.44C114.792 3.44 115.441 3.59867 116.01 3.916C116.579 4.23333 117.027 4.68133 117.354 5.26C117.681 5.83867 117.844 6.52 117.844 7.304C117.844 7.37867 117.839 7.46267 117.83 7.556C117.83 7.64933 117.825 7.738 117.816 7.822H111.586V6.66H116.892L116.206 7.024C116.215 6.59467 116.127 6.21667 115.94 5.89C115.753 5.56333 115.497 5.30667 115.17 5.12C114.853 4.93333 114.484 4.84 114.064 4.84C113.635 4.84 113.257 4.93333 112.93 5.12C112.613 5.30667 112.361 5.568 112.174 5.904C111.997 6.23067 111.908 6.618 111.908 7.066V7.346C111.908 7.794 112.011 8.19067 112.216 8.536C112.421 8.88133 112.711 9.14733 113.084 9.334C113.457 9.52067 113.887 9.614 114.372 9.614C114.792 9.614 115.17 9.54867 115.506 9.418C115.842 9.28733 116.141 9.082 116.402 8.802L117.34 9.88C117.004 10.272 116.579 10.5753 116.066 10.79C115.562 10.9953 114.983 11.098 114.33 11.098ZM123.926 11V9.488L123.828 9.166V6.52C123.828 6.00667 123.674 5.61 123.366 5.33C123.058 5.04067 122.591 4.896 121.966 4.896C121.546 4.896 121.131 4.96133 120.72 5.092C120.319 5.22267 119.978 5.40467 119.698 5.638L119.012 4.364C119.413 4.056 119.889 3.82733 120.44 3.678C121 3.51933 121.579 3.44 122.176 3.44C123.259 3.44 124.094 3.70133 124.682 4.224C125.279 4.73733 125.578 5.53533 125.578 6.618V11H123.926ZM121.574 11.098C121.014 11.098 120.524 11.0047 120.104 10.818C119.684 10.622 119.357 10.356 119.124 10.02C118.9 9.67467 118.788 9.28733 118.788 8.858C118.788 8.438 118.886 8.06 119.082 7.724C119.287 7.388 119.619 7.122 120.076 6.926C120.533 6.73 121.14 6.632 121.896 6.632H124.066V7.794H122.022C121.425 7.794 121.023 7.892 120.818 8.088C120.613 8.27467 120.51 8.508 120.51 8.788C120.51 9.10533 120.636 9.35733 120.888 9.544C121.14 9.73067 121.49 9.824 121.938 9.824C122.367 9.824 122.75 9.726 123.086 9.53C123.431 9.334 123.679 9.04467 123.828 8.662L124.122 9.712C123.954 10.1507 123.651 10.4913 123.212 10.734C122.783 10.9767 122.237 11.098 121.574 11.098ZM131.267 11.098C130.483 11.098 129.783 10.9347 129.167 10.608C128.561 10.272 128.085 9.81467 127.739 9.236C127.394 8.65733 127.221 7.99933 127.221 7.262C127.221 6.51533 127.394 5.85733 127.739 5.288C128.085 4.70933 128.561 4.25667 129.167 3.93C129.783 3.60333 130.483 3.44 131.267 3.44C131.995 3.44 132.635 3.58933 133.185 3.888C133.745 4.17733 134.17 4.60667 134.459 5.176L133.115 5.96C132.891 5.60533 132.616 5.344 132.289 5.176C131.972 5.008 131.627 4.924 131.253 4.924C130.824 4.924 130.437 5.01733 130.091 5.204C129.746 5.39067 129.475 5.66133 129.279 6.016C129.083 6.36133 128.985 6.77667 128.985 7.262C128.985 7.74733 129.083 8.16733 129.279 8.522C129.475 8.86733 129.746 9.13333 130.091 9.32C130.437 9.50667 130.824 9.6 131.253 9.6C131.627 9.6 131.972 9.516 132.289 9.348C132.616 9.18 132.891 8.91867 133.115 8.564L134.459 9.348C134.17 9.908 133.745 10.342 133.185 10.65C132.635 10.9487 131.995 11.098 131.267 11.098ZM140.146 3.44C140.743 3.44 141.275 3.55667 141.742 3.79C142.218 4.02333 142.591 4.38267 142.862 4.868C143.133 5.344 143.268 5.96 143.268 6.716V11H141.518V6.94C141.518 6.27733 141.359 5.78267 141.042 5.456C140.734 5.12933 140.3 4.966 139.74 4.966C139.329 4.966 138.965 5.05 138.648 5.218C138.331 5.386 138.083 5.638 137.906 5.974C137.738 6.30067 137.654 6.716 137.654 7.22V11H135.904V0.611999H137.654V5.54L137.276 4.924C137.537 4.448 137.915 4.084 138.41 3.832C138.914 3.57067 139.493 3.44 140.146 3.44ZM152.717 11.098C151.952 11.098 151.27 10.9347 150.673 10.608C150.076 10.272 149.604 9.81467 149.259 9.236C148.914 8.65733 148.741 7.99933 148.741 7.262C148.741 6.51533 148.914 5.85733 149.259 5.288C149.604 4.70933 150.076 4.25667 150.673 3.93C151.27 3.60333 151.952 3.44 152.717 3.44C153.492 3.44 154.178 3.60333 154.775 3.93C155.382 4.25667 155.853 4.70467 156.189 5.274C156.534 5.84333 156.707 6.506 156.707 7.262C156.707 7.99933 156.534 8.65733 156.189 9.236C155.853 9.81467 155.382 10.272 154.775 10.608C154.178 10.9347 153.492 11.098 152.717 11.098ZM152.717 9.6C153.146 9.6 153.529 9.50667 153.865 9.32C154.201 9.13333 154.462 8.86267 154.649 8.508C154.845 8.15333 154.943 7.738 154.943 7.262C154.943 6.77667 154.845 6.36133 154.649 6.016C154.462 5.66133 154.201 5.39067 153.865 5.204C153.529 5.01733 153.151 4.924 152.731 4.924C152.302 4.924 151.919 5.01733 151.583 5.204C151.256 5.39067 150.995 5.66133 150.799 6.016C150.603 6.36133 150.505 6.77667 150.505 7.262C150.505 7.738 150.603 8.15333 150.799 8.508C150.995 8.86267 151.256 9.13333 151.583 9.32C151.919 9.50667 152.297 9.6 152.717 9.6ZM161.544 11.098C160.91 11.098 160.35 10.9813 159.864 10.748C159.379 10.5053 159.001 10.1413 158.73 9.656C158.46 9.16133 158.324 8.54067 158.324 7.794V3.524H160.074V7.556C160.074 8.228 160.224 8.732 160.522 9.068C160.83 9.39467 161.264 9.558 161.824 9.558C162.235 9.558 162.59 9.474 162.888 9.306C163.196 9.138 163.434 8.886 163.602 8.55C163.78 8.214 163.868 7.79867 163.868 7.304V3.524H165.618V11H163.952V8.984L164.246 9.6C163.994 10.0853 163.626 10.4587 163.14 10.72C162.655 10.972 162.123 11.098 161.544 11.098ZM170.724 11.098C169.902 11.098 169.268 10.888 168.82 10.468C168.372 10.0387 168.148 9.40867 168.148 8.578V1.872H169.898V8.536C169.898 8.89067 169.986 9.166 170.164 9.362C170.35 9.558 170.607 9.656 170.934 9.656C171.326 9.656 171.652 9.55333 171.914 9.348L172.404 10.594C172.198 10.762 171.946 10.888 171.648 10.972C171.349 11.056 171.041 11.098 170.724 11.098ZM166.916 4.98V3.58H171.9V4.98H166.916ZM179.364 11L176.62 3.524H178.272L180.624 10.118H179.84L182.304 3.524H183.774L186.168 10.118H185.398L187.82 3.524H189.374L186.616 11H184.936L182.752 5.162H183.27L181.044 11H179.364ZM190.578 11V3.524H192.328V11H190.578ZM191.46 2.292C191.133 2.292 190.862 2.18933 190.648 1.984C190.442 1.77867 190.34 1.53133 190.34 1.242C190.34 0.943333 190.442 0.695999 190.648 0.499999C190.862 0.294666 191.133 0.192 191.46 0.192C191.786 0.192 192.052 0.29 192.258 0.485999C192.472 0.672666 192.58 0.910666 192.58 1.2C192.58 1.508 192.477 1.76933 192.272 1.984C192.066 2.18933 191.796 2.292 191.46 2.292ZM197.439 11.098C196.617 11.098 195.983 10.888 195.535 10.468C195.087 10.0387 194.863 9.40867 194.863 8.578V1.872H196.613V8.536C196.613 8.89067 196.701 9.166 196.879 9.362C197.065 9.558 197.322 9.656 197.649 9.656C198.041 9.656 198.367 9.55333 198.629 9.348L199.119 10.594C198.913 10.762 198.661 10.888 198.363 10.972C198.064 11.056 197.756 11.098 197.439 11.098ZM193.631 4.98V3.58H198.615V4.98H193.631ZM204.8 3.44C205.397 3.44 205.929 3.55667 206.396 3.79C206.872 4.02333 207.245 4.38267 207.516 4.868C207.787 5.344 207.922 5.96 207.922 6.716V11H206.172V6.94C206.172 6.27733 206.013 5.78267 205.696 5.456C205.388 5.12933 204.954 4.966 204.394 4.966C203.983 4.966 203.619 5.05 203.302 5.218C202.985 5.386 202.737 5.638 202.56 5.974C202.392 6.30067 202.308 6.716 202.308 7.22V11H200.558V0.611999H202.308V5.54L201.93 4.924C202.191 4.448 202.569 4.084 203.064 3.832C203.568 3.57067 204.147 3.44 204.8 3.44ZM218.617 11V9.488L218.519 9.166V6.52C218.519 6.00667 218.365 5.61 218.057 5.33C217.749 5.04067 217.283 4.896 216.657 4.896C216.237 4.896 215.822 4.96133 215.411 5.092C215.01 5.22267 214.669 5.40467 214.389 5.638L213.703 4.364C214.105 4.056 214.581 3.82733 215.131 3.678C215.691 3.51933 216.27 3.44 216.867 3.44C217.95 3.44 218.785 3.70133 219.373 4.224C219.971 4.73733 220.269 5.53533 220.269 6.618V11H218.617ZM216.265 11.098C215.705 11.098 215.215 11.0047 214.795 10.818C214.375 10.622 214.049 10.356 213.815 10.02C213.591 9.67467 213.479 9.28733 213.479 8.858C213.479 8.438 213.577 8.06 213.773 7.724C213.979 7.388 214.31 7.122 214.767 6.926C215.225 6.73 215.831 6.632 216.587 6.632H218.757V7.794H216.713C216.116 7.794 215.715 7.892 215.509 8.088C215.304 8.27467 215.201 8.508 215.201 8.788C215.201 9.10533 215.327 9.35733 215.579 9.544C215.831 9.73067 216.181 9.824 216.629 9.824C217.059 9.824 217.441 9.726 217.777 9.53C218.123 9.334 218.37 9.04467 218.519 8.662L218.813 9.712C218.645 10.1507 218.342 10.4913 217.903 10.734C217.474 10.9767 216.928 11.098 216.265 11.098ZM226.757 3.44C227.355 3.44 227.887 3.55667 228.353 3.79C228.829 4.02333 229.203 4.38267 229.473 4.868C229.744 5.344 229.879 5.96 229.879 6.716V11H228.129V6.94C228.129 6.27733 227.971 5.78267 227.653 5.456C227.345 5.12933 226.911 4.966 226.351 4.966C225.941 4.966 225.577 5.05 225.259 5.218C224.942 5.386 224.695 5.638 224.517 5.974C224.349 6.30067 224.265 6.716 224.265 7.22V11H222.515V3.524H224.181V5.54L223.887 4.924C224.149 4.448 224.527 4.084 225.021 3.832C225.525 3.57067 226.104 3.44 226.757 3.44ZM232.578 13.814C232.214 13.814 231.85 13.7533 231.486 13.632C231.122 13.5107 230.819 13.3427 230.576 13.128L231.276 11.84C231.454 11.9987 231.654 12.1247 231.878 12.218C232.102 12.3113 232.331 12.358 232.564 12.358C232.882 12.358 233.138 12.2787 233.334 12.12C233.53 11.9613 233.712 11.6953 233.88 11.322L234.314 10.342L234.454 10.132L237.282 3.524H238.962L235.462 11.602C235.229 12.162 234.968 12.6053 234.678 12.932C234.398 13.2587 234.081 13.4873 233.726 13.618C233.381 13.7487 232.998 13.814 232.578 13.814ZM234.118 11.266L230.744 3.524H232.564L235.308 9.978L234.118 11.266ZM4.36571 28.098C3.64704 28.098 2.99838 27.9393 2.41971 27.622C1.85038 27.3047 1.40238 26.8613 1.07571 26.292C0.749044 25.7133 0.585711 25.0367 0.585711 24.262C0.585711 23.4873 0.749044 22.8153 1.07571 22.246C1.40238 21.6767 1.85038 21.2333 2.41971 20.916C2.99838 20.5987 3.64704 20.44 4.36571 20.44C5.00971 20.44 5.57438 20.58 6.05971 20.86C6.55438 21.1307 6.94171 21.546 7.22171 22.106C7.51104 22.666 7.65571 23.3847 7.65571 24.262C7.65571 25.13 7.50638 25.8487 7.20771 26.418C6.91838 26.978 6.52638 27.398 6.03171 27.678C5.53704 27.958 4.98171 28.098 4.36571 28.098ZM4.56171 26.6C4.98171 26.6 5.35971 26.5067 5.69571 26.32C6.03171 26.1333 6.29771 25.8627 6.49371 25.508C6.68971 25.1533 6.78771 24.738 6.78771 24.262C6.78771 23.7767 6.68971 23.3613 6.49371 23.016C6.29771 22.6613 6.03171 22.3907 5.69571 22.204C5.35971 22.0173 4.98171 21.924 4.56171 21.924C4.14171 21.924 3.76371 22.0173 3.42771 22.204C3.10104 22.3907 2.83971 22.6613 2.64371 23.016C2.44771 23.3613 2.34971 23.7767 2.34971 24.262C2.34971 24.738 2.44771 25.1533 2.64371 25.508C2.83971 25.8627 3.10104 26.1333 3.42771 26.32C3.76371 26.5067 4.14171 26.6 4.56171 26.6ZM6.75971 30.716V26.264L6.89971 24.276L6.84371 22.288V20.524H8.50971V30.716H6.75971ZM13.9634 28.098C13.3287 28.098 12.7687 27.9813 12.2834 27.748C11.798 27.5053 11.42 27.1413 11.1494 26.656C10.8787 26.1613 10.7434 25.5407 10.7434 24.794V20.524H12.4934V24.556C12.4934 25.228 12.6427 25.732 12.9414 26.068C13.2494 26.3947 13.6834 26.558 14.2434 26.558C14.654 26.558 15.0087 26.474 15.3074 26.306C15.6154 26.138 15.8534 25.886 16.0214 25.55C16.1987 25.214 16.2874 24.7987 16.2874 24.304V20.524H18.0374V28H16.3714V25.984L16.6654 26.6C16.4134 27.0853 16.0447 27.4587 15.5594 27.72C15.074 27.972 14.542 28.098 13.9634 28.098ZM23.8427 28.098C23.012 28.098 22.284 27.9347 21.6587 27.608C21.0427 27.272 20.562 26.8147 20.2167 26.236C19.8807 25.6573 19.7127 24.9993 19.7127 24.262C19.7127 23.5153 19.876 22.8573 20.2027 22.288C20.5387 21.7093 20.996 21.2567 21.5747 20.93C22.1627 20.6033 22.83 20.44 23.5767 20.44C24.3047 20.44 24.9533 20.5987 25.5227 20.916C26.092 21.2333 26.54 21.6813 26.8667 22.26C27.1933 22.8387 27.3567 23.52 27.3567 24.304C27.3567 24.3787 27.352 24.4627 27.3427 24.556C27.3427 24.6493 27.338 24.738 27.3287 24.822H21.0987V23.66H26.4047L25.7187 24.024C25.728 23.5947 25.6393 23.2167 25.4527 22.89C25.266 22.5633 25.0093 22.3067 24.6827 22.12C24.3653 21.9333 23.9967 21.84 23.5767 21.84C23.1473 21.84 22.7693 21.9333 22.4427 22.12C22.1253 22.3067 21.8733 22.568 21.6867 22.904C21.5093 23.2307 21.4207 23.618 21.4207 24.066V24.346C21.4207 24.794 21.5233 25.1907 21.7287 25.536C21.934 25.8813 22.2233 26.1473 22.5967 26.334C22.97 26.5207 23.3993 26.614 23.8847 26.614C24.3047 26.614 24.6827 26.5487 25.0187 26.418C25.3547 26.2873 25.6533 26.082 25.9147 25.802L26.8527 26.88C26.5167 27.272 26.092 27.5753 25.5787 27.79C25.0747 27.9953 24.496 28.098 23.8427 28.098ZM31.3476 28.098C30.7223 28.098 30.1203 28.0187 29.5416 27.86C28.9723 27.692 28.5196 27.4913 28.1836 27.258L28.8556 25.928C29.1916 26.1427 29.593 26.32 30.0596 26.46C30.5263 26.6 30.993 26.67 31.4596 26.67C32.0103 26.67 32.407 26.5953 32.6496 26.446C32.9016 26.2967 33.0276 26.096 33.0276 25.844C33.0276 25.6387 32.9436 25.4847 32.7756 25.382C32.6076 25.27 32.3883 25.186 32.1176 25.13C31.847 25.074 31.5436 25.0227 31.2076 24.976C30.881 24.9293 30.5496 24.8687 30.2136 24.794C29.887 24.71 29.5883 24.5933 29.3176 24.444C29.047 24.2853 28.8276 24.0753 28.6596 23.814C28.4916 23.5527 28.4076 23.2073 28.4076 22.778C28.4076 22.302 28.543 21.8913 28.8136 21.546C29.0843 21.1913 29.4623 20.9207 29.9476 20.734C30.4423 20.538 31.0256 20.44 31.6976 20.44C32.2016 20.44 32.7103 20.496 33.2236 20.608C33.737 20.72 34.1616 20.8787 34.4976 21.084L33.8256 22.414C33.471 22.1993 33.1116 22.0547 32.7476 21.98C32.393 21.896 32.0383 21.854 31.6836 21.854C31.1516 21.854 30.755 21.9333 30.4936 22.092C30.2416 22.2507 30.1156 22.4513 30.1156 22.694C30.1156 22.918 30.1996 23.086 30.3676 23.198C30.5356 23.31 30.755 23.3987 31.0256 23.464C31.2963 23.5293 31.595 23.5853 31.9216 23.632C32.2576 23.6693 32.589 23.73 32.9156 23.814C33.2423 23.898 33.541 24.0147 33.8116 24.164C34.0916 24.304 34.3156 24.5047 34.4836 24.766C34.6516 25.0273 34.7356 25.368 34.7356 25.788C34.7356 26.2547 34.5956 26.6607 34.3156 27.006C34.045 27.3513 33.6576 27.622 33.1536 27.818C32.6496 28.0047 32.0476 28.098 31.3476 28.098ZM39.0567 28.098C38.2354 28.098 37.6007 27.888 37.1527 27.468C36.7047 27.0387 36.4807 26.4087 36.4807 25.578V18.872H38.2307V25.536C38.2307 25.8907 38.3194 26.166 38.4967 26.362C38.6834 26.558 38.9401 26.656 39.2667 26.656C39.6587 26.656 39.9854 26.5533 40.2467 26.348L40.7367 27.594C40.5314 27.762 40.2794 27.888 39.9807 27.972C39.6821 28.056 39.3741 28.098 39.0567 28.098ZM35.2487 21.98V20.58H40.2327V21.98H35.2487ZM42.1763 28V20.524H43.9263V28H42.1763ZM43.0583 19.292C42.7317 19.292 42.461 19.1893 42.2463 18.984C42.041 18.7787 41.9383 18.5313 41.9383 18.242C41.9383 17.9433 42.041 17.696 42.2463 17.5C42.461 17.2947 42.7317 17.192 43.0583 17.192C43.385 17.192 43.651 17.29 43.8563 17.486C44.071 17.6727 44.1783 17.9107 44.1783 18.2C44.1783 18.508 44.0757 18.7693 43.8703 18.984C43.665 19.1893 43.3943 19.292 43.0583 19.292ZM49.5832 28.098C48.8179 28.098 48.1365 27.9347 47.5392 27.608C46.9419 27.272 46.4705 26.8147 46.1252 26.236C45.7799 25.6573 45.6072 24.9993 45.6072 24.262C45.6072 23.5153 45.7799 22.8573 46.1252 22.288C46.4705 21.7093 46.9419 21.2567 47.5392 20.93C48.1365 20.6033 48.8179 20.44 49.5832 20.44C50.3579 20.44 51.0439 20.6033 51.6412 20.93C52.2479 21.2567 52.7192 21.7047 53.0552 22.274C53.4005 22.8433 53.5732 23.506 53.5732 24.262C53.5732 24.9993 53.4005 25.6573 53.0552 26.236C52.7192 26.8147 52.2479 27.272 51.6412 27.608C51.0439 27.9347 50.3579 28.098 49.5832 28.098ZM49.5832 26.6C50.0125 26.6 50.3952 26.5067 50.7312 26.32C51.0672 26.1333 51.3285 25.8627 51.5152 25.508C51.7112 25.1533 51.8092 24.738 51.8092 24.262C51.8092 23.7767 51.7112 23.3613 51.5152 23.016C51.3285 22.6613 51.0672 22.3907 50.7312 22.204C50.3952 22.0173 50.0172 21.924 49.5972 21.924C49.1679 21.924 48.7852 22.0173 48.4492 22.204C48.1225 22.3907 47.8612 22.6613 47.6652 23.016C47.4692 23.3613 47.3712 23.7767 47.3712 24.262C47.3712 24.738 47.4692 25.1533 47.6652 25.508C47.8612 25.8627 48.1225 26.1333 48.4492 26.32C48.7852 26.5067 49.1632 26.6 49.5832 26.6ZM59.4886 20.44C60.086 20.44 60.618 20.5567 61.0846 20.79C61.5606 21.0233 61.934 21.3827 62.2046 21.868C62.4753 22.344 62.6106 22.96 62.6106 23.716V28H60.8606V23.94C60.8606 23.2773 60.702 22.7827 60.3846 22.456C60.0766 22.1293 59.6426 21.966 59.0826 21.966C58.672 21.966 58.308 22.05 57.9906 22.218C57.6733 22.386 57.426 22.638 57.2486 22.974C57.0806 23.3007 56.9966 23.716 56.9966 24.22V28H55.2466V20.524H56.9126V22.54L56.6186 21.924C56.88 21.448 57.258 21.084 57.7526 20.832C58.2566 20.5707 58.8353 20.44 59.4886 20.44ZM67.1406 28.098C66.5153 28.098 65.9133 28.0187 65.3346 27.86C64.7653 27.692 64.3126 27.4913 63.9766 27.258L64.6486 25.928C64.9846 26.1427 65.386 26.32 65.8526 26.46C66.3193 26.6 66.786 26.67 67.2526 26.67C67.8033 26.67 68.2 26.5953 68.4426 26.446C68.6946 26.2967 68.8206 26.096 68.8206 25.844C68.8206 25.6387 68.7366 25.4847 68.5686 25.382C68.4006 25.27 68.1813 25.186 67.9106 25.13C67.64 25.074 67.3366 25.0227 67.0006 24.976C66.674 24.9293 66.3426 24.8687 66.0066 24.794C65.68 24.71 65.3813 24.5933 65.1106 24.444C64.84 24.2853 64.6206 24.0753 64.4526 23.814C64.2846 23.5527 64.2006 23.2073 64.2006 22.778C64.2006 22.302 64.336 21.8913 64.6066 21.546C64.8773 21.1913 65.2553 20.9207 65.7406 20.734C66.2353 20.538 66.8186 20.44 67.4906 20.44C67.9946 20.44 68.5033 20.496 69.0166 20.608C69.53 20.72 69.9546 20.8787 70.2906 21.084L69.6186 22.414C69.264 22.1993 68.9046 22.0547 68.5406 21.98C68.186 21.896 67.8313 21.854 67.4766 21.854C66.9446 21.854 66.548 21.9333 66.2866 22.092C66.0346 22.2507 65.9086 22.4513 65.9086 22.694C65.9086 22.918 65.9926 23.086 66.1606 23.198C66.3286 23.31 66.548 23.3987 66.8186 23.464C67.0893 23.5293 67.388 23.5853 67.7146 23.632C68.0506 23.6693 68.382 23.73 68.7086 23.814C69.0353 23.898 69.334 24.0147 69.6046 24.164C69.8846 24.304 70.1086 24.5047 70.2766 24.766C70.4446 25.0273 70.5286 25.368 70.5286 25.788C70.5286 26.2547 70.3886 26.6607 70.1086 27.006C69.838 27.3513 69.4506 27.622 68.9466 27.818C68.4426 28.0047 67.8406 28.098 67.1406 28.098ZM79.2648 28.098C78.4995 28.098 77.8182 27.9347 77.2208 27.608C76.6235 27.272 76.1522 26.8147 75.8068 26.236C75.4615 25.6573 75.2888 24.9993 75.2888 24.262C75.2888 23.5153 75.4615 22.8573 75.8068 22.288C76.1522 21.7093 76.6235 21.2567 77.2208 20.93C77.8182 20.6033 78.4995 20.44 79.2648 20.44C80.0395 20.44 80.7255 20.6033 81.3228 20.93C81.9295 21.2567 82.4008 21.7047 82.7368 22.274C83.0822 22.8433 83.2548 23.506 83.2548 24.262C83.2548 24.9993 83.0822 25.6573 82.7368 26.236C82.4008 26.8147 81.9295 27.272 81.3228 27.608C80.7255 27.9347 80.0395 28.098 79.2648 28.098ZM79.2648 26.6C79.6942 26.6 80.0768 26.5067 80.4128 26.32C80.7488 26.1333 81.0102 25.8627 81.1968 25.508C81.3928 25.1533 81.4908 24.738 81.4908 24.262C81.4908 23.7767 81.3928 23.3613 81.1968 23.016C81.0102 22.6613 80.7488 22.3907 80.4128 22.204C80.0768 22.0173 79.6988 21.924 79.2788 21.924C78.8495 21.924 78.4668 22.0173 78.1308 22.204C77.8042 22.3907 77.5428 22.6613 77.3468 23.016C77.1508 23.3613 77.0528 23.7767 77.0528 24.262C77.0528 24.738 77.1508 25.1533 77.3468 25.508C77.5428 25.8627 77.8042 26.1333 78.1308 26.32C78.4668 26.5067 78.8448 26.6 79.2648 26.6ZM84.9283 28V20.524H86.5943V22.582L86.3983 21.98C86.6223 21.476 86.9723 21.0933 87.4483 20.832C87.9336 20.5707 88.5356 20.44 89.2543 20.44V22.106C89.1796 22.0873 89.1096 22.078 89.0443 22.078C88.9789 22.0687 88.9136 22.064 88.8483 22.064C88.1856 22.064 87.6583 22.26 87.2663 22.652C86.8743 23.0347 86.6783 23.6087 86.6783 24.374V28H84.9283ZM94.6763 28V20.524H96.4263V28H94.6763ZM95.5583 19.292C95.2317 19.292 94.961 19.1893 94.7463 18.984C94.541 18.7787 94.4383 18.5313 94.4383 18.242C94.4383 17.9433 94.541 17.696 94.7463 17.5C94.961 17.2947 95.2317 17.192 95.5583 17.192C95.885 17.192 96.151 17.29 96.3563 17.486C96.571 17.6727 96.6783 17.9107 96.6783 18.2C96.6783 18.508 96.5757 18.7693 96.3703 18.984C96.165 19.1893 95.8943 19.292 95.5583 19.292ZM101.033 28.098C100.408 28.098 99.8059 28.0187 99.2272 27.86C98.6579 27.692 98.2052 27.4913 97.8692 27.258L98.5412 25.928C98.8772 26.1427 99.2785 26.32 99.7452 26.46C100.212 26.6 100.679 26.67 101.145 26.67C101.696 26.67 102.093 26.5953 102.335 26.446C102.587 26.2967 102.713 26.096 102.713 25.844C102.713 25.6387 102.629 25.4847 102.461 25.382C102.293 25.27 102.074 25.186 101.803 25.13C101.533 25.074 101.229 25.0227 100.893 24.976C100.567 24.9293 100.235 24.8687 99.8992 24.794C99.5725 24.71 99.2739 24.5933 99.0032 24.444C98.7325 24.2853 98.5132 24.0753 98.3452 23.814C98.1772 23.5527 98.0932 23.2073 98.0932 22.778C98.0932 22.302 98.2285 21.8913 98.4992 21.546C98.7699 21.1913 99.1479 20.9207 99.6332 20.734C100.128 20.538 100.711 20.44 101.383 20.44C101.887 20.44 102.396 20.496 102.909 20.608C103.423 20.72 103.847 20.8787 104.183 21.084L103.511 22.414C103.157 22.1993 102.797 22.0547 102.433 21.98C102.079 21.896 101.724 21.854 101.369 21.854C100.837 21.854 100.441 21.9333 100.179 22.092C99.9272 22.2507 99.8012 22.4513 99.8012 22.694C99.8012 22.918 99.8852 23.086 100.053 23.198C100.221 23.31 100.441 23.3987 100.711 23.464C100.982 23.5293 101.281 23.5853 101.607 23.632C101.943 23.6693 102.275 23.73 102.601 23.814C102.928 23.898 103.227 24.0147 103.497 24.164C103.777 24.304 104.001 24.5047 104.169 24.766C104.337 25.0273 104.421 25.368 104.421 25.788C104.421 26.2547 104.281 26.6607 104.001 27.006C103.731 27.3513 103.343 27.622 102.839 27.818C102.335 28.0047 101.733 28.098 101.033 28.098ZM108.238 28.098C107.613 28.098 107.011 28.0187 106.432 27.86C105.863 27.692 105.41 27.4913 105.074 27.258L105.746 25.928C106.082 26.1427 106.484 26.32 106.95 26.46C107.417 26.6 107.884 26.67 108.35 26.67C108.901 26.67 109.298 26.5953 109.54 26.446C109.792 26.2967 109.918 26.096 109.918 25.844C109.918 25.6387 109.834 25.4847 109.666 25.382C109.498 25.27 109.279 25.186 109.008 25.13C108.738 25.074 108.434 25.0227 108.098 24.976C107.772 24.9293 107.44 24.8687 107.104 24.794C106.778 24.71 106.479 24.5933 106.208 24.444C105.938 24.2853 105.718 24.0753 105.55 23.814C105.382 23.5527 105.298 23.2073 105.298 22.778C105.298 22.302 105.434 21.8913 105.704 21.546C105.975 21.1913 106.353 20.9207 106.838 20.734C107.333 20.538 107.916 20.44 108.588 20.44C109.092 20.44 109.601 20.496 110.114 20.608C110.628 20.72 111.052 20.8787 111.388 21.084L110.716 22.414C110.362 22.1993 110.002 22.0547 109.638 21.98C109.284 21.896 108.929 21.854 108.574 21.854C108.042 21.854 107.646 21.9333 107.384 22.092C107.132 22.2507 107.006 22.4513 107.006 22.694C107.006 22.918 107.09 23.086 107.258 23.198C107.426 23.31 107.646 23.3987 107.916 23.464C108.187 23.5293 108.486 23.5853 108.812 23.632C109.148 23.6693 109.48 23.73 109.806 23.814C110.133 23.898 110.432 24.0147 110.702 24.164C110.982 24.304 111.206 24.5047 111.374 24.766C111.542 25.0273 111.626 25.368 111.626 25.788C111.626 26.2547 111.486 26.6607 111.206 27.006C110.936 27.3513 110.548 27.622 110.044 27.818C109.54 28.0047 108.938 28.098 108.238 28.098ZM116.297 28.098C115.663 28.098 115.103 27.9813 114.617 27.748C114.132 27.5053 113.754 27.1413 113.483 26.656C113.213 26.1613 113.077 25.5407 113.077 24.794V20.524H114.827V24.556C114.827 25.228 114.977 25.732 115.275 26.068C115.583 26.3947 116.017 26.558 116.577 26.558C116.988 26.558 117.343 26.474 117.641 26.306C117.949 26.138 118.187 25.886 118.355 25.55C118.533 25.214 118.621 24.7987 118.621 24.304V20.524H120.371V28H118.705V25.984L118.999 26.6C118.747 27.0853 118.379 27.4587 117.893 27.72C117.408 27.972 116.876 28.098 116.297 28.098ZM126.177 28.098C125.346 28.098 124.618 27.9347 123.993 27.608C123.377 27.272 122.896 26.8147 122.551 26.236C122.215 25.6573 122.047 24.9993 122.047 24.262C122.047 23.5153 122.21 22.8573 122.537 22.288C122.873 21.7093 123.33 21.2567 123.909 20.93C124.497 20.6033 125.164 20.44 125.911 20.44C126.639 20.44 127.287 20.5987 127.857 20.916C128.426 21.2333 128.874 21.6813 129.201 22.26C129.527 22.8387 129.691 23.52 129.691 24.304C129.691 24.3787 129.686 24.4627 129.677 24.556C129.677 24.6493 129.672 24.738 129.663 24.822H123.433V23.66H128.739L128.053 24.024C128.062 23.5947 127.973 23.2167 127.787 22.89C127.6 22.5633 127.343 22.3067 127.017 22.12C126.699 21.9333 126.331 21.84 125.911 21.84C125.481 21.84 125.103 21.9333 124.777 22.12C124.459 22.3067 124.207 22.568 124.021 22.904C123.843 23.2307 123.755 23.618 123.755 24.066V24.346C123.755 24.794 123.857 25.1907 124.063 25.536C124.268 25.8813 124.557 26.1473 124.931 26.334C125.304 26.5207 125.733 26.614 126.219 26.614C126.639 26.614 127.017 26.5487 127.353 26.418C127.689 26.2873 127.987 26.082 128.249 25.802L129.187 26.88C128.851 27.272 128.426 27.5753 127.913 27.79C127.409 27.9953 126.83 28.098 126.177 28.098ZM133.682 28.098C133.056 28.098 132.454 28.0187 131.876 27.86C131.306 27.692 130.854 27.4913 130.518 27.258L131.19 25.928C131.526 26.1427 131.927 26.32 132.394 26.46C132.86 26.6 133.327 26.67 133.794 26.67C134.344 26.67 134.741 26.5953 134.984 26.446C135.236 26.2967 135.362 26.096 135.362 25.844C135.362 25.6387 135.278 25.4847 135.11 25.382C134.942 25.27 134.722 25.186 134.452 25.13C134.181 25.074 133.878 25.0227 133.542 24.976C133.215 24.9293 132.884 24.8687 132.548 24.794C132.221 24.71 131.922 24.5933 131.652 24.444C131.381 24.2853 131.162 24.0753 130.994 23.814C130.826 23.5527 130.742 23.2073 130.742 22.778C130.742 22.302 130.877 21.8913 131.148 21.546C131.418 21.1913 131.796 20.9207 132.282 20.734C132.776 20.538 133.36 20.44 134.032 20.44C134.536 20.44 135.044 20.496 135.558 20.608C136.071 20.72 136.496 20.8787 136.832 21.084L136.16 22.414C135.805 22.1993 135.446 22.0547 135.082 21.98C134.727 21.896 134.372 21.854 134.018 21.854C133.486 21.854 133.089 21.9333 132.828 22.092C132.576 22.2507 132.45 22.4513 132.45 22.694C132.45 22.918 132.534 23.086 132.702 23.198C132.87 23.31 133.089 23.3987 133.36 23.464C133.63 23.5293 133.929 23.5853 134.256 23.632C134.592 23.6693 134.923 23.73 135.25 23.814C135.576 23.898 135.875 24.0147 136.146 24.164C136.426 24.304 136.65 24.5047 136.818 24.766C136.986 25.0273 137.07 25.368 137.07 25.788C137.07 26.2547 136.93 26.6607 136.65 27.006C136.379 27.3513 135.992 27.622 135.488 27.818C134.984 28.0047 134.382 28.098 133.682 28.098ZM143.062 30.814C142.698 30.814 142.334 30.7533 141.97 30.632C141.606 30.5107 141.303 30.3427 141.06 30.128L141.76 28.84C141.937 28.9987 142.138 29.1247 142.362 29.218C142.586 29.3113 142.815 29.358 143.048 29.358C143.365 29.358 143.622 29.2787 143.818 29.12C144.014 28.9613 144.196 28.6953 144.364 28.322L144.798 27.342L144.938 27.132L147.766 20.524H149.446L145.946 28.602C145.713 29.162 145.451 29.6053 145.162 29.932C144.882 30.2587 144.565 30.4873 144.21 30.618C143.865 30.7487 143.482 30.814 143.062 30.814ZM144.602 28.266L141.228 20.524H143.048L145.792 26.978L144.602 28.266ZM153.695 28.098C152.929 28.098 152.248 27.9347 151.651 27.608C151.053 27.272 150.582 26.8147 150.237 26.236C149.891 25.6573 149.719 24.9993 149.719 24.262C149.719 23.5153 149.891 22.8573 150.237 22.288C150.582 21.7093 151.053 21.2567 151.651 20.93C152.248 20.6033 152.929 20.44 153.695 20.44C154.469 20.44 155.155 20.6033 155.753 20.93C156.359 21.2567 156.831 21.7047 157.167 22.274C157.512 22.8433 157.685 23.506 157.685 24.262C157.685 24.9993 157.512 25.6573 157.167 26.236C156.831 26.8147 156.359 27.272 155.753 27.608C155.155 27.9347 154.469 28.098 153.695 28.098ZM153.695 26.6C154.124 26.6 154.507 26.5067 154.843 26.32C155.179 26.1333 155.44 25.8627 155.627 25.508C155.823 25.1533 155.921 24.738 155.921 24.262C155.921 23.7767 155.823 23.3613 155.627 23.016C155.44 22.6613 155.179 22.3907 154.843 22.204C154.507 22.0173 154.129 21.924 153.709 21.924C153.279 21.924 152.897 22.0173 152.561 22.204C152.234 22.3907 151.973 22.6613 151.777 23.016C151.581 23.3613 151.483 23.7767 151.483 24.262C151.483 24.738 151.581 25.1533 151.777 25.508C151.973 25.8627 152.234 26.1333 152.561 26.32C152.897 26.5067 153.275 26.6 153.695 26.6ZM162.522 28.098C161.887 28.098 161.327 27.9813 160.842 27.748C160.357 27.5053 159.979 27.1413 159.708 26.656C159.437 26.1613 159.302 25.5407 159.302 24.794V20.524H161.052V24.556C161.052 25.228 161.201 25.732 161.5 26.068C161.808 26.3947 162.242 26.558 162.802 26.558C163.213 26.558 163.567 26.474 163.866 26.306C164.174 26.138 164.412 25.886 164.58 25.55C164.757 25.214 164.846 24.7987 164.846 24.304V20.524H166.596V28H164.93V25.984L165.224 26.6C164.972 27.0853 164.603 27.4587 164.118 27.72C163.633 27.972 163.101 28.098 162.522 28.098ZM182.192 20.44C182.79 20.44 183.317 20.5567 183.774 20.79C184.241 21.0233 184.605 21.3827 184.866 21.868C185.128 22.344 185.258 22.96 185.258 23.716V28H183.508V23.94C183.508 23.2773 183.364 22.7827 183.074 22.456C182.785 22.1293 182.37 21.966 181.828 21.966C181.446 21.966 181.105 22.05 180.806 22.218C180.517 22.386 180.288 22.6333 180.12 22.96C179.962 23.2867 179.882 23.702 179.882 24.206V28H178.132V23.94C178.132 23.2773 177.988 22.7827 177.698 22.456C177.409 22.1293 176.994 21.966 176.452 21.966C176.07 21.966 175.729 22.05 175.43 22.218C175.141 22.386 174.912 22.6333 174.744 22.96C174.586 23.2867 174.506 23.702 174.506 24.206V28H172.756V20.524H174.422V22.512L174.128 21.924C174.38 21.4387 174.744 21.07 175.22 20.818C175.706 20.566 176.256 20.44 176.872 20.44C177.572 20.44 178.179 20.6127 178.692 20.958C179.215 21.3033 179.56 21.826 179.728 22.526L179.042 22.288C179.285 21.728 179.686 21.28 180.246 20.944C180.806 20.608 181.455 20.44 182.192 20.44ZM187.495 28V20.524H189.245V28H187.495ZM188.377 19.292C188.05 19.292 187.779 19.1893 187.565 18.984C187.359 18.7787 187.257 18.5313 187.257 18.242C187.257 17.9433 187.359 17.696 187.565 17.5C187.779 17.2947 188.05 17.192 188.377 17.192C188.703 17.192 188.969 17.29 189.175 17.486C189.389 17.6727 189.497 17.9107 189.497 18.2C189.497 18.508 189.394 18.7693 189.189 18.984C188.983 19.1893 188.713 19.292 188.377 19.292ZM194.93 30.814C194.239 30.814 193.562 30.7207 192.9 30.534C192.246 30.3567 191.71 30.0953 191.29 29.75L192.074 28.434C192.4 28.7047 192.811 28.9193 193.306 29.078C193.81 29.246 194.318 29.33 194.832 29.33C195.653 29.33 196.255 29.1387 196.638 28.756C197.02 28.3827 197.212 27.818 197.212 27.062V25.732L197.352 24.038L197.296 22.344V20.524H198.962V26.866C198.962 28.2193 198.616 29.2133 197.926 29.848C197.235 30.492 196.236 30.814 194.93 30.814ZM194.706 27.664C193.996 27.664 193.352 27.5147 192.774 27.216C192.204 26.908 191.752 26.4833 191.416 25.942C191.089 25.4007 190.926 24.766 190.926 24.038C190.926 23.3193 191.089 22.6893 191.416 22.148C191.752 21.6067 192.204 21.1867 192.774 20.888C193.352 20.5893 193.996 20.44 194.706 20.44C195.34 20.44 195.91 20.566 196.414 20.818C196.918 21.07 197.319 21.462 197.618 21.994C197.926 22.526 198.08 23.2073 198.08 24.038C198.08 24.8687 197.926 25.5547 197.618 26.096C197.319 26.628 196.918 27.0247 196.414 27.286C195.91 27.538 195.34 27.664 194.706 27.664ZM194.972 26.18C195.41 26.18 195.802 26.0913 196.148 25.914C196.493 25.7273 196.759 25.4753 196.946 25.158C197.142 24.8313 197.24 24.458 197.24 24.038C197.24 23.618 197.142 23.2493 196.946 22.932C196.759 22.6053 196.493 22.358 196.148 22.19C195.802 22.0127 195.41 21.924 194.972 21.924C194.533 21.924 194.136 22.0127 193.782 22.19C193.436 22.358 193.166 22.6053 192.97 22.932C192.783 23.2493 192.69 23.618 192.69 24.038C192.69 24.458 192.783 24.8313 192.97 25.158C193.166 25.4753 193.436 25.7273 193.782 25.914C194.136 26.0913 194.533 26.18 194.972 26.18ZM205.504 20.44C206.102 20.44 206.634 20.5567 207.1 20.79C207.576 21.0233 207.95 21.3827 208.22 21.868C208.491 22.344 208.626 22.96 208.626 23.716V28H206.876V23.94C206.876 23.2773 206.718 22.7827 206.4 22.456C206.092 22.1293 205.658 21.966 205.098 21.966C204.688 21.966 204.324 22.05 204.006 22.218C203.689 22.386 203.442 22.638 203.264 22.974C203.096 23.3007 203.012 23.716 203.012 24.22V28H201.262V17.612H203.012V22.54L202.634 21.924C202.896 21.448 203.274 21.084 203.768 20.832C204.272 20.5707 204.851 20.44 205.504 20.44ZM213.66 28.098C212.839 28.098 212.204 27.888 211.756 27.468C211.308 27.0387 211.084 26.4087 211.084 25.578V18.872H212.834V25.536C212.834 25.8907 212.923 26.166 213.1 26.362C213.287 26.558 213.544 26.656 213.87 26.656C214.262 26.656 214.589 26.5533 214.85 26.348L215.34 27.594C215.135 27.762 214.883 27.888 214.584 27.972C214.286 28.056 213.978 28.098 213.66 28.098ZM209.852 21.98V20.58H214.836V21.98H209.852ZM224.891 20.44C225.488 20.44 226.02 20.5567 226.487 20.79C226.963 21.0233 227.336 21.3827 227.607 21.868C227.878 22.344 228.013 22.96 228.013 23.716V28H226.263V23.94C226.263 23.2773 226.104 22.7827 225.787 22.456C225.479 22.1293 225.045 21.966 224.485 21.966C224.074 21.966 223.71 22.05 223.393 22.218C223.076 22.386 222.828 22.638 222.651 22.974C222.483 23.3007 222.399 23.716 222.399 24.22V28H220.649V17.612H222.399V22.54L222.021 21.924C222.282 21.448 222.66 21.084 223.155 20.832C223.659 20.5707 224.238 20.44 224.891 20.44ZM234.839 28V26.488L234.741 26.166V23.52C234.741 23.0067 234.587 22.61 234.279 22.33C233.971 22.0407 233.504 21.896 232.879 21.896C232.459 21.896 232.044 21.9613 231.633 22.092C231.232 22.2227 230.891 22.4047 230.611 22.638L229.925 21.364C230.326 21.056 230.802 20.8273 231.353 20.678C231.913 20.5193 232.492 20.44 233.089 20.44C234.172 20.44 235.007 20.7013 235.595 21.224C236.192 21.7373 236.491 22.5353 236.491 23.618V28H234.839ZM232.487 28.098C231.927 28.098 231.437 28.0047 231.017 27.818C230.597 27.622 230.27 27.356 230.037 27.02C229.813 26.6747 229.701 26.2873 229.701 25.858C229.701 25.438 229.799 25.06 229.995 24.724C230.2 24.388 230.532 24.122 230.989 23.926C231.446 23.73 232.053 23.632 232.809 23.632H234.979V24.794H232.935C232.338 24.794 231.936 24.892 231.731 25.088C231.526 25.2747 231.423 25.508 231.423 25.788C231.423 26.1053 231.549 26.3573 231.801 26.544C232.053 26.7307 232.403 26.824 232.851 26.824C233.28 26.824 233.663 26.726 233.999 26.53C234.344 26.334 234.592 26.0447 234.741 25.662L235.035 26.712C234.867 27.1507 234.564 27.4913 234.125 27.734C233.696 27.9767 233.15 28.098 232.487 28.098ZM240.588 28L237.382 20.524H239.202L241.96 27.118H241.064L243.92 20.524H245.6L242.394 28H240.588ZM250.003 28.098C249.172 28.098 248.444 27.9347 247.819 27.608C247.203 27.272 246.722 26.8147 246.377 26.236C246.041 25.6573 245.873 24.9993 245.873 24.262C245.873 23.5153 246.036 22.8573 246.363 22.288C246.699 21.7093 247.156 21.2567 247.735 20.93C248.323 20.6033 248.99 20.44 249.737 20.44C250.465 20.44 251.113 20.5987 251.683 20.916C252.252 21.2333 252.7 21.6813 253.027 22.26C253.353 22.8387 253.517 23.52 253.517 24.304C253.517 24.3787 253.512 24.4627 253.503 24.556C253.503 24.6493 253.498 24.738 253.489 24.822H247.259V23.66H252.565L251.879 24.024C251.888 23.5947 251.799 23.2167 251.613 22.89C251.426 22.5633 251.169 22.3067 250.843 22.12C250.525 21.9333 250.157 21.84 249.737 21.84C249.307 21.84 248.929 21.9333 248.603 22.12C248.285 22.3067 248.033 22.568 247.847 22.904C247.669 23.2307 247.581 23.618 247.581 24.066V24.346C247.581 24.794 247.683 25.1907 247.889 25.536C248.094 25.8813 248.383 26.1473 248.757 26.334C249.13 26.5207 249.559 26.614 250.045 26.614C250.465 26.614 250.843 26.5487 251.179 26.418C251.515 26.2873 251.813 26.082 252.075 25.802L253.013 26.88C252.677 27.272 252.252 27.5753 251.739 27.79C251.235 27.9953 250.656 28.098 250.003 28.098ZM255.31 24.752L254.974 18.2H257.046L256.696 24.752H255.31ZM256.01 28.098C255.683 28.098 255.412 27.9907 255.198 27.776C254.983 27.5613 254.876 27.3047 254.876 27.006C254.876 26.7073 254.983 26.4553 255.198 26.25C255.412 26.0353 255.683 25.928 256.01 25.928C256.336 25.928 256.602 26.0353 256.808 26.25C257.013 26.4553 257.116 26.7073 257.116 27.006C257.116 27.3047 257.013 27.5613 256.808 27.776C256.602 27.9907 256.336 28.098 256.01 28.098Z" fill="#717171"/>
</svg>
