<svg width="238" height="151" viewBox="0 0 238 151" fill="none" xmlns="http://www.w3.org/2000/svg">
<g clip-path="url(#clip0_1026_5867)">
<path d="M163.896 28.3031H163.254V10.692C163.254 7.98863 162.182 5.39601 160.274 3.48447C158.367 1.57292 155.78 0.499023 153.082 0.499023H115.852C113.154 0.499023 110.567 1.57292 108.66 3.48447C106.752 5.39601 105.681 7.98863 105.681 10.692V107.307C105.681 110.01 106.752 112.603 108.66 114.515C110.567 116.426 113.154 117.5 115.852 117.5H153.083C154.419 117.5 155.742 117.236 156.976 116.724C158.21 116.212 159.331 115.461 160.275 114.515C161.22 113.568 161.969 112.444 162.48 111.208C162.991 109.971 163.254 108.646 163.254 107.307V40.8386H163.896L163.896 28.3031Z" fill="#090814"/>
<path d="M153.495 3.15137H148.636C148.859 3.70054 148.944 4.29637 148.884 4.88637C148.824 5.47637 148.619 6.04243 148.289 6.53466C147.959 7.0269 147.513 7.4302 146.991 7.70904C146.468 7.98788 145.886 8.13369 145.294 8.13362H123.963C123.371 8.13369 122.788 7.98788 122.266 7.70904C121.744 7.4302 121.298 7.0269 120.968 6.53466C120.638 6.04243 120.433 5.47637 120.373 4.88637C120.312 4.29637 120.398 3.70054 120.621 3.15137H116.083C114.068 3.15137 112.136 3.95334 110.712 5.38085C109.288 6.80837 108.487 8.7445 108.487 10.7633V107.237C108.487 109.256 109.288 111.192 110.712 112.619C112.137 114.047 114.068 114.849 116.083 114.849H153.493C154.491 114.849 155.479 114.652 156.4 114.269C157.322 113.887 158.159 113.326 158.864 112.619C159.57 111.912 160.129 111.073 160.511 110.15C160.893 109.226 161.089 108.236 161.089 107.237V10.7633C161.089 8.7448 160.289 6.80894 158.865 5.38147C157.441 3.95401 155.509 3.15183 153.495 3.15137H153.495Z" fill="white"/>
<path d="M101.413 34.8572C101.413 34.8572 103.574 39.4481 103.229 40.834C103.026 41.6764 103.118 42.5629 103.488 43.346L107.464 43.1727L111.181 39.6212C111.181 39.6212 105.563 35.7232 105.908 33.8176C106.254 31.9119 101.413 34.8572 101.413 34.8572Z" fill="#9F616A"/>
<path d="M111.44 42.1328L113.169 52.8739C113.169 52.8739 113.169 62.5754 112.65 62.7487C112.132 62.922 109.884 62.7487 109.884 62.7487V51.8345L110.576 42.3061L111.44 42.1328Z" fill="#FC5D00"/>
<path opacity="0.1" d="M111.44 42.1328L113.169 52.8739C113.169 52.8739 113.169 62.5754 112.65 62.7487C112.132 62.922 109.884 62.7487 109.884 62.7487V51.8345L110.576 42.3061L111.44 42.1328Z" fill="black"/>
<path d="M121.812 105.193L123.195 110.564L125.27 109.005L127.172 104.674L124.751 101.729L121.812 105.193Z" fill="#9F616A"/>
<path d="M127.172 103.981C127.172 103.981 124.924 105.714 124.924 107.446C124.924 107.446 123.714 109.352 122.331 109.179V112.817C122.331 112.817 118.009 115.069 121.294 115.589C124.578 116.108 126.999 111.951 126.999 111.951C126.999 111.951 130.11 106.926 129.592 106.234C129.073 105.541 127.172 103.981 127.172 103.981Z" fill="#090814"/>
<path d="M111.428 61.9302C111.428 61.9302 114.726 65.521 113.169 71.0648C113.169 71.0648 111.44 83.5383 116.972 88.2158C122.504 92.8933 126.135 103.115 126.135 103.115L121.986 106.926C121.986 106.926 117.491 96.7048 112.823 92.7202C108.156 88.7356 107.637 84.2312 107.637 84.2312V68.4665L106.773 61.8828L111.428 61.9302Z" fill="#090814"/>
<path opacity="0.1" d="M111.428 61.9302C111.428 61.9302 114.726 65.521 113.169 71.0648C113.169 71.0648 111.44 83.5383 116.972 88.2158C122.504 92.8933 126.135 103.115 126.135 103.115L121.986 106.926C121.986 106.926 117.491 96.7048 112.823 92.7202C108.156 88.7356 107.637 84.2312 107.637 84.2312V68.4665L106.773 61.8828L111.428 61.9302Z" fill="#6F6F6F"/>
<path d="M107.118 109.179L105.39 111.084L106.081 112.644L108.156 113.337L111.786 111.951L111.267 109.872L107.118 109.179Z" fill="#9F616A"/>
<path d="M111.786 111.084C111.786 111.084 107.786 113.163 106.786 112.297C106.494 112.052 106.256 111.75 106.084 111.41C105.913 111.07 105.812 110.699 105.789 110.318C105.789 110.318 103.786 110.564 102.452 111.43C101.119 112.295 99.4782 112.596 98.4525 113.335C97.4267 114.075 97.4524 115.414 100.619 115.588C103.786 115.761 111.786 115.414 111.786 114.548L111.786 111.084Z" fill="#090814"/>
<path d="M100.549 64.1352C100.549 64.1352 98.3019 74.1833 102.278 85.6178C102.278 85.6178 104.179 92.0279 105.044 93.9335C105.908 95.8392 106.772 109.352 106.427 109.872C106.427 109.872 109.193 112.124 111.613 110.565C111.613 110.565 111.44 102.596 111.786 101.903C112.132 101.21 112.477 95.1466 110.403 90.1223C108.328 85.0981 110.057 72.9713 110.057 72.9713C110.057 72.9713 114.206 66.7342 111.094 63.0957L100.549 64.1352Z" fill="#090814"/>
<path d="M103.142 36.0697C105.816 36.0697 107.983 33.898 107.983 31.2189C107.983 28.5399 105.816 26.3682 103.142 26.3682C100.469 26.3682 98.3019 28.5399 98.3019 31.2189C98.3019 33.898 100.469 36.0697 103.142 36.0697Z" fill="#9F616A"/>
<path d="M112.132 62.9227C112.132 62.9227 110.749 65.0016 109.711 63.9621C108.98 63.2293 104.299 64.8214 101.598 65.8245C100.467 66.2438 99.6842 66.5608 99.6842 66.5608C99.6842 66.5608 99.61 64.1597 99.3903 61.1192C99.1379 57.6301 98.6954 53.2954 97.9554 50.7957C96.5725 46.1181 100.03 44.2124 100.03 44.2124C100.03 44.2124 102.969 40.7478 102.797 40.2278C102.624 39.7078 110.576 37.1094 110.576 37.1094C111.44 37.2827 112.132 45.0786 112.132 45.0786C112.132 45.0786 110.576 51.3153 109.711 55.1267C108.847 58.9382 112.132 62.9227 112.132 62.9227Z" fill="#FC5D00"/>
<path d="M97.2646 63.0957C97.2646 63.0957 93.4615 66.907 91.5599 67.9465C89.6583 68.986 88.6211 72.4507 90.1769 73.1437C91.7328 73.8367 95.1903 69.3324 95.1903 69.3324L100.204 65.1745L97.2646 63.0957Z" fill="#9F616A"/>
<path d="M97.9833 28.3212C97.5411 28.3607 97.2884 28.9187 97.4311 29.34C97.5738 29.7614 97.984 30.0369 98.403 30.1841C98.8219 30.3314 99.2698 30.3819 99.6892 30.5278C100.106 30.6807 100.493 30.9059 100.833 31.1932C102.027 32.1739 102.735 33.6682 102.96 35.1995C103.185 36.7307 102.961 38.2997 102.536 39.788C102.311 40.5764 101.944 41.4405 101.175 41.7204C102.015 41.5124 102.837 41.2333 103.63 40.886C104.211 40.6115 104.757 40.2642 105.345 40.0034C106.215 39.6478 107.127 39.408 108.059 39.2901C108.713 39.1877 109.405 39.1101 110.02 39.3575C110.397 39.5332 110.744 39.7676 111.048 40.052L113.025 41.7168C113.059 40.9931 113.082 40.269 113.093 39.5444C113.103 38.9147 113.1 38.2667 112.869 37.6813C112.64 37.1032 112.206 36.632 111.915 36.0826C111.197 34.7226 111.431 33.0856 111.444 31.5471C111.458 29.9543 111.202 28.3308 110.466 26.9189C109.731 25.5069 108.474 24.3246 106.942 23.9018C104.876 23.3315 102.698 24.1797 100.8 25.1741C100.353 25.3871 99.9364 25.6588 99.5612 25.9821C99.1622 26.3906 98.8232 26.8538 98.5543 27.3579L97.6142 28.9366" fill="#090814"/>
<path opacity="0.1" d="M110.23 46.8105C110.23 46.8105 106.945 59.2841 106.6 60.1503C106.351 60.7722 103.422 64.0812 101.599 65.8244C100.468 66.2432 99.6848 66.56 99.6848 66.56C99.6848 66.56 99.6106 64.1589 99.3909 61.1184C100.798 59.5536 102.278 58.071 102.278 58.071C102.278 58.071 103.834 48.5426 103.661 44.9046C103.488 41.2666 107.118 40.4004 107.118 40.4004C111.267 40.9203 110.23 46.8105 110.23 46.8105Z" fill="black"/>
<path d="M106.6 39.708C106.6 39.708 102.969 40.5742 103.142 44.2122C103.315 47.8502 101.759 57.3786 101.759 57.3786C101.759 57.3786 95.8816 63.2689 96.4003 63.9619C96.9189 64.655 99.1409 66.0172 99.6722 66.2023C100.204 66.3875 105.736 60.3235 106.081 59.4576C106.427 58.5917 109.712 46.1179 109.712 46.1179C109.712 46.1179 110.749 40.2277 106.6 39.708Z" fill="#FC5D00"/>
<path d="M73.5179 108.059C73.5792 107.872 74.0432 107.954 74.0877 107.786C74.1323 107.619 73.6869 107.479 73.3453 107.007C73.2837 106.922 72.8955 106.386 73.0444 106.161C73.3264 105.733 75.2896 106.798 75.7608 106.2C75.8643 106.069 75.9067 105.844 76.2148 105.425C76.3374 105.259 76.416 105.178 76.51 105.181C76.6434 105.184 76.6909 105.351 76.9005 105.654C77.2147 106.107 77.3281 106.051 77.5351 106.423C77.6888 106.699 77.707 106.876 77.8178 106.886C77.9747 106.901 78.0395 106.557 78.2309 106.544C78.4264 106.53 78.6221 106.87 78.719 107.135C78.901 107.633 78.7884 108.014 78.7628 108.393C78.7357 108.805 78.7994 109.409 79.2464 110.183L83.4637 116.916C82.5581 115.543 79.9876 111.801 78.9519 110.428C78.6529 110.032 78.3316 109.634 77.8372 109.559C77.361 109.487 76.7819 109.723 75.9733 109.709C75.8789 109.707 75.616 109.7 75.5521 109.56C75.4993 109.445 75.6305 109.344 75.5828 109.236C75.5187 109.09 75.2306 109.153 74.8385 109.056C74.6162 108.998 74.4046 108.904 74.2119 108.778C74.1632 108.749 73.4368 108.308 73.5183 108.058L73.5179 108.059Z" fill="#D6D6E3"/>
<path d="M84.5618 109.632C84.6714 109.607 84.7648 109.859 84.8599 109.833C84.9551 109.807 84.8949 109.547 85.0273 109.243C85.0512 109.188 85.2017 108.843 85.3551 108.851C85.6457 108.866 85.6907 110.139 86.1194 110.198C86.2895 110.189 86.4601 110.189 86.6302 110.198C86.7469 110.211 86.8092 110.226 86.8345 110.273C86.8712 110.339 86.8032 110.411 86.7154 110.602C86.5841 110.887 86.6443 110.926 86.5219 111.136C86.431 111.291 86.3498 111.351 86.3767 111.408C86.4148 111.489 86.6019 111.423 86.6636 111.513C86.7253 111.602 86.6167 111.799 86.5147 111.923C86.3233 112.157 86.1044 112.211 85.9113 112.308C85.5946 112.479 85.3374 112.742 85.174 113.063L83.0933 117.08C83.5043 116.238 84.5955 113.894 84.9691 112.988C85.0769 112.727 85.1791 112.454 85.0731 112.189C84.971 111.934 84.6883 111.717 84.4617 111.316C84.4353 111.269 84.3632 111.137 84.4131 111.066C84.4544 111.006 84.5414 111.042 84.5808 110.987C84.6336 110.914 84.5199 110.79 84.4539 110.569C84.4183 110.443 84.4032 110.312 84.4092 110.181C84.4092 110.148 84.4157 109.664 84.5616 109.632L84.5618 109.632Z" fill="#D6D6E3"/>
<path d="M82.4861 110.611L82.4207 110.006L82.3806 109.968C82.2132 109.822 82.093 109.629 82.0354 109.415C82.0283 109.384 82.0231 109.353 82.0175 109.322C81.9994 109.163 81.9417 109.012 81.8496 108.882C81.7828 108.793 81.606 108.59 81.4238 108.661C81.3806 108.677 81.3437 108.707 81.3183 108.745L81.3002 108.727C81.246 108.673 81.1828 108.628 81.1134 108.596C81.0583 108.569 81.0066 108.535 80.9593 108.496C80.9281 108.471 80.903 108.449 80.8819 108.43C80.8508 108.393 80.8108 108.365 80.7657 108.347C80.7205 108.33 80.6718 108.325 80.6241 108.332C80.5771 108.351 80.5353 108.38 80.5028 108.419C80.4702 108.458 80.4478 108.504 80.4376 108.553C80.4036 108.647 80.3791 108.743 80.3646 108.841C80.3622 108.86 80.3586 108.878 80.3538 108.897C80.3279 108.962 80.0016 108.979 79.8787 108.986C79.6027 109.001 79.3639 109.014 79.3064 109.204C79.2652 109.339 79.351 109.487 79.569 109.655C79.6294 109.7 79.6948 109.739 79.764 109.77C79.7435 109.788 79.727 109.811 79.7155 109.836C79.704 109.86 79.6976 109.888 79.6969 109.915C79.6929 110.066 79.8475 110.182 80.1565 110.26C80.2589 110.29 80.3653 110.303 80.4717 110.299C80.5278 110.296 80.5836 110.289 80.6387 110.277C80.6466 110.308 80.6616 110.336 80.6825 110.359C80.7258 110.401 80.7805 110.428 80.8394 110.438C80.8983 110.447 80.9588 110.439 81.013 110.414C81.1557 110.372 81.2943 110.316 81.427 110.249C81.5097 110.204 81.598 110.17 81.6897 110.148C81.8261 110.129 81.9532 110.213 82.1054 110.325L82.4869 110.612L82.4861 110.611Z" fill="#D6D6E3"/>
<path d="M81.3977 107.165L81.9983 107.255L82.0451 107.226C82.2286 107.101 82.4451 107.033 82.6671 107.032C82.6983 107.033 82.7294 107.035 82.7611 107.038C82.9185 107.06 83.0792 107.043 83.228 106.987C83.3313 106.944 83.5714 106.825 83.5491 106.63C83.5443 106.584 83.5252 106.541 83.4945 106.506L83.5165 106.493C83.583 106.455 83.6422 106.405 83.6916 106.346C83.7316 106.299 83.7769 106.257 83.8266 106.222C83.8587 106.198 83.8867 106.179 83.9104 106.163C83.9539 106.142 83.9914 106.111 84.0193 106.071C84.0473 106.032 84.0647 105.986 84.07 105.938C84.0642 105.888 84.046 105.84 84.017 105.798C83.9879 105.757 83.949 105.724 83.9038 105.701C83.8226 105.645 83.7359 105.596 83.6449 105.558C83.6274 105.55 83.6104 105.542 83.5939 105.533C83.5371 105.491 83.6035 105.17 83.6277 105.05C83.6832 104.778 83.7313 104.543 83.5631 104.44C83.4427 104.366 83.2784 104.411 83.0612 104.58C83.0018 104.627 82.9479 104.681 82.9007 104.74C82.8882 104.715 82.8709 104.693 82.8497 104.676C82.8285 104.658 82.8039 104.645 82.7775 104.637C82.6326 104.595 82.4816 104.716 82.3278 104.995C82.2732 105.087 82.2335 105.187 82.2102 105.291C82.1992 105.346 82.1922 105.402 82.1892 105.459C82.1578 105.458 82.1268 105.466 82.0988 105.48C82.048 105.511 82.0078 105.558 81.9835 105.612C81.9592 105.667 81.9518 105.728 81.9624 105.787C81.967 105.936 81.9852 106.084 82.0168 106.23C82.0394 106.322 82.0499 106.416 82.0479 106.51C82.0317 106.647 81.918 106.749 81.7706 106.868L81.3972 107.165L81.3977 107.165Z" fill="#D6D6E3"/>
<path d="M81.3168 105.357L81.2515 104.751L81.2113 104.713C81.0439 104.567 80.9237 104.375 80.8661 104.16C80.8592 104.129 80.8538 104.098 80.8483 104.067C80.8301 103.909 80.7723 103.757 80.6802 103.627C80.6133 103.538 80.4366 103.335 80.2543 103.406C80.2112 103.422 80.1743 103.452 80.1488 103.491L80.1307 103.472C80.0765 103.418 80.0133 103.374 79.944 103.341C79.8888 103.314 79.8371 103.281 79.7899 103.241C79.7586 103.216 79.7335 103.194 79.7125 103.175C79.6814 103.138 79.6414 103.11 79.5962 103.093C79.5511 103.075 79.5024 103.07 79.4547 103.077C79.4076 103.096 79.3659 103.125 79.3333 103.164C79.3008 103.203 79.2784 103.249 79.2682 103.299C79.2342 103.392 79.2097 103.488 79.1952 103.586C79.1928 103.605 79.1892 103.623 79.1844 103.642C79.1584 103.707 78.8321 103.724 78.7093 103.731C78.4333 103.746 78.1944 103.759 78.1369 103.949C78.0958 104.084 78.1816 104.232 78.3996 104.4C78.46 104.445 78.5254 104.484 78.5946 104.515C78.5741 104.533 78.5576 104.556 78.5461 104.58C78.5345 104.605 78.5282 104.633 78.5274 104.66C78.5235 104.811 78.678 104.927 78.9871 105.005C79.0894 105.035 79.1958 105.048 79.3023 105.044C79.3584 105.041 79.4142 105.034 79.4693 105.022C79.4772 105.053 79.4922 105.081 79.513 105.104C79.5564 105.146 79.611 105.173 79.67 105.182C79.7289 105.192 79.7893 105.184 79.8436 105.159C79.9863 105.117 80.1249 105.061 80.2576 104.994C80.3403 104.948 80.4286 104.914 80.5202 104.893C80.6567 104.873 80.7838 104.958 80.936 105.07L81.3173 105.357L81.3168 105.357Z" fill="#D6D6E3"/>
<path d="M83.2645 116.951L83.3708 116.846L83.5185 116.831C83.5185 116.816 83.5185 116.784 83.5198 116.733C83.5347 115.923 83.5032 115.112 83.4254 114.306C83.3412 113.385 83.2048 112.469 83.0168 111.564C82.8271 110.651 82.6315 109.972 82.4741 109.427C82.3551 109.015 82.2352 108.625 82.118 108.245C81.7843 107.241 81.5201 106.215 81.3272 105.175C81.2378 104.726 81.2542 104.263 81.3752 103.822C81.48 103.466 81.6547 103.135 81.889 102.848L81.6567 102.66C81.3976 102.978 81.2045 103.345 81.0886 103.739C80.9544 104.223 80.9352 104.732 81.0327 105.225C81.2276 106.278 81.4949 107.316 81.8327 108.333C81.9494 108.712 82.069 109.1 82.1873 109.51C82.3434 110.051 82.5375 110.724 82.7245 111.624C82.9101 112.518 83.0449 113.423 83.128 114.332C83.2048 115.128 83.2358 115.927 83.2209 116.726C83.218 116.873 83.2173 116.904 83.2647 116.951L83.2645 116.951Z" fill="#D6D6E3"/>
<path d="M82.5267 103.193C82.5387 103.19 82.5506 103.187 82.5628 103.184C82.8078 103.115 83.0043 102.915 83.1465 102.589C83.2172 102.384 83.2557 102.17 83.2606 101.953C83.2785 101.742 83.2785 101.531 83.2606 101.32C83.2431 101.103 83.2199 101.016 83.1609 100.947C83.0958 100.874 83.0092 100.825 82.9139 100.805C82.9113 100.775 82.9008 100.746 82.8834 100.722C82.8066 100.611 82.6782 100.656 82.6086 100.68C82.5671 100.696 82.5242 100.709 82.4805 100.717C82.4153 100.727 82.3485 100.72 82.287 100.696C82.2015 100.668 82.1119 100.654 82.022 100.655C81.8622 100.66 81.7067 100.708 81.5718 100.794C81.2799 100.969 81.1795 101.25 81.0629 101.574C80.9967 101.769 80.9571 101.971 80.945 102.177C80.9255 102.303 80.9422 102.432 80.9933 102.548C81.0601 102.68 81.1626 102.741 81.4165 102.869C81.5801 102.959 81.7498 103.038 81.9243 103.105C82.1785 103.185 82.338 103.235 82.5258 103.193L82.5267 103.193Z" fill="#D6D6E3"/>
<path d="M69 117.285C69 117.4 69.1751 117.491 69.394 117.491H168.607C168.826 117.491 169.001 117.4 169.001 117.285C169.001 117.171 168.826 117.079 168.607 117.079H69.394C69.1751 117.079 69 117.171 69 117.285Z" fill="#F2F2F2"/>
<path d="M138.846 67.7324H130.674C129.746 67.7314 128.856 67.3612 128.199 66.7033C127.542 66.0453 127.173 65.1532 127.172 64.2226V61.8828C127.172 61.5725 127.295 61.2749 127.514 61.0555C127.733 60.8361 128.03 60.7129 128.339 60.7129C128.649 60.7129 128.946 60.8361 129.165 61.0555C129.384 61.2749 129.507 61.5725 129.507 61.8828V64.2226C129.507 64.5328 129.63 64.8302 129.849 65.0495C130.068 65.2688 130.365 65.3922 130.674 65.3926H138.846C139.156 65.3922 139.452 65.2688 139.671 65.0495C139.89 64.8302 140.013 64.5328 140.014 64.2226V50.1836C140.013 49.8734 139.89 49.576 139.671 49.3567C139.452 49.1374 139.156 49.014 138.846 49.0137H130.674C130.365 49.014 130.068 49.1374 129.849 49.3567C129.63 49.576 129.507 49.8734 129.507 50.1836V52.5234C129.507 52.8337 129.384 53.1313 129.165 53.3507C128.946 53.5701 128.649 53.6934 128.339 53.6934C128.03 53.6934 127.733 53.5701 127.514 53.3507C127.295 53.1313 127.172 52.8337 127.172 52.5234V50.1836C127.173 49.2531 127.542 48.361 128.199 47.703C128.856 47.045 129.746 46.6749 130.674 46.6738H138.846C139.775 46.6749 140.665 47.045 141.322 47.703C141.978 48.361 142.347 49.2531 142.348 50.1836V64.2226C142.347 65.1532 141.978 66.0453 141.322 66.7033C140.665 67.3612 139.775 67.7314 138.846 67.7324Z" fill="#F2F2F2"/>
<path d="M134.294 58.2556H121.691C121.484 58.2554 121.281 58.1936 121.108 58.078C120.936 57.9623 120.801 57.798 120.722 57.6058C120.642 57.4136 120.621 57.2021 120.662 56.998C120.702 56.7939 120.802 56.6063 120.948 56.459L124.099 53.3014C124.196 53.1987 124.312 53.1164 124.44 53.0594C124.569 53.0025 124.708 52.972 124.849 52.9699C124.989 52.9677 125.129 52.9939 125.259 53.0468C125.39 53.0998 125.508 53.1784 125.608 53.2782C125.707 53.3779 125.786 53.4966 125.838 53.6273C125.891 53.758 125.917 53.8979 125.915 54.0389C125.913 54.1799 125.883 54.319 125.826 54.448C125.769 54.577 125.687 54.6932 125.584 54.7898L124.227 56.1499H134.294C134.567 56.1578 134.826 56.2721 135.017 56.4686C135.207 56.6651 135.314 56.9283 135.314 57.2023C135.314 57.4763 135.207 57.7395 135.017 57.9361C134.826 58.1326 134.567 58.2469 134.294 58.2548V58.2556Z" fill="#F2F2F2"/>
<path d="M124.842 61.413C124.704 61.4132 124.567 61.386 124.44 61.3331C124.312 61.2802 124.197 61.2026 124.099 61.1048L120.948 57.9473C120.761 57.748 120.658 57.4833 120.662 57.2094C120.666 56.9355 120.776 56.674 120.97 56.4803C121.163 56.2866 121.424 56.176 121.697 56.172C121.971 56.168 122.235 56.2709 122.434 56.4589L125.584 59.6165C125.731 59.7638 125.831 59.9513 125.871 60.1554C125.912 60.3594 125.891 60.571 125.811 60.7632C125.732 60.9554 125.597 61.1197 125.425 61.2354C125.252 61.3511 125.049 61.4128 124.842 61.413Z" fill="#F2F2F2"/>
</g>
<path d="M0.17057 147.5L4.60857 137.7H5.99457L10.4466 147.5H8.97657L5.01457 138.484H5.57457L1.61257 147.5H0.17057ZM2.06057 145.05L2.43857 143.93H7.95457L8.36057 145.05H2.06057ZM11.7125 147.5V140.08H13.0005V142.096L12.8745 141.592C13.0798 141.079 13.4251 140.687 13.9105 140.416C14.3958 140.145 14.9931 140.01 15.7025 140.01V141.312C15.6465 141.303 15.5905 141.298 15.5345 141.298C15.4878 141.298 15.4411 141.298 15.3945 141.298C14.6758 141.298 14.1065 141.513 13.6865 141.942C13.2665 142.371 13.0565 142.992 13.0565 143.804V147.5H11.7125ZM20.5946 147.584C19.8013 147.584 19.1013 147.421 18.4946 147.094C17.8973 146.767 17.4306 146.319 17.0946 145.75C16.7679 145.181 16.6046 144.527 16.6046 143.79C16.6046 143.053 16.7633 142.399 17.0806 141.83C17.4073 141.261 17.8506 140.817 18.4106 140.5C18.9799 140.173 19.6193 140.01 20.3286 140.01C21.0473 140.01 21.6819 140.169 22.2326 140.486C22.7833 140.803 23.2126 141.251 23.5206 141.83C23.8379 142.399 23.9966 143.067 23.9966 143.832C23.9966 143.888 23.9919 143.953 23.9826 144.028C23.9826 144.103 23.9779 144.173 23.9686 144.238H17.6546V143.272H23.2686L22.7226 143.608C22.7319 143.132 22.6339 142.707 22.4286 142.334C22.2233 141.961 21.9386 141.671 21.5746 141.466C21.2199 141.251 20.8046 141.144 20.3286 141.144C19.8619 141.144 19.4466 141.251 19.0826 141.466C18.7186 141.671 18.4339 141.965 18.2286 142.348C18.0233 142.721 17.9206 143.151 17.9206 143.636V143.86C17.9206 144.355 18.0326 144.798 18.2566 145.19C18.4899 145.573 18.8119 145.871 19.2226 146.086C19.6333 146.301 20.1046 146.408 20.6366 146.408C21.0753 146.408 21.4719 146.333 21.8266 146.184C22.1906 146.035 22.5079 145.811 22.7786 145.512L23.5206 146.38C23.1846 146.772 22.7646 147.071 22.2606 147.276C21.7659 147.481 21.2106 147.584 20.5946 147.584ZM29.9446 150.3C29.59 150.3 29.2446 150.239 28.9086 150.118C28.5726 150.006 28.2833 149.838 28.0406 149.614L28.6146 148.606C28.8013 148.783 29.0066 148.919 29.2306 149.012C29.4546 149.105 29.6926 149.152 29.9446 149.152C30.2713 149.152 30.542 149.068 30.7566 148.9C30.9713 148.732 31.172 148.433 31.3586 148.004L31.8206 146.982L31.9606 146.814L34.8726 140.08H36.1886L32.5906 148.242C32.376 148.765 32.1333 149.175 31.8626 149.474C31.6013 149.773 31.312 149.983 30.9946 150.104C30.6773 150.235 30.3273 150.3 29.9446 150.3ZM31.7086 147.738L28.3206 140.08H29.7206L32.6046 146.688L31.7086 147.738ZM40.4159 147.584C39.6692 147.584 39.0065 147.421 38.4279 147.094C37.8492 146.767 37.3919 146.319 37.0559 145.75C36.7199 145.171 36.5519 144.518 36.5519 143.79C36.5519 143.053 36.7199 142.399 37.0559 141.83C37.3919 141.261 37.8492 140.817 38.4279 140.5C39.0065 140.173 39.6692 140.01 40.4159 140.01C41.1532 140.01 41.8112 140.173 42.3899 140.5C42.9779 140.817 43.4352 141.261 43.7619 141.83C44.0979 142.39 44.2659 143.043 44.2659 143.79C44.2659 144.527 44.0979 145.181 43.7619 145.75C43.4352 146.319 42.9779 146.767 42.3899 147.094C41.8112 147.421 41.1532 147.584 40.4159 147.584ZM40.4159 146.408C40.8919 146.408 41.3165 146.301 41.6899 146.086C42.0725 145.871 42.3712 145.568 42.5859 145.176C42.8005 144.775 42.9079 144.313 42.9079 143.79C42.9079 143.258 42.8005 142.801 42.5859 142.418C42.3712 142.026 42.0725 141.723 41.6899 141.508C41.3165 141.293 40.8919 141.186 40.4159 141.186C39.9399 141.186 39.5152 141.293 39.1419 141.508C38.7685 141.723 38.4699 142.026 38.2459 142.418C38.0219 142.801 37.9099 143.258 37.9099 143.79C37.9099 144.313 38.0219 144.775 38.2459 145.176C38.4699 145.568 38.7685 145.871 39.1419 146.086C39.5152 146.301 39.9399 146.408 40.4159 146.408ZM49.2466 147.584C48.6119 147.584 48.0519 147.467 47.5666 147.234C47.0906 147.001 46.7173 146.646 46.4466 146.17C46.1853 145.685 46.0546 145.078 46.0546 144.35V140.08H47.3986V144.196C47.3986 144.924 47.5713 145.47 47.9166 145.834C48.2713 146.198 48.7659 146.38 49.4006 146.38C49.8673 146.38 50.2733 146.287 50.6186 146.1C50.9639 145.904 51.2299 145.624 51.4166 145.26C51.6033 144.887 51.6966 144.439 51.6966 143.916V140.08H53.0406V147.5H51.7666V145.498L51.9766 146.03C51.7339 146.525 51.3699 146.907 50.8846 147.178C50.3993 147.449 49.8533 147.584 49.2466 147.584ZM61.487 147.584C60.871 147.584 60.283 147.5 59.723 147.332C59.1723 147.164 58.7383 146.959 58.421 146.716L58.981 145.652C59.2983 145.867 59.6903 146.049 60.157 146.198C60.6236 146.347 61.0996 146.422 61.585 146.422C62.2103 146.422 62.6583 146.333 62.929 146.156C63.209 145.979 63.349 145.731 63.349 145.414C63.349 145.181 63.265 144.999 63.097 144.868C62.929 144.737 62.705 144.639 62.425 144.574C62.1543 144.509 61.851 144.453 61.515 144.406C61.179 144.35 60.843 144.285 60.507 144.21C60.171 144.126 59.863 144.014 59.583 143.874C59.303 143.725 59.079 143.524 58.911 143.272C58.743 143.011 58.659 142.665 58.659 142.236C58.659 141.788 58.785 141.396 59.037 141.06C59.289 140.724 59.6436 140.467 60.101 140.29C60.5676 140.103 61.1183 140.01 61.753 140.01C62.2383 140.01 62.7283 140.071 63.223 140.192C63.727 140.304 64.1376 140.467 64.455 140.682L63.881 141.746C63.545 141.522 63.195 141.368 62.831 141.284C62.467 141.2 62.103 141.158 61.739 141.158C61.151 141.158 60.7123 141.256 60.423 141.452C60.1336 141.639 59.989 141.881 59.989 142.18C59.989 142.432 60.073 142.628 60.241 142.768C60.4183 142.899 60.6423 143.001 60.913 143.076C61.193 143.151 61.501 143.216 61.837 143.272C62.173 143.319 62.509 143.384 62.845 143.468C63.181 143.543 63.4843 143.65 63.755 143.79C64.035 143.93 64.259 144.126 64.427 144.378C64.6043 144.63 64.693 144.966 64.693 145.386C64.693 145.834 64.5623 146.221 64.301 146.548C64.0396 146.875 63.671 147.131 63.195 147.318C62.719 147.495 62.1496 147.584 61.487 147.584ZM69.4946 147.584C68.86 147.584 68.3 147.467 67.8146 147.234C67.3386 147.001 66.9653 146.646 66.6946 146.17C66.4333 145.685 66.3026 145.078 66.3026 144.35V140.08H67.6466V144.196C67.6466 144.924 67.8193 145.47 68.1646 145.834C68.5193 146.198 69.014 146.38 69.6486 146.38C70.1153 146.38 70.5213 146.287 70.8666 146.1C71.212 145.904 71.478 145.624 71.6646 145.26C71.8513 144.887 71.9446 144.439 71.9446 143.916V140.08H73.2886V147.5H72.0146V145.498L72.2246 146.03C71.982 146.525 71.618 146.907 71.1326 147.178C70.6473 147.449 70.1013 147.584 69.4946 147.584ZM75.8472 147.5V140.08H77.1352V142.096L77.0092 141.592C77.2146 141.079 77.5599 140.687 78.0452 140.416C78.5306 140.145 79.1279 140.01 79.8372 140.01V141.312C79.7812 141.303 79.7252 141.298 79.6692 141.298C79.6226 141.298 79.5759 141.298 79.5292 141.298C78.8106 141.298 78.2412 141.513 77.8212 141.942C77.4012 142.371 77.1912 142.992 77.1912 143.804V147.5H75.8472ZM84.7294 147.584C83.936 147.584 83.236 147.421 82.6294 147.094C82.032 146.767 81.5654 146.319 81.2294 145.75C80.9027 145.181 80.7394 144.527 80.7394 143.79C80.7394 143.053 80.898 142.399 81.2154 141.83C81.542 141.261 81.9854 140.817 82.5454 140.5C83.1147 140.173 83.754 140.01 84.4634 140.01C85.182 140.01 85.8167 140.169 86.3674 140.486C86.918 140.803 87.3474 141.251 87.6554 141.83C87.9727 142.399 88.1314 143.067 88.1314 143.832C88.1314 143.888 88.1267 143.953 88.1174 144.028C88.1174 144.103 88.1127 144.173 88.1034 144.238H81.7894V143.272H87.4034L86.8574 143.608C86.8667 143.132 86.7687 142.707 86.5634 142.334C86.358 141.961 86.0734 141.671 85.7094 141.466C85.3547 141.251 84.9394 141.144 84.4634 141.144C83.9967 141.144 83.5814 141.251 83.2174 141.466C82.8534 141.671 82.5687 141.965 82.3634 142.348C82.158 142.721 82.0554 143.151 82.0554 143.636V143.86C82.0554 144.355 82.1674 144.798 82.3914 145.19C82.6247 145.573 82.9467 145.871 83.3574 146.086C83.768 146.301 84.2394 146.408 84.7714 146.408C85.21 146.408 85.6067 146.333 85.9614 146.184C86.3254 146.035 86.6427 145.811 86.9134 145.512L87.6554 146.38C87.3194 146.772 86.8994 147.071 86.3954 147.276C85.9007 147.481 85.3454 147.584 84.7294 147.584ZM89.4656 149.572L90.1656 146.744L90.3476 147.556C90.077 147.556 89.8483 147.472 89.6616 147.304C89.4843 147.136 89.3956 146.907 89.3956 146.618C89.3956 146.338 89.4843 146.109 89.6616 145.932C89.8483 145.755 90.0723 145.666 90.3336 145.666C90.6043 145.666 90.8236 145.759 90.9916 145.946C91.1596 146.123 91.2436 146.347 91.2436 146.618C91.2436 146.711 91.2343 146.805 91.2156 146.898C91.2063 146.982 91.183 147.085 91.1456 147.206C91.1176 147.318 91.071 147.458 91.0056 147.626L90.3476 149.572H89.4656ZM97.2513 150.3C96.8966 150.3 96.5513 150.239 96.2153 150.118C95.8793 150.006 95.5899 149.838 95.3473 149.614L95.9213 148.606C96.1079 148.783 96.3133 148.919 96.5373 149.012C96.7613 149.105 96.9993 149.152 97.2513 149.152C97.5779 149.152 97.8486 149.068 98.0633 148.9C98.2779 148.732 98.4786 148.433 98.6653 148.004L99.1273 146.982L99.2673 146.814L102.179 140.08H103.495L99.8973 148.242C99.6826 148.765 99.4399 149.175 99.1693 149.474C98.9079 149.773 98.6186 149.983 98.3013 150.104C97.9839 150.235 97.6339 150.3 97.2513 150.3ZM99.0153 147.738L95.6273 140.08H97.0273L99.9113 146.688L99.0153 147.738ZM107.723 147.584C106.976 147.584 106.313 147.421 105.735 147.094C105.156 146.767 104.699 146.319 104.363 145.75C104.027 145.171 103.859 144.518 103.859 143.79C103.859 143.053 104.027 142.399 104.363 141.83C104.699 141.261 105.156 140.817 105.735 140.5C106.313 140.173 106.976 140.01 107.723 140.01C108.46 140.01 109.118 140.173 109.697 140.5C110.285 140.817 110.742 141.261 111.069 141.83C111.405 142.39 111.573 143.043 111.573 143.79C111.573 144.527 111.405 145.181 111.069 145.75C110.742 146.319 110.285 146.767 109.697 147.094C109.118 147.421 108.46 147.584 107.723 147.584ZM107.723 146.408C108.199 146.408 108.623 146.301 108.997 146.086C109.379 145.871 109.678 145.568 109.893 145.176C110.107 144.775 110.215 144.313 110.215 143.79C110.215 143.258 110.107 142.801 109.893 142.418C109.678 142.026 109.379 141.723 108.997 141.508C108.623 141.293 108.199 141.186 107.723 141.186C107.247 141.186 106.822 141.293 106.449 141.508C106.075 141.723 105.777 142.026 105.553 142.418C105.329 142.801 105.217 143.258 105.217 143.79C105.217 144.313 105.329 144.775 105.553 145.176C105.777 145.568 106.075 145.871 106.449 146.086C106.822 146.301 107.247 146.408 107.723 146.408ZM116.553 147.584C115.919 147.584 115.359 147.467 114.873 147.234C114.397 147.001 114.024 146.646 113.753 146.17C113.492 145.685 113.361 145.078 113.361 144.35V140.08H114.705V144.196C114.705 144.924 114.878 145.47 115.223 145.834C115.578 146.198 116.073 146.38 116.707 146.38C117.174 146.38 117.58 146.287 117.925 146.1C118.271 145.904 118.537 145.624 118.723 145.26C118.91 144.887 119.003 144.439 119.003 143.916V140.08H120.347V147.5H119.073V145.498L119.283 146.03C119.041 146.525 118.677 146.907 118.191 147.178C117.706 147.449 117.16 147.584 116.553 147.584ZM128.234 147.5L125.476 140.08H126.75L129.2 146.8H128.598L131.146 140.08H132.28L134.772 146.8H134.184L136.69 140.08H137.894L135.122 147.5H133.834L131.496 141.368H131.888L129.522 147.5H128.234ZM143.631 147.5V145.932L143.561 145.638V142.964C143.561 142.395 143.393 141.956 143.057 141.648C142.73 141.331 142.236 141.172 141.573 141.172C141.134 141.172 140.705 141.247 140.285 141.396C139.865 141.536 139.51 141.727 139.221 141.97L138.661 140.962C139.044 140.654 139.501 140.421 140.033 140.262C140.574 140.094 141.139 140.01 141.727 140.01C142.744 140.01 143.528 140.257 144.079 140.752C144.63 141.247 144.905 142.003 144.905 143.02V147.5H143.631ZM141.195 147.584C140.644 147.584 140.159 147.491 139.739 147.304C139.328 147.117 139.011 146.861 138.787 146.534C138.563 146.198 138.451 145.82 138.451 145.4C138.451 144.999 138.544 144.635 138.731 144.308C138.927 143.981 139.24 143.72 139.669 143.524C140.108 143.328 140.696 143.23 141.433 143.23H143.785V144.196H141.489C140.817 144.196 140.364 144.308 140.131 144.532C139.898 144.756 139.781 145.027 139.781 145.344C139.781 145.708 139.926 146.002 140.215 146.226C140.504 146.441 140.906 146.548 141.419 146.548C141.923 146.548 142.362 146.436 142.735 146.212C143.118 145.988 143.393 145.661 143.561 145.232L143.827 146.156C143.65 146.595 143.337 146.945 142.889 147.206C142.441 147.458 141.876 147.584 141.195 147.584ZM151.354 140.01C151.961 140.01 152.493 140.127 152.95 140.36C153.417 140.593 153.781 140.948 154.042 141.424C154.303 141.9 154.434 142.502 154.434 143.23V147.5H153.09V143.384C153.09 142.665 152.913 142.124 152.558 141.76C152.213 141.396 151.723 141.214 151.088 141.214C150.612 141.214 150.197 141.307 149.842 141.494C149.487 141.681 149.212 141.956 149.016 142.32C148.829 142.684 148.736 143.137 148.736 143.678V147.5H147.392V140.08H148.68V142.082L148.47 141.55C148.713 141.065 149.086 140.687 149.59 140.416C150.094 140.145 150.682 140.01 151.354 140.01ZM159.469 147.584C158.723 147.584 158.144 147.383 157.733 146.982C157.323 146.581 157.117 146.007 157.117 145.26V138.456H158.461V145.204C158.461 145.605 158.559 145.913 158.755 146.128C158.961 146.343 159.25 146.45 159.623 146.45C160.043 146.45 160.393 146.333 160.673 146.1L161.093 147.066C160.888 147.243 160.641 147.374 160.351 147.458C160.071 147.542 159.777 147.584 159.469 147.584ZM155.857 141.186V140.08H160.589V141.186H155.857ZM169.026 147.584C168.279 147.584 167.701 147.383 167.29 146.982C166.879 146.581 166.674 146.007 166.674 145.26V138.456H168.018V145.204C168.018 145.605 168.116 145.913 168.312 146.128C168.517 146.343 168.807 146.45 169.18 146.45C169.6 146.45 169.95 146.333 170.23 146.1L170.65 147.066C170.445 147.243 170.197 147.374 169.908 147.458C169.628 147.542 169.334 147.584 169.026 147.584ZM165.414 141.186V140.08H170.146V141.186H165.414ZM175.207 147.584C174.46 147.584 173.798 147.421 173.219 147.094C172.64 146.767 172.183 146.319 171.847 145.75C171.511 145.171 171.343 144.518 171.343 143.79C171.343 143.053 171.511 142.399 171.847 141.83C172.183 141.261 172.64 140.817 173.219 140.5C173.798 140.173 174.46 140.01 175.207 140.01C175.944 140.01 176.602 140.173 177.181 140.5C177.769 140.817 178.226 141.261 178.553 141.83C178.889 142.39 179.057 143.043 179.057 143.79C179.057 144.527 178.889 145.181 178.553 145.75C178.226 146.319 177.769 146.767 177.181 147.094C176.602 147.421 175.944 147.584 175.207 147.584ZM175.207 146.408C175.683 146.408 176.108 146.301 176.481 146.086C176.864 145.871 177.162 145.568 177.377 145.176C177.592 144.775 177.699 144.313 177.699 143.79C177.699 143.258 177.592 142.801 177.377 142.418C177.162 142.026 176.864 141.723 176.481 141.508C176.108 141.293 175.683 141.186 175.207 141.186C174.731 141.186 174.306 141.293 173.933 141.508C173.56 141.723 173.261 142.026 173.037 142.418C172.813 142.801 172.701 143.258 172.701 143.79C172.701 144.313 172.813 144.775 173.037 145.176C173.261 145.568 173.56 145.871 173.933 146.086C174.306 146.301 174.731 146.408 175.207 146.408ZM184.675 147.5V137.112H186.019V147.5H184.675ZM191.764 147.584C191.017 147.584 190.354 147.421 189.776 147.094C189.197 146.767 188.74 146.319 188.404 145.75C188.068 145.171 187.9 144.518 187.9 143.79C187.9 143.053 188.068 142.399 188.404 141.83C188.74 141.261 189.197 140.817 189.776 140.5C190.354 140.173 191.017 140.01 191.764 140.01C192.501 140.01 193.159 140.173 193.738 140.5C194.326 140.817 194.783 141.261 195.11 141.83C195.446 142.39 195.614 143.043 195.614 143.79C195.614 144.527 195.446 145.181 195.11 145.75C194.783 146.319 194.326 146.767 193.738 147.094C193.159 147.421 192.501 147.584 191.764 147.584ZM191.764 146.408C192.24 146.408 192.664 146.301 193.038 146.086C193.42 145.871 193.719 145.568 193.934 145.176C194.148 144.775 194.256 144.313 194.256 143.79C194.256 143.258 194.148 142.801 193.934 142.418C193.719 142.026 193.42 141.723 193.038 141.508C192.664 141.293 192.24 141.186 191.764 141.186C191.288 141.186 190.863 141.293 190.49 141.508C190.116 141.723 189.818 142.026 189.594 142.418C189.37 142.801 189.258 143.258 189.258 143.79C189.258 144.313 189.37 144.775 189.594 145.176C189.818 145.568 190.116 145.871 190.49 146.086C190.863 146.301 191.288 146.408 191.764 146.408ZM200.72 150.3C200.039 150.3 199.376 150.202 198.732 150.006C198.098 149.819 197.58 149.549 197.178 149.194L197.822 148.158C198.168 148.457 198.592 148.69 199.096 148.858C199.6 149.035 200.128 149.124 200.678 149.124C201.556 149.124 202.2 148.919 202.61 148.508C203.021 148.097 203.226 147.472 203.226 146.632V145.064L203.366 143.594L203.296 142.11V140.08H204.57V146.492C204.57 147.799 204.244 148.76 203.59 149.376C202.937 149.992 201.98 150.3 200.72 150.3ZM200.552 147.192C199.834 147.192 199.19 147.043 198.62 146.744C198.06 146.436 197.612 146.011 197.276 145.47C196.95 144.929 196.786 144.303 196.786 143.594C196.786 142.875 196.95 142.25 197.276 141.718C197.612 141.177 198.06 140.757 198.62 140.458C199.19 140.159 199.834 140.01 200.552 140.01C201.187 140.01 201.766 140.141 202.288 140.402C202.811 140.654 203.226 141.046 203.534 141.578C203.852 142.11 204.01 142.782 204.01 143.594C204.01 144.397 203.852 145.064 203.534 145.596C203.226 146.128 202.811 146.529 202.288 146.8C201.766 147.061 201.187 147.192 200.552 147.192ZM200.706 146.016C201.201 146.016 201.64 145.913 202.022 145.708C202.405 145.503 202.704 145.218 202.918 144.854C203.142 144.49 203.254 144.07 203.254 143.594C203.254 143.118 203.142 142.698 202.918 142.334C202.704 141.97 202.405 141.69 202.022 141.494C201.64 141.289 201.201 141.186 200.706 141.186C200.212 141.186 199.768 141.289 199.376 141.494C198.994 141.69 198.69 141.97 198.466 142.334C198.252 142.698 198.144 143.118 198.144 143.594C198.144 144.07 198.252 144.49 198.466 144.854C198.69 145.218 198.994 145.503 199.376 145.708C199.768 145.913 200.212 146.016 200.706 146.016ZM210.316 147.584C209.57 147.584 208.907 147.421 208.328 147.094C207.75 146.767 207.292 146.319 206.956 145.75C206.62 145.171 206.452 144.518 206.452 143.79C206.452 143.053 206.62 142.399 206.956 141.83C207.292 141.261 207.75 140.817 208.328 140.5C208.907 140.173 209.57 140.01 210.316 140.01C211.054 140.01 211.712 140.173 212.29 140.5C212.878 140.817 213.336 141.261 213.662 141.83C213.998 142.39 214.166 143.043 214.166 143.79C214.166 144.527 213.998 145.181 213.662 145.75C213.336 146.319 212.878 146.767 212.29 147.094C211.712 147.421 211.054 147.584 210.316 147.584ZM210.316 146.408C210.792 146.408 211.217 146.301 211.59 146.086C211.973 145.871 212.272 145.568 212.486 145.176C212.701 144.775 212.808 144.313 212.808 143.79C212.808 143.258 212.701 142.801 212.486 142.418C212.272 142.026 211.973 141.723 211.59 141.508C211.217 141.293 210.792 141.186 210.316 141.186C209.84 141.186 209.416 141.293 209.042 141.508C208.669 141.723 208.37 142.026 208.146 142.418C207.922 142.801 207.81 143.258 207.81 143.79C207.81 144.313 207.922 144.775 208.146 145.176C208.37 145.568 208.669 145.871 209.042 146.086C209.416 146.301 209.84 146.408 210.316 146.408ZM219.147 147.584C218.512 147.584 217.952 147.467 217.467 147.234C216.991 147.001 216.618 146.646 216.347 146.17C216.086 145.685 215.955 145.078 215.955 144.35V140.08H217.299V144.196C217.299 144.924 217.472 145.47 217.817 145.834C218.172 146.198 218.666 146.38 219.301 146.38C219.768 146.38 220.174 146.287 220.519 146.1C220.864 145.904 221.13 145.624 221.317 145.26C221.504 144.887 221.597 144.439 221.597 143.916V140.08H222.941V147.5H221.667V145.498L221.877 146.03C221.634 146.525 221.27 146.907 220.785 147.178C220.3 147.449 219.754 147.584 219.147 147.584ZM228.048 147.584C227.301 147.584 226.722 147.383 226.312 146.982C225.901 146.581 225.696 146.007 225.696 145.26V138.456H227.04V145.204C227.04 145.605 227.138 145.913 227.334 146.128C227.539 146.343 227.828 146.45 228.202 146.45C228.622 146.45 228.972 146.333 229.252 146.1L229.672 147.066C229.466 147.243 229.219 147.374 228.93 147.458C228.65 147.542 228.356 147.584 228.048 147.584ZM224.436 141.186V140.08H229.168V141.186H224.436ZM232.982 144.406C232.982 144.042 233.043 143.725 233.164 143.454C233.285 143.183 233.435 142.941 233.612 142.726C233.799 142.511 233.999 142.315 234.214 142.138C234.429 141.951 234.629 141.769 234.816 141.592C235.003 141.405 235.152 141.209 235.264 141.004C235.385 140.799 235.446 140.561 235.446 140.29C235.446 139.842 235.269 139.478 234.914 139.198C234.559 138.918 234.069 138.778 233.444 138.778C232.884 138.778 232.399 138.871 231.988 139.058C231.577 139.245 231.227 139.52 230.938 139.884L229.916 139.156C230.308 138.661 230.807 138.279 231.414 138.008C232.021 137.728 232.73 137.588 233.542 137.588C234.214 137.588 234.797 137.691 235.292 137.896C235.787 138.092 236.169 138.377 236.44 138.75C236.72 139.114 236.86 139.557 236.86 140.08C236.86 140.472 236.799 140.808 236.678 141.088C236.557 141.368 236.403 141.615 236.216 141.83C236.029 142.045 235.829 142.245 235.614 142.432C235.409 142.619 235.213 142.805 235.026 142.992C234.839 143.179 234.685 143.384 234.564 143.608C234.443 143.832 234.382 144.098 234.382 144.406H232.982ZM233.696 147.584C233.435 147.584 233.215 147.495 233.038 147.318C232.87 147.141 232.786 146.931 232.786 146.688C232.786 146.427 232.87 146.212 233.038 146.044C233.215 145.876 233.435 145.792 233.696 145.792C233.957 145.792 234.172 145.876 234.34 146.044C234.508 146.212 234.592 146.427 234.592 146.688C234.592 146.931 234.508 147.141 234.34 147.318C234.172 147.495 233.957 147.584 233.696 147.584Z" fill="#313131"/>
<defs>
<clipPath id="clip0_1026_5867">
<rect width="100" height="117" fill="white" transform="translate(69 0.5)"/>
</clipPath>
</defs>
</svg>
