<svg width="360" height="800" viewBox="0 0 360 800" fill="none" xmlns="http://www.w3.org/2000/svg">
<path d="M58.5 567C58.5 578.3 48.8963 587.5 37 587.5C25.1037 587.5 15.5 578.3 15.5 567C15.5 555.7 25.1037 546.5 37 546.5C48.8963 546.5 58.5 555.7 58.5 567Z" stroke="#FFEEE3"/>
<path d="M293.5 525C293.5 536.3 283.896 545.5 272 545.5C260.104 545.5 250.5 536.3 250.5 525C250.5 513.7 260.104 504.5 272 504.5C283.896 504.5 293.5 513.7 293.5 525Z" stroke="#FFEEE3"/>
<path d="M258.5 635C258.5 646.3 248.896 655.5 237 655.5C225.104 655.5 215.5 646.3 215.5 635C215.5 623.7 225.104 614.5 237 614.5C248.896 614.5 258.5 623.7 258.5 635Z" stroke="#FFEEE3"/>
<path d="M385.5 312C385.5 323.3 375.896 332.5 364 332.5C352.104 332.5 342.5 323.3 342.5 312C342.5 300.7 352.104 291.5 364 291.5C375.896 291.5 385.5 300.7 385.5 312Z" stroke="#FFEEE3"/>
<path d="M21.5 707C21.5 718.3 11.8963 727.5 -3.05176e-05 727.5C-11.8963 727.5 -21.5 718.3 -21.5 707C-21.5 695.7 -11.8963 686.5 -3.05176e-05 686.5C11.8963 686.5 21.5 695.7 21.5 707Z" stroke="#FFEEE3"/>
<path d="M147 663.618L149.219 670.446L149.331 670.792H149.694H156.874L151.065 675.012L150.771 675.225L150.884 675.571L153.102 682.399L147.294 678.179L147 677.966L146.706 678.179L140.898 682.399L143.116 675.571L143.228 675.225L142.935 675.012L137.126 670.792H144.306H144.669L144.781 670.446L147 663.618Z" stroke="#FFEEE3"/>
<path d="M119 492.618L122.117 502.21L122.229 502.556H122.592H132.678L124.518 508.484L124.225 508.698L124.337 509.043L127.454 518.635L119.294 512.707L119 512.493L118.706 512.707L110.546 518.635L113.663 509.043L113.775 508.698L113.482 508.484L105.322 502.556H115.408H115.771L115.883 502.21L119 492.618Z" stroke="#FFEEE3"/>
<path d="M356 202.618L359.117 212.21L359.229 212.556H359.592H369.678L361.518 218.484L361.225 218.698L361.337 219.043L364.454 228.635L356.294 222.707L356 222.493L355.706 222.707L347.546 228.635L350.663 219.043L350.775 218.698L350.482 218.484L342.322 212.556H352.408H352.771L352.883 212.21L356 202.618Z" stroke="#FFEEE3"/>
<path d="M204 83.618L207.117 93.2102L207.229 93.5557H207.592H217.678L209.518 99.484L209.225 99.6976L209.337 100.043L212.454 109.635L204.294 103.707L204 103.493L203.706 103.707L195.546 109.635L198.663 100.043L198.775 99.6976L198.482 99.484L190.322 93.5557H200.408H200.771L200.883 93.2102L204 83.618Z" stroke="#FFEEE3"/>
<path d="M115 199.618L118.117 209.21L118.229 209.556H118.592H128.678L120.518 215.484L120.225 215.698L120.337 216.043L123.453 225.635L115.294 219.707L115 219.493L114.706 219.707L106.546 225.635L109.663 216.043L109.775 215.698L109.482 215.484L101.322 209.556H111.408H111.771L111.883 209.21L115 199.618Z" stroke="#FFEEE3"/>
<path d="M383.5 99C383.5 110.3 373.896 119.5 362 119.5C350.104 119.5 340.5 110.3 340.5 99C340.5 87.6998 350.104 78.5 362 78.5C373.896 78.5 383.5 87.6998 383.5 99Z" stroke="#FFEEE3"/>
<path d="M63.5669 60.7572C63.5669 60.7572 -2.39641 168.311 25.1041 230.446C51.5259 290.144 168.192 316.882 168.192 316.882C168.192 316.882 -39.4703 506.068 203.067 402.257C445.604 298.446 237.942 487.632 237.942 487.632C237.942 487.632 20.0298 658.382 272.817 573.007C525.604 487.632 307.692 658.382 307.692 658.382C307.692 658.382 541.141 794.634 367.104 831.446" stroke="#FFEEE3"/>
<path d="M74.5669 56.7572C74.5669 56.7572 8.60359 164.311 36.1041 226.446C62.5259 286.144 179.192 312.882 179.192 312.882C179.192 312.882 -28.4703 502.068 214.067 398.257C456.604 294.446 248.942 483.632 248.942 483.632C248.942 483.632 31.0298 654.382 283.817 569.007C536.604 483.632 318.692 654.382 318.692 654.382C318.692 654.382 552.141 790.634 378.104 827.446" stroke="#FFEEE3"/>
<path d="M84.5669 48.7572C84.5669 48.7572 18.6036 156.311 46.1041 218.446C72.5259 278.144 189.192 304.882 189.192 304.882C189.192 304.882 -18.4703 494.068 224.067 390.257C466.604 286.446 258.942 475.632 258.942 475.632C258.942 475.632 41.0298 646.382 293.817 561.007C546.604 475.632 328.692 646.382 328.692 646.382C328.692 646.382 562.141 782.634 388.104 819.446" stroke="#FFEEE3"/>
<path d="M97.5669 44.7572C97.5669 44.7572 31.6036 152.311 59.1041 214.446C85.5259 274.144 202.192 300.882 202.192 300.882C202.192 300.882 -5.47028 490.068 237.067 386.257C479.604 282.446 271.942 471.632 271.942 471.632C271.942 471.632 54.0298 642.382 306.817 557.007C559.604 471.632 341.692 642.382 341.692 642.382C341.692 642.382 575.141 778.634 401.104 815.446" stroke="#FFEEE3"/>
<path d="M109.567 40.7572C109.567 40.7572 43.6036 148.311 71.1041 210.446C97.5259 270.144 214.192 296.882 214.192 296.882C214.192 296.882 6.52972 486.068 249.067 382.257C491.604 278.446 283.942 467.632 283.942 467.632C283.942 467.632 66.0298 638.382 318.817 553.007C571.604 467.632 353.692 638.382 353.692 638.382C353.692 638.382 587.141 774.634 413.104 811.446" stroke="#FFEEE3"/>
<path d="M33.5669 72.7572C33.5669 72.7572 -32.3964 180.311 -4.8959 242.446C21.5259 302.144 138.192 328.882 138.192 328.882C138.192 328.882 -69.4703 518.068 173.067 414.257C415.604 310.446 207.942 499.632 207.942 499.632C207.942 499.632 -9.97022 670.382 242.817 585.007C495.604 499.632 277.692 670.382 277.692 670.382C277.692 670.382 511.141 806.634 337.104 843.446" stroke="#FFEEE3"/>
<path d="M49.5669 66.7572C49.5669 66.7572 -16.3964 174.311 11.1041 236.446C37.5259 296.144 154.192 322.882 154.192 322.882C154.192 322.882 -53.4703 512.068 189.067 408.257C431.604 304.446 223.942 493.632 223.942 493.632C223.942 493.632 6.02978 664.382 258.817 579.007C511.604 493.632 293.692 664.382 293.692 664.382C293.692 664.382 527.141 800.634 353.104 837.446" stroke="#FFEEE3"/>
<path d="M23.5669 74.7572C23.5669 74.7572 -42.3964 182.311 -14.8959 244.446C11.5259 304.144 128.192 330.882 128.192 330.882C128.192 330.882 -79.4703 520.068 163.067 416.257C405.604 312.446 197.942 501.632 197.942 501.632C197.942 501.632 -19.9702 672.382 232.817 587.007C485.604 501.632 267.692 672.382 267.692 672.382C267.692 672.382 501.141 808.634 327.104 845.446" stroke="#FFEEE3"/>
<path d="M15.5669 81.7572C15.5669 81.7572 -50.3964 189.311 -22.8959 251.446C3.52593 311.144 120.192 337.882 120.192 337.882C120.192 337.882 -87.4703 527.068 155.067 423.257C397.604 319.446 189.942 508.632 189.942 508.632C189.942 508.632 -27.9702 679.382 224.817 594.007C477.604 508.632 259.692 679.382 259.692 679.382C259.692 679.382 493.141 815.634 319.104 852.446" stroke="#FFEEE3"/>
<path d="M7.56688 86.7572C7.56688 86.7572 -58.3964 194.311 -30.8959 256.446C-4.47407 316.144 112.192 342.882 112.192 342.882C112.192 342.882 -95.4703 532.068 147.067 428.257C389.604 324.446 181.942 513.632 181.942 513.632C181.942 513.632 -35.9702 684.382 216.817 599.007C469.604 513.632 251.692 684.382 251.692 684.382C251.692 684.382 485.141 820.634 311.104 857.446" stroke="#FFEEE3"/>
</svg>
