<svg width="200" height="128" viewBox="0 0 200 128" fill="none" xmlns="http://www.w3.org/2000/svg">
<g clip-path="url(#clip0_72_2062)">
<path d="M145.558 9.72434H14.3476C14.2143 9.7215 14.0875 9.66658 13.9943 9.57135C13.9011 9.47612 13.8488 9.34816 13.8488 9.21489C13.8488 9.08163 13.9011 8.95367 13.9943 8.85843C14.0875 8.7632 14.2143 8.70828 14.3476 8.70544H145.558C145.691 8.70828 145.818 8.7632 145.911 8.85843C146.004 8.95367 146.057 9.08163 146.057 9.21489C146.057 9.34816 146.004 9.47612 145.911 9.57135C145.818 9.66658 145.691 9.7215 145.558 9.72434Z" fill="#CACACA"/>
<path d="M23.0681 6.10432C24.717 6.10432 26.0537 4.73782 26.0537 3.05216C26.0537 1.3665 24.717 0 23.0681 0C21.4191 0 20.0824 1.3665 20.0824 3.05216C20.0824 4.73782 21.4191 6.10432 23.0681 6.10432Z" fill="#3F3D56"/>
<path d="M33.382 6.10432C35.0309 6.10432 36.3676 4.73782 36.3676 3.05216C36.3676 1.3665 35.0309 0 33.382 0C31.7331 0 30.3964 1.3665 30.3964 3.05216C30.3964 4.73782 31.7331 6.10432 33.382 6.10432Z" fill="#3F3D56"/>
<path d="M43.696 6.10432C45.3449 6.10432 46.6816 4.73782 46.6816 3.05216C46.6816 1.3665 45.3449 0 43.696 0C42.0471 0 40.7104 1.3665 40.7104 3.05216C40.7104 4.73782 42.0471 6.10432 43.696 6.10432Z" fill="#3F3D56"/>
<path d="M139.348 0.756531H132.021C131.876 0.759422 131.738 0.819143 131.636 0.922864C131.535 1.02658 131.478 1.16604 131.478 1.31128C131.478 1.45653 131.535 1.59598 131.636 1.6997C131.738 1.80342 131.876 1.86314 132.021 1.86603H139.348C139.493 1.86314 139.631 1.80342 139.733 1.6997C139.835 1.59598 139.892 1.45653 139.892 1.31128C139.892 1.16604 139.835 1.02658 139.733 0.922864C139.631 0.819143 139.493 0.759422 139.348 0.756531Z" fill="#3F3D56"/>
<path d="M139.348 2.83887H132.021C131.876 2.84176 131.738 2.90148 131.636 3.0052C131.535 3.10892 131.478 3.24837 131.478 3.39362C131.478 3.53886 131.535 3.67832 131.636 3.78204C131.738 3.88576 131.876 3.94547 132.021 3.94837H139.348C139.493 3.94547 139.631 3.88576 139.733 3.78204C139.835 3.67832 139.892 3.53886 139.892 3.39362C139.892 3.24837 139.835 3.10892 139.733 3.0052C139.631 2.90148 139.493 2.84176 139.348 2.83887Z" fill="#3F3D56"/>
<path d="M139.348 4.91846H132.021C131.876 4.92135 131.738 4.98106 131.636 5.08479C131.535 5.18851 131.478 5.32796 131.478 5.4732C131.478 5.61845 131.535 5.7579 131.636 5.86162C131.738 5.96534 131.876 6.02506 132.021 6.02796H139.348C139.493 6.02506 139.631 5.96534 139.733 5.86162C139.835 5.7579 139.892 5.61845 139.892 5.4732C139.892 5.32796 139.835 5.18851 139.733 5.08479C139.631 4.98106 139.493 4.92135 139.348 4.91846Z" fill="#3F3D56"/>
<path d="M50.4302 102.135L50.61 37.2982C50.6151 35.9859 51.1405 34.7293 52.071 33.8039C53.0015 32.8786 54.2611 32.3601 55.5734 32.3623L104.539 32.498C105.851 32.5031 107.108 33.0286 108.034 33.9591C108.959 34.8896 109.477 36.1491 109.475 37.4614L109.295 102.298C109.29 103.61 108.765 104.867 107.834 105.792C106.904 106.717 105.644 107.236 104.332 107.234L55.3662 107.098C54.0539 107.093 52.7972 106.567 51.8719 105.637C50.9465 104.706 50.4281 103.447 50.4302 102.135Z" fill="#E6E6E6"/>
<path d="M54.2405 82.5617L54.3561 40.879C54.3608 39.65 54.8529 38.4731 55.7244 37.6065C56.5958 36.7399 57.7754 36.2543 59.0044 36.2564L101.086 36.373C102.315 36.3778 103.492 36.8699 104.359 37.7413C105.226 38.6128 105.711 39.7924 105.709 41.0214L105.549 98.7169C105.545 99.946 105.052 101.123 104.181 101.99C103.309 102.856 102.13 103.342 100.901 103.34L74.8319 103.267C69.3574 103.246 64.115 101.054 60.2547 97.1723C56.3944 93.2906 54.2315 88.0362 54.2405 82.5617Z" fill="white"/>
<path d="M96.3593 68.7955H63.5461C63.024 68.7955 62.5232 68.5881 62.154 68.2188C61.7847 67.8496 61.5773 67.3489 61.5773 66.8267C61.5773 66.3045 61.7847 65.8038 62.154 65.4346C62.5232 65.0653 63.024 64.8579 63.5461 64.8579H96.3593C96.8814 64.8579 97.3822 65.0653 97.7514 65.4346C98.1206 65.8038 98.3281 66.3045 98.3281 66.8267C98.3281 67.3489 98.1206 67.8496 97.7514 68.2188C97.3822 68.5881 96.8814 68.7955 96.3593 68.7955Z" fill="#FC5D00"/>
<path d="M70.765 57.9985H63.5461C63.024 57.9985 62.5232 57.7911 62.154 57.4218C61.7847 57.0526 61.5773 56.5519 61.5773 56.0297C61.5773 55.5076 61.7847 55.0068 62.154 54.6376C62.5232 54.2683 63.024 54.0609 63.5461 54.0609H70.765C71.2872 54.0609 71.7879 54.2683 72.1572 54.6376C72.5264 55.0068 72.7338 55.5076 72.7338 56.0297C72.7338 56.5519 72.5264 57.0526 72.1572 57.4218C71.7879 57.7911 71.2872 57.9985 70.765 57.9985Z" fill="#FC5D00"/>
<path d="M96.3593 86.1061H63.5461C63.024 86.1061 62.5232 85.8987 62.154 85.5295C61.7847 85.1602 61.5773 84.6595 61.5773 84.1373C61.5773 83.6152 61.7847 83.1144 62.154 82.7452C62.5232 82.376 63.024 82.1685 63.5461 82.1685H96.3593C96.8814 82.1685 97.3822 82.376 97.7514 82.7452C98.1206 83.1144 98.3281 83.6152 98.3281 84.1373C98.3281 84.6595 98.1206 85.1602 97.7514 85.5295C97.3822 85.8987 96.8814 86.1061 96.3593 86.1061Z" fill="#FC5D00"/>
<path d="M96.3593 77.4508H63.5461C63.024 77.4508 62.5232 77.2434 62.154 76.8742C61.7847 76.505 61.5773 76.0042 61.5773 75.482C61.5773 74.9599 61.7847 74.4591 62.154 74.0899C62.5232 73.7207 63.024 73.5132 63.5461 73.5132H96.3593C96.8814 73.5132 97.3822 73.7207 97.7514 74.0899C98.1206 74.4591 98.3281 74.9599 98.3281 75.482C98.3281 76.0042 98.1206 76.505 97.7514 76.8742C97.3822 77.2434 96.8814 77.4508 96.3593 77.4508Z" fill="#FC5D00"/>
<path d="M7.83382 127.959C12.1603 127.959 15.6676 124.451 15.6676 120.125C15.6676 115.798 12.1603 112.291 7.83382 112.291C3.50732 112.291 0 115.798 0 120.125C0 124.451 3.50732 127.959 7.83382 127.959Z" fill="#FC5D00"/>
<path d="M6.76514 124.202C6.62986 124.202 6.49644 124.17 6.37545 124.11C6.25446 124.049 6.14923 123.961 6.06808 123.853L3.9309 121.004C3.86209 120.912 3.812 120.808 3.78349 120.697C3.75497 120.586 3.7486 120.471 3.76473 120.357C3.78087 120.244 3.81919 120.135 3.87751 120.036C3.93583 119.938 4.01301 119.852 4.10462 119.783C4.19623 119.714 4.30049 119.664 4.41143 119.636C4.52237 119.607 4.63783 119.601 4.75118 119.617C4.86454 119.634 4.97357 119.672 5.07206 119.731C5.17054 119.789 5.25654 119.866 5.32515 119.958L6.72337 121.822L10.3145 116.435C10.4428 116.243 10.6421 116.11 10.8686 116.065C11.0951 116.02 11.3303 116.066 11.5225 116.194C11.7147 116.323 11.8482 116.522 11.8936 116.748C11.939 116.975 11.8926 117.21 11.7646 117.402L7.49026 123.814C7.41294 123.93 7.30894 124.025 7.18699 124.093C7.06504 124.16 6.9287 124.198 6.78938 124.202C6.7813 124.202 6.77321 124.202 6.76514 124.202Z" fill="white"/>
<path d="M7.90368 102.959H7.33969V104.651H7.90368V102.959Z" fill="#2F2E41"/>
<path d="M7.90368 99.7287H7.33969V96.4982H7.90368V99.7287ZM7.90368 93.2673H7.33969V90.0368H7.90368V93.2673ZM7.90368 86.8062H7.33969V83.5754H7.90368V86.8062ZM7.90368 80.3449H7.33969V77.1143H7.90368V80.3449ZM7.90368 73.8835H7.33969V70.653H7.90368V73.8835Z" fill="#2F2E41"/>
<path d="M7.90374 67.4225H7.33975V65.4485H9.31372V66.0125H7.90374V67.4225Z" fill="#2F2E41"/>
<path d="M35.9346 66.0124H32.607V65.4484H35.9346V66.0124ZM29.2794 66.0124H25.9518V65.4484H29.2794V66.0124ZM22.6241 66.0124H19.2965V65.4484H22.6241V66.0124ZM15.9689 66.0124H12.6413V65.4484H15.9689V66.0124Z" fill="#2F2E41"/>
<path d="M40.9544 65.4484H39.2624V66.0124H40.9544V65.4484Z" fill="#2F2E41"/>
<path d="M189.315 85.9413H188.751V87.6333H189.315V85.9413Z" fill="#2F2E41"/>
<path d="M189.315 82.2376H188.751V78.5339H189.315V82.2376ZM189.315 74.83H188.751V71.1263H189.315V74.83Z" fill="#2F2E41"/>
<path d="M189.314 67.4225H188.75V66.0125H187.341V65.4485H189.314V67.4225Z" fill="#2F2E41"/>
<path d="M183.835 66.0124H180.329V65.4484H183.835V66.0124ZM176.823 66.0124H173.318V65.4484H176.823V66.0124ZM169.812 66.0124H166.306V65.4484H169.812V66.0124ZM162.801 66.0124H159.295V65.4484H162.801V66.0124ZM155.789 66.0124H152.284V65.4484H155.789L155.789 66.0124ZM148.778 66.0124H145.272V65.4484H148.778V66.0124ZM141.767 66.0124H138.261V65.4484H141.767V66.0124ZM134.755 66.0124H131.249V65.4484H134.755V66.0124ZM127.744 66.0124H124.238V65.4484H127.744V66.0124Z" fill="#2F2E41"/>
<path d="M120.732 65.4484H119.041V66.0124H120.732V65.4484Z" fill="#2F2E41"/>
<path d="M189.21 108.219C193.536 108.219 197.044 104.712 197.044 100.385C197.044 96.0586 193.536 92.5513 189.21 92.5513C184.883 92.5513 181.376 96.0586 181.376 100.385C181.376 104.712 184.883 108.219 189.21 108.219Z" fill="#FC5D00"/>
<path d="M190.751 100.385L192.292 98.844C192.496 98.6395 192.61 98.3625 192.609 98.0739C192.609 97.7853 192.494 97.5086 192.29 97.3045C192.086 97.1004 191.81 96.9857 191.521 96.9854C191.232 96.985 190.955 97.0992 190.751 97.3029L189.21 98.8439L187.669 97.3029C187.464 97.0992 187.187 96.985 186.899 96.9854C186.61 96.9857 186.333 97.1004 186.129 97.3045C185.925 97.5086 185.81 97.7853 185.81 98.0739C185.81 98.3625 185.924 98.6395 186.128 98.844L187.669 100.385L186.128 101.926C186.026 102.027 185.945 102.147 185.89 102.28C185.835 102.412 185.806 102.554 185.806 102.697C185.806 102.841 185.834 102.983 185.888 103.115C185.943 103.248 186.024 103.368 186.125 103.47C186.226 103.571 186.347 103.652 186.479 103.706C186.612 103.761 186.754 103.789 186.897 103.789C187.041 103.789 187.183 103.76 187.315 103.705C187.447 103.65 187.568 103.569 187.669 103.467L189.21 101.926L190.751 103.467C190.852 103.569 190.972 103.65 191.104 103.705C191.237 103.76 191.379 103.789 191.522 103.789C191.666 103.789 191.808 103.761 191.94 103.706C192.073 103.652 192.193 103.571 192.295 103.47C192.396 103.368 192.476 103.248 192.531 103.115C192.586 102.983 192.614 102.841 192.614 102.697C192.613 102.554 192.585 102.412 192.53 102.28C192.474 102.147 192.394 102.027 192.292 101.926L190.751 100.385Z" fill="white"/>
<path d="M167.23 53.5119L168.922 63.5549L184.996 54.9219L167.23 53.5119Z" fill="#2F2E41"/>
<path d="M165.31 115.957L161.942 115.82L160.87 102.767L165.84 102.97L165.31 115.957Z" fill="#FFB6B6"/>
<path d="M165.538 78.6094C171.646 76.7472 172.9 68.7856 176.254 67.0476C176.245 62.8427 176.415 49.8031 172.217 50.0513C169.879 50.1896 156.855 74.0295 156.297 77.9792C155.261 85.3071 160.791 104.01 160.15 105.295L166.572 105.701L166.609 105.196C166.711 103.825 167.735 99.6904 166.567 98.9647L166.125 98.6897C166.128 97.2641 166.44 94.8355 165.154 94.2198C165.137 94.212 165.123 94.2008 165.111 94.187C165.099 94.1733 165.091 94.1572 165.086 94.1398C165.08 94.1224 165.079 94.1041 165.081 94.0862C165.084 94.0682 165.09 94.0509 165.099 94.0355L165.538 78.6094Z" fill="#2F2E41"/>
<path d="M167.045 118.878L164.793 119.011L164.266 116.909L163.362 119.095L157.389 119.447C157.103 119.464 156.819 119.389 156.578 119.233C156.338 119.077 156.153 118.848 156.052 118.58C155.951 118.312 155.938 118.018 156.015 117.742C156.093 117.466 156.256 117.222 156.482 117.045L161.057 113.47L160.931 111.321L165.965 111.324L167.045 118.878Z" fill="#2F2E41"/>
<path d="M190.975 92.4323L194.334 92.7044L196.982 79.8782L192.025 79.4763L190.975 92.4323Z" fill="#FFB6B6"/>
<path d="M189.658 59.9263C186.646 65.2204 181.256 66.4844 175.668 67.4106C173.238 63.9789 169.534 59.1945 173.099 56.9642C175.084 55.7222 192.293 45.6747 194.95 48.6503C201.886 56.4189 196.937 81.418 197.364 80.8654L191.87 80.7855L191.546 80.3953C191.116 79.876 190.836 79.2488 190.736 78.5815C190.637 77.9143 190.722 77.2326 190.983 76.6104L191.184 76.1299C190.778 75.5618 190.541 74.8901 190.501 74.1927C190.461 73.4954 190.619 72.801 190.958 72.1901L191.027 72.0645L189.658 59.9263Z" fill="#2F2E41"/>
<path d="M190.887 87.7542L195.884 88.3612L195.498 90.4792L199.605 94.5828C199.808 94.7854 199.941 95.0476 199.985 95.3311C200.028 95.6146 199.979 95.9045 199.846 96.1585C199.713 96.4125 199.502 96.6173 199.245 96.743C198.987 96.8687 198.696 96.9087 198.414 96.8572L192.528 95.7832L191.896 93.5031L191.118 95.5259L188.899 95.1209L190.887 87.7542Z" fill="#2F2E41"/>
<path d="M177.83 17.6985H175.524C175.053 17.6985 174.59 17.8126 174.172 18.0312C173.755 18.2497 173.397 18.5661 173.129 18.9532L171.46 21.3644L167.301 22.1209C165.856 23.0132 164.767 24.3813 164.223 25.9898C163.678 27.5982 163.711 29.3462 164.317 30.9327C167.26 38.6306 168.681 53.0589 165.82 59.4337C165.82 59.4337 183.175 61.0058 187.534 55.7678C191.893 50.5298 188.38 25.0304 188.38 25.0304L181.894 21.3644L180.225 18.9533C179.957 18.5661 179.599 18.2497 179.182 18.0312C178.764 17.8126 178.301 17.6985 177.83 17.6985Z" fill="#FC5D00"/>
<path d="M188.585 62.7537C188.78 62.5481 188.928 62.3023 189.018 62.0335C189.108 61.7647 189.138 61.4795 189.105 61.1979C189.073 60.9164 188.979 60.6453 188.831 60.4039C188.683 60.1624 188.483 59.9565 188.246 59.8005L192.046 47.308L187.816 44.77L185.468 60.4581C185.233 60.873 185.157 61.3599 185.257 61.8266C185.356 62.2933 185.623 62.7074 186.007 62.9904C186.391 63.2733 186.866 63.4055 187.341 63.3619C187.816 63.3183 188.259 63.1019 188.585 62.7537Z" fill="#FFB6B6"/>
<path d="M192.328 48.718L187.252 46.744L187.468 44.2096L181.437 31.0077C181.139 30.3551 180.989 29.6449 180.996 28.9275C181.003 28.2101 181.168 27.5031 181.479 26.8567C181.791 26.2103 182.24 25.6403 182.797 25.1872C183.353 24.7341 184.002 24.4091 184.698 24.2351C185.956 23.9223 187.286 24.1211 188.397 24.7879C189.508 25.4547 190.309 26.535 190.625 27.7919L194.588 43.6521C195.047 46.1138 194.529 47.9523 192.328 48.718Z" fill="#FC5D00"/>
<path d="M185.306 10.0141C185.306 7.72929 184.398 5.53804 182.783 3.92243C181.167 2.30681 178.976 1.39917 176.691 1.39917C174.406 1.39917 172.215 2.30681 170.599 3.92243C168.984 5.53804 168.076 7.72929 168.076 10.0141V15.4143C168.076 15.7208 168.198 16.0147 168.415 16.2314C168.632 16.4481 168.926 16.5701 169.232 16.5705H169.444C169.688 15.8708 169.837 15.1414 169.886 14.402C170.331 15.0685 170.67 15.8 170.89 16.5705H184.147C184.454 16.5702 184.748 16.4484 184.965 16.2317C185.182 16.015 185.305 15.7211 185.306 15.4143C186.002 13.9931 186.316 12.3631 185.306 10.0141Z" fill="#2F2E41"/>
<path d="M176.344 16.5173C179.832 16.5173 182.66 13.6895 182.66 10.2014C182.66 6.71317 179.832 3.88544 176.344 3.88544C172.856 3.88544 170.028 6.71317 170.028 10.2014C170.028 13.6895 172.856 16.5173 176.344 16.5173Z" fill="#FFB8B8"/>
<path d="M169.855 10.177C169.794 10.1074 169.75 10.0256 169.724 9.93712C169.698 9.84869 169.691 9.7557 169.704 9.66448L170.452 4.45462C170.467 4.34861 170.508 4.24797 170.572 4.16181C170.635 4.07565 170.719 4.00669 170.816 3.96116C174.635 2.1739 178.507 2.17164 182.326 3.95439C182.428 4.00241 182.515 4.0759 182.579 4.16768C182.643 4.25946 182.683 4.36638 182.694 4.47799L183.475 8.56663C183.483 8.65582 183.473 8.74578 183.445 8.83079C183.417 8.9158 183.371 8.99398 183.311 9.06035C183.189 9.19394 183.019 12.1319 182.839 12.1319C182.991 10.3808 182.622 9.54292 181.286 10.3988C181.164 10.3985 181.044 10.3635 180.941 10.2978C180.838 10.2321 180.756 10.1385 180.704 10.0278L180.157 8.8566C180.122 8.78076 180.063 8.71848 179.989 8.67916C179.915 8.63984 179.83 8.62561 179.748 8.63862C179.665 8.65164 179.589 8.69119 179.531 8.7513C179.472 8.81141 179.435 8.88883 179.425 8.97187L179.317 9.83548C179.297 9.99091 179.222 10.1339 179.104 10.2376C178.987 10.3412 178.836 10.3986 178.679 10.3988C176.447 11.5062 173.52 11.2082 170.34 10.3988C170.248 10.3988 170.157 10.379 170.073 10.3407C169.99 10.3025 169.915 10.2466 169.855 10.177Z" fill="#2F2E41"/>
<path d="M181.38 45.3172H171.029C170.674 45.3168 170.334 45.1758 170.084 44.9251C169.833 44.6745 169.692 44.3346 169.692 43.9802V32.8532C169.692 32.4988 169.833 32.1589 170.084 31.9083C170.334 31.6576 170.674 31.5166 171.029 31.5162H181.38C181.735 31.5166 182.075 31.6576 182.325 31.9083C182.576 32.1589 182.717 32.4988 182.717 32.8532V43.9802C182.717 44.3346 182.576 44.6745 182.325 44.9251C182.075 45.1758 181.735 45.3168 181.38 45.3172Z" fill="#3F3D56"/>
<path d="M171.32 33.9198C171.748 33.9198 172.095 33.5727 172.095 33.1445C172.095 32.7163 171.748 32.3691 171.32 32.3691C170.892 32.3691 170.544 32.7163 170.544 33.1445C170.544 33.5727 170.892 33.9198 171.32 33.9198Z" fill="#E6E6E6"/>
<path d="M171.32 33.6097C171.577 33.6097 171.785 33.4014 171.785 33.1445C171.785 32.8875 171.577 32.6793 171.32 32.6793C171.063 32.6793 170.855 32.8875 170.855 33.1445C170.855 33.4014 171.063 33.6097 171.32 33.6097Z" fill="#3F3D56"/>
<path d="M183.217 37.8178C182.987 38.0734 182.703 38.2754 182.387 38.4096C182.07 38.5438 181.728 38.6069 181.384 38.5946C181.041 38.5823 180.704 38.4948 180.398 38.3382C180.092 38.1817 179.824 37.9599 179.613 37.6886L170.332 40.2581L168.922 37.1561L180.144 34.2662C180.623 33.9417 181.205 33.8043 181.779 33.8801C182.353 33.9558 182.879 34.2395 183.258 34.6773C183.637 35.1151 183.842 35.6766 183.834 36.2554C183.826 36.8342 183.607 37.3902 183.217 37.8178Z" fill="#FFB8B8"/>
<path d="M171.434 40.3379L168.83 41.1691C165.998 44.1613 164.996 41.9901 161.659 41.7654C161.031 41.7232 160.539 41.2077 160.198 40.2335C159.733 38.8636 159.78 37.3719 160.329 36.0335L164.965 24.4142L166.905 22.8243L169.615 26.0712L167.535 34.9975L170.95 36.7381L171.434 40.3379Z" fill="#FC5D00"/>
</g>
<defs>
<clipPath id="clip0_72_2062">
<rect width="200" height="127.959" fill="white"/>
</clipPath>
</defs>
</svg>
