<svg width="100" height="118" viewBox="0 0 100 118" fill="none" xmlns="http://www.w3.org/2000/svg">
<path d="M94.8956 28.3031H94.2535V10.692C94.2535 7.98863 93.1819 5.39601 91.2745 3.48447C89.367 1.57292 86.7799 0.499023 84.0824 0.499023H46.8517C44.1541 0.499023 41.5671 1.57292 39.6596 3.48447C37.7521 5.39601 36.6805 7.98863 36.6805 10.692V107.307C36.6805 110.01 37.7521 112.603 39.6596 114.515C41.5671 116.426 44.1541 117.5 46.8517 117.5H84.0833C85.419 117.5 86.7416 117.236 87.9756 116.724C89.2096 116.212 90.3309 115.461 91.2753 114.515C92.2198 113.568 92.969 112.444 93.4802 111.208C93.9913 109.971 94.2544 108.646 94.2544 107.307V40.8386H94.8965L94.8956 28.3031Z" fill="#090814"/>
<path d="M84.4949 3.15137H79.6355C79.8591 3.70054 79.9444 4.29637 79.884 4.88637C79.8236 5.47637 79.6193 6.04243 79.2891 6.53466C78.959 7.0269 78.5131 7.4302 77.9907 7.70904C77.4684 7.98788 76.8856 8.13369 76.2938 8.13362H54.963C54.3712 8.13369 53.7884 7.98788 53.2661 7.70904C52.7438 7.4302 52.2979 7.0269 51.9677 6.53466C51.6375 6.04243 51.4333 5.47637 51.3729 4.88637C51.3125 4.29637 51.3978 3.70054 51.6213 3.15137H47.083C45.0685 3.15137 43.1365 3.95334 41.712 5.38085C40.2876 6.80837 39.4873 8.7445 39.4873 10.7633V107.237C39.4873 109.256 40.2876 111.192 41.7121 112.619C43.1365 114.047 45.0685 114.849 47.083 114.849H84.4935C85.4909 114.849 86.4786 114.652 87.4002 114.269C88.3217 113.887 89.1591 113.326 89.8644 112.619C90.5697 111.912 91.1292 111.073 91.5109 110.15C91.8926 109.226 92.0891 108.236 92.0891 107.237V10.7633C92.0891 8.7448 91.2891 6.80894 89.865 5.38147C88.4409 3.95401 86.5094 3.15183 84.4952 3.15137H84.4949Z" fill="white"/>
<path d="M32.4135 34.8572C32.4135 34.8572 34.5743 39.4481 34.2286 40.834C34.0263 41.6764 34.1178 42.5629 34.488 43.346L38.464 43.1727L42.1808 39.6212C42.1808 39.6212 36.5626 35.7232 36.9082 33.8176C37.2537 31.9119 32.4135 34.8572 32.4135 34.8572Z" fill="#9F616A"/>
<path d="M42.4402 42.1328L44.1688 52.8739C44.1688 52.8739 44.1688 62.5754 43.6502 62.7487C43.1316 62.922 40.8843 62.7487 40.8843 62.7487V51.8345L41.5758 42.3061L42.4402 42.1328Z" fill="#FC5D00"/>
<path opacity="0.1" d="M42.4402 42.1328L44.1688 52.8739C44.1688 52.8739 44.1688 62.5754 43.6502 62.7487C43.1316 62.922 40.8843 62.7487 40.8843 62.7487V51.8345L41.5758 42.3061L42.4402 42.1328Z" fill="black"/>
<path d="M52.8125 105.193L54.1955 110.564L56.27 109.005L58.1715 104.674L55.7513 101.729L52.8125 105.193Z" fill="#9F616A"/>
<path d="M58.1716 103.981C58.1716 103.981 55.9243 105.714 55.9243 107.446C55.9243 107.446 54.7142 109.352 53.3311 109.179V112.817C53.3311 112.817 49.0094 115.069 52.2939 115.589C55.5784 116.108 57.9986 111.951 57.9986 111.951C57.9986 111.951 61.1104 106.926 60.5918 106.234C60.0731 105.541 58.1716 103.981 58.1716 103.981Z" fill="#090814"/>
<path d="M42.4277 61.9302C42.4277 61.9302 45.7257 65.521 44.1692 71.0648C44.1692 71.0648 42.4404 83.5383 47.9724 88.2158C53.5043 92.8933 57.1346 103.115 57.1346 103.115L52.9856 106.926C52.9856 106.926 48.491 96.7048 43.8234 92.7202C39.1557 88.7356 38.6373 84.2312 38.6373 84.2312V68.4665L37.7726 61.8828L42.4277 61.9302Z" fill="#090814"/>
<path opacity="0.1" d="M42.4277 61.9302C42.4277 61.9302 45.7257 65.521 44.1692 71.0648C44.1692 71.0648 42.4404 83.5383 47.9724 88.2158C53.5043 92.8933 57.1346 103.115 57.1346 103.115L52.9856 106.926C52.9856 106.926 48.491 96.7048 43.8234 92.7202C39.1557 88.7356 38.6373 84.2312 38.6373 84.2312V68.4665L37.7726 61.8828L42.4277 61.9302Z" fill="#6F6F6F"/>
<path d="M38.1182 109.179L36.3896 111.084L37.0811 112.644L39.1556 113.337L42.786 111.951L42.2674 109.872L38.1182 109.179Z" fill="#9F616A"/>
<path d="M42.7858 111.084C42.7858 111.084 38.7858 113.163 37.7858 112.297C37.4945 112.052 37.2559 111.75 37.0844 111.41C36.913 111.07 36.8124 110.699 36.7887 110.318C36.7887 110.318 34.7858 110.564 33.4525 111.43C32.1191 112.295 30.4782 112.596 29.4525 113.335C28.4267 114.075 28.4524 115.414 31.6192 115.588C34.7859 115.761 42.786 115.414 42.786 114.548L42.7858 111.084Z" fill="#090814"/>
<path d="M31.5492 64.1352C31.5492 64.1352 29.3019 74.1833 33.2778 85.6178C33.2778 85.6178 35.1794 92.0279 36.0437 93.9335C36.9081 95.8392 37.7724 109.352 37.4267 109.872C37.4267 109.872 40.1926 112.124 42.6128 110.565C42.6128 110.565 42.4399 102.596 42.7857 101.903C43.1316 101.21 43.4773 95.1466 41.4028 90.1223C39.3283 85.0981 41.0571 72.9713 41.0571 72.9713C41.0571 72.9713 45.2061 66.7342 42.0943 63.0957L31.5492 64.1352Z" fill="#090814"/>
<path d="M34.1423 36.0697C36.8156 36.0697 38.9827 33.898 38.9827 31.2189C38.9827 28.5399 36.8156 26.3682 34.1423 26.3682C31.469 26.3682 29.3019 28.5399 29.3019 31.2189C29.3019 33.898 31.469 36.0697 34.1423 36.0697Z" fill="#9F616A"/>
<path d="M43.1317 62.9227C43.1317 62.9227 41.7487 65.0016 40.7115 63.9621C39.9802 63.2293 35.2989 64.8214 32.5979 65.8245C31.4673 66.2438 30.6842 66.5608 30.6842 66.5608C30.6842 66.5608 30.61 64.1597 30.3903 61.1192C30.1379 57.6301 29.6954 53.2954 28.9554 50.7957C27.5725 46.1181 31.0299 44.2124 31.0299 44.2124C31.0299 44.2124 33.9689 40.7478 33.7966 40.2278C33.6242 39.7078 41.5758 37.1094 41.5758 37.1094C42.4401 37.2827 43.1317 45.0786 43.1317 45.0786C43.1317 45.0786 41.5758 51.3153 40.7115 55.1267C39.8472 58.9382 43.1317 62.9227 43.1317 62.9227Z" fill="#FC5D00"/>
<path d="M28.2646 63.0957C28.2646 63.0957 24.4615 66.907 22.5599 67.9465C20.6583 68.986 19.6211 72.4507 21.1769 73.1437C22.7328 73.8367 26.1903 69.3324 26.1903 69.3324L31.2036 65.1745L28.2646 63.0957Z" fill="#9F616A"/>
<path d="M28.9833 28.3212C28.5411 28.3607 28.2884 28.9187 28.4311 29.34C28.5738 29.7614 28.984 30.0369 29.403 30.1841C29.8219 30.3314 30.2698 30.3819 30.6892 30.5278C31.1063 30.6807 31.4933 30.9059 31.8325 31.1932C33.0274 32.1739 33.735 33.6682 33.9602 35.1995C34.1853 36.7307 33.9609 38.2997 33.5362 39.788C33.3112 40.5764 32.9438 41.4405 32.1749 41.7204C33.0154 41.5124 33.8367 41.2333 34.6301 40.886C35.2115 40.6115 35.7572 40.2642 36.3449 40.0034C37.2147 39.6478 38.1272 39.408 39.0591 39.2901C39.7135 39.1877 40.4053 39.1101 41.02 39.3575C41.3969 39.5332 41.7437 39.7676 42.0476 40.052L44.0249 41.7168C44.0593 40.9931 44.0821 40.269 44.093 39.5444C44.1027 38.9147 44.1002 38.2667 43.8686 37.6813C43.6399 37.1032 43.2058 36.632 42.9154 36.0826C42.1966 34.7226 42.4308 33.0856 42.4442 31.5471C42.4581 29.9543 42.2023 28.3308 41.4665 26.9189C40.7307 25.5069 39.4742 24.3246 37.9416 23.9018C35.876 23.3315 33.6984 24.1797 31.7997 25.1741C31.3529 25.3871 30.9364 25.6588 30.5612 25.9821C30.1622 26.3906 29.8232 26.8538 29.5543 27.3579L28.6142 28.9366" fill="#090814"/>
<path opacity="0.1" d="M41.23 46.8105C41.23 46.8105 37.9454 59.2841 37.5997 60.1503C37.3508 60.7722 34.4223 64.0812 32.5985 65.8244C31.4679 66.2432 30.6848 66.56 30.6848 66.56C30.6848 66.56 30.6106 64.1589 30.3909 61.1184C31.7981 59.5536 33.278 58.071 33.278 58.071C33.278 58.071 34.8338 48.5426 34.6609 44.9046C34.488 41.2666 38.1184 40.4004 38.1184 40.4004C42.2672 40.9203 41.23 46.8105 41.23 46.8105Z" fill="black"/>
<path d="M37.5997 39.708C37.5997 39.708 33.9693 40.5742 34.1423 44.2122C34.3152 47.8502 32.7593 57.3786 32.7593 57.3786C32.7593 57.3786 26.8816 63.2689 27.4003 63.9619C27.9189 64.655 30.1409 66.0172 30.6722 66.2023C31.2036 66.3875 36.7355 60.3235 37.0812 59.4576C37.4269 58.5917 40.7116 46.1179 40.7116 46.1179C40.7116 46.1179 41.7486 40.2277 37.5997 39.708Z" fill="#FC5D00"/>
<path d="M4.5179 108.059C4.57919 107.872 5.04324 107.954 5.08775 107.786C5.13225 107.619 4.68688 107.479 4.34527 107.007C4.28368 106.922 3.89552 106.386 4.04436 106.161C4.32644 105.733 6.2896 106.798 6.7608 106.2C6.86426 106.069 6.90673 105.844 7.21478 105.425C7.33736 105.259 7.41601 105.178 7.50999 105.181C7.64337 105.184 7.69094 105.351 7.90049 105.654C8.21467 106.107 8.32806 106.051 8.53513 106.423C8.68879 106.699 8.70703 106.876 8.81779 106.886C8.97466 106.901 9.03945 106.557 9.23091 106.544C9.42645 106.53 9.62214 106.87 9.71904 107.135C9.90101 107.633 9.78835 108.014 9.76281 108.393C9.73567 108.805 9.79945 109.409 10.2464 110.183L14.4637 116.916C13.5581 115.543 10.9876 111.801 9.95194 110.428C9.65293 110.032 9.3316 109.634 8.8372 109.559C8.36104 109.487 7.78185 109.723 6.97327 109.709C6.87886 109.707 6.61604 109.7 6.55213 109.56C6.4993 109.445 6.63049 109.344 6.58277 109.236C6.51871 109.09 6.23065 109.153 5.83854 109.056C5.61615 108.998 5.40458 108.904 5.21193 108.778C5.16319 108.749 4.43676 108.308 4.51834 108.058L4.5179 108.059Z" fill="#D6D6E3"/>
<path d="M15.5618 109.632C15.6714 109.607 15.7648 109.859 15.8599 109.833C15.9551 109.807 15.8949 109.547 16.0273 109.243C16.0512 109.188 16.2017 108.843 16.3551 108.851C16.6457 108.866 16.6907 110.139 17.1194 110.198C17.2895 110.189 17.4601 110.189 17.6302 110.198C17.7469 110.211 17.8092 110.226 17.8345 110.273C17.8712 110.339 17.8032 110.411 17.7154 110.602C17.5841 110.887 17.6443 110.926 17.5219 111.136C17.431 111.291 17.3498 111.351 17.3767 111.408C17.4148 111.489 17.6019 111.423 17.6636 111.513C17.7253 111.602 17.6167 111.799 17.5147 111.923C17.3233 112.157 17.1044 112.211 16.9113 112.308C16.5946 112.479 16.3374 112.742 16.174 113.063L14.0933 117.08C14.5043 116.238 15.5955 113.894 15.9691 112.988C16.0769 112.727 16.1791 112.454 16.0731 112.189C15.971 111.934 15.6883 111.717 15.4617 111.316C15.4353 111.269 15.3632 111.137 15.4131 111.066C15.4544 111.006 15.5414 111.042 15.5808 110.987C15.6336 110.914 15.5199 110.79 15.4539 110.569C15.4183 110.443 15.4032 110.312 15.4092 110.181C15.4092 110.148 15.4157 109.664 15.5616 109.632L15.5618 109.632Z" fill="#D6D6E3"/>
<path d="M13.4861 110.611L13.4207 110.006L13.3806 109.968C13.2132 109.822 13.093 109.629 13.0354 109.415C13.0283 109.384 13.0231 109.353 13.0175 109.322C12.9994 109.163 12.9417 109.012 12.8496 108.882C12.7828 108.793 12.606 108.59 12.4238 108.661C12.3806 108.677 12.3437 108.707 12.3183 108.745L12.3002 108.727C12.246 108.673 12.1828 108.628 12.1134 108.596C12.0583 108.569 12.0066 108.535 11.9593 108.496C11.9281 108.471 11.903 108.449 11.8819 108.43C11.8508 108.393 11.8108 108.365 11.7657 108.347C11.7205 108.33 11.6718 108.325 11.6241 108.332C11.5771 108.351 11.5353 108.38 11.5028 108.419C11.4702 108.458 11.4478 108.504 11.4376 108.553C11.4036 108.647 11.3791 108.743 11.3646 108.841C11.3622 108.86 11.3586 108.878 11.3538 108.897C11.3279 108.962 11.0016 108.979 10.8787 108.986C10.6027 109.001 10.3639 109.014 10.3064 109.204C10.2652 109.339 10.351 109.487 10.569 109.655C10.6294 109.7 10.6948 109.739 10.764 109.77C10.7435 109.788 10.727 109.811 10.7155 109.836C10.704 109.86 10.6976 109.888 10.6969 109.915C10.6929 110.066 10.8475 110.182 11.1565 110.26C11.2589 110.29 11.3653 110.303 11.4717 110.299C11.5278 110.296 11.5836 110.289 11.6387 110.277C11.6466 110.308 11.6616 110.336 11.6825 110.359C11.7258 110.401 11.7805 110.428 11.8394 110.438C11.8983 110.447 11.9588 110.439 12.013 110.414C12.1557 110.372 12.2943 110.316 12.427 110.249C12.5097 110.204 12.598 110.17 12.6897 110.148C12.8261 110.129 12.9532 110.213 13.1054 110.325L13.4869 110.612L13.4861 110.611Z" fill="#D6D6E3"/>
<path d="M12.3977 107.165L12.9983 107.255L13.0451 107.226C13.2286 107.101 13.4451 107.033 13.6671 107.032C13.6983 107.033 13.7294 107.035 13.7611 107.038C13.9185 107.06 14.0792 107.043 14.228 106.987C14.3313 106.944 14.5714 106.825 14.5491 106.63C14.5443 106.584 14.5252 106.541 14.4945 106.506L14.5165 106.493C14.583 106.455 14.6422 106.405 14.6916 106.346C14.7316 106.299 14.7769 106.257 14.8266 106.222C14.8587 106.198 14.8867 106.179 14.9104 106.163C14.9539 106.142 14.9914 106.111 15.0193 106.071C15.0473 106.032 15.0647 105.986 15.07 105.938C15.0642 105.888 15.046 105.84 15.017 105.798C14.9879 105.757 14.949 105.724 14.9038 105.701C14.8226 105.645 14.7359 105.596 14.6449 105.558C14.6274 105.55 14.6104 105.542 14.5939 105.533C14.5371 105.491 14.6035 105.17 14.6277 105.05C14.6832 104.778 14.7313 104.543 14.5631 104.44C14.4427 104.366 14.2784 104.411 14.0612 104.58C14.0018 104.627 13.9479 104.681 13.9007 104.74C13.8882 104.715 13.8709 104.693 13.8497 104.676C13.8285 104.658 13.8039 104.645 13.7775 104.637C13.6326 104.595 13.4816 104.716 13.3278 104.995C13.2732 105.087 13.2335 105.187 13.2102 105.291C13.1992 105.346 13.1922 105.402 13.1892 105.459C13.1578 105.458 13.1268 105.466 13.0988 105.48C13.048 105.511 13.0078 105.558 12.9835 105.612C12.9592 105.667 12.9518 105.728 12.9624 105.787C12.967 105.936 12.9852 106.084 13.0168 106.23C13.0394 106.322 13.0499 106.416 13.0479 106.51C13.0317 106.647 12.918 106.749 12.7706 106.868L12.3972 107.165L12.3977 107.165Z" fill="#D6D6E3"/>
<path d="M12.3168 105.357L12.2515 104.751L12.2113 104.713C12.0439 104.567 11.9237 104.375 11.8661 104.16C11.8592 104.129 11.8538 104.098 11.8483 104.067C11.8301 103.909 11.7723 103.757 11.6802 103.627C11.6133 103.538 11.4366 103.335 11.2543 103.406C11.2112 103.422 11.1743 103.452 11.1488 103.491L11.1307 103.472C11.0765 103.418 11.0133 103.374 10.944 103.341C10.8888 103.314 10.8371 103.281 10.7899 103.241C10.7586 103.216 10.7335 103.194 10.7125 103.175C10.6814 103.138 10.6414 103.11 10.5962 103.093C10.5511 103.075 10.5024 103.07 10.4547 103.077C10.4076 103.096 10.3659 103.125 10.3333 103.164C10.3008 103.203 10.2784 103.249 10.2682 103.299C10.2342 103.392 10.2097 103.488 10.1952 103.586C10.1928 103.605 10.1892 103.623 10.1844 103.642C10.1584 103.707 9.83213 103.724 9.70926 103.731C9.43331 103.746 9.19443 103.759 9.13693 103.949C9.09578 104.084 9.18159 104.232 9.39961 104.4C9.45997 104.445 9.52538 104.484 9.59457 104.515C9.57411 104.533 9.55761 104.556 9.54607 104.58C9.53453 104.605 9.52819 104.633 9.52744 104.66C9.5235 104.811 9.67804 104.927 9.98711 105.005C10.0894 105.035 10.1958 105.048 10.3023 105.044C10.3584 105.041 10.4142 105.034 10.4693 105.022C10.4772 105.053 10.4922 105.081 10.513 105.104C10.5564 105.146 10.611 105.173 10.67 105.182C10.7289 105.192 10.7893 105.184 10.8436 105.159C10.9863 105.117 11.1249 105.061 11.2576 104.994C11.3403 104.948 11.4286 104.914 11.5202 104.893C11.6567 104.873 11.7838 104.958 11.936 105.07L12.3173 105.357L12.3168 105.357Z" fill="#D6D6E3"/>
<path d="M14.2645 116.951L14.3708 116.846L14.5185 116.831C14.5185 116.816 14.5185 116.784 14.5198 116.733C14.5347 115.923 14.5032 115.112 14.4254 114.306C14.3412 113.385 14.2048 112.469 14.0168 111.564C13.8271 110.651 13.6315 109.972 13.4741 109.427C13.3551 109.015 13.2352 108.625 13.118 108.245C12.7843 107.241 12.5201 106.215 12.3272 105.175C12.2378 104.726 12.2542 104.263 12.3752 103.822C12.48 103.466 12.6547 103.135 12.889 102.848L12.6567 102.66C12.3976 102.978 12.2045 103.345 12.0886 103.739C11.9544 104.223 11.9352 104.732 12.0327 105.225C12.2276 106.278 12.4949 107.316 12.8327 108.333C12.9494 108.712 13.069 109.1 13.1873 109.51C13.3434 110.051 13.5375 110.724 13.7245 111.624C13.9101 112.518 14.0449 113.423 14.128 114.332C14.2048 115.128 14.2358 115.927 14.2209 116.726C14.218 116.873 14.2173 116.904 14.2647 116.951L14.2645 116.951Z" fill="#D6D6E3"/>
<path d="M13.5267 103.193C13.5387 103.19 13.5506 103.187 13.5628 103.184C13.8078 103.115 14.0043 102.915 14.1465 102.589C14.2172 102.384 14.2557 102.17 14.2606 101.953C14.2785 101.742 14.2785 101.531 14.2606 101.32C14.2431 101.103 14.2199 101.016 14.1609 100.947C14.0958 100.874 14.0092 100.825 13.9139 100.805C13.9113 100.775 13.9008 100.746 13.8834 100.722C13.8066 100.611 13.6782 100.656 13.6086 100.68C13.5671 100.696 13.5242 100.709 13.4805 100.717C13.4153 100.727 13.3485 100.72 13.287 100.696C13.2015 100.668 13.1119 100.654 13.022 100.655C12.8622 100.66 12.7067 100.708 12.5718 100.794C12.2799 100.969 12.1795 101.25 12.0629 101.574C11.9967 101.769 11.9571 101.971 11.945 102.177C11.9255 102.303 11.9422 102.432 11.9933 102.548C12.0601 102.68 12.1626 102.741 12.4165 102.869C12.5801 102.959 12.7498 103.038 12.9243 103.105C13.1785 103.185 13.338 103.235 13.5258 103.193L13.5267 103.193Z" fill="#D6D6E3"/>
<path d="M0 117.285C0 117.4 0.175113 117.491 0.394004 117.491H99.607C99.8259 117.491 100.001 117.4 100.001 117.285C100.001 117.171 99.8259 117.079 99.607 117.079H0.394004C0.175113 117.079 0 117.171 0 117.285Z" fill="#F2F2F2"/>
<path d="M69.8462 67.7324H61.6743C60.7458 67.7314 59.8556 67.3612 59.199 66.7033C58.5424 66.0453 58.1731 65.1532 58.1721 64.2226V61.8828C58.1721 61.5725 58.2951 61.2749 58.514 61.0555C58.7329 60.8361 59.0299 60.7129 59.3395 60.7129C59.6491 60.7129 59.946 60.8361 60.165 61.0555C60.3839 61.2749 60.5069 61.5725 60.5069 61.8828V64.2226C60.5072 64.5328 60.6303 64.8302 60.8492 65.0495C61.0681 65.2688 61.3648 65.3922 61.6743 65.3926H69.8462C70.1558 65.3922 70.4525 65.2688 70.6713 65.0495C70.8902 64.8302 71.0133 64.5328 71.0137 64.2226V50.1836C71.0133 49.8734 70.8902 49.576 70.6713 49.3567C70.4525 49.1374 70.1558 49.014 69.8462 49.0137H61.6743C61.3648 49.014 61.0681 49.1374 60.8492 49.3567C60.6303 49.576 60.5072 49.8734 60.5069 50.1836V52.5234C60.5069 52.8337 60.3839 53.1313 60.165 53.3507C59.946 53.5701 59.6491 53.6934 59.3395 53.6934C59.0299 53.6934 58.7329 53.5701 58.514 53.3507C58.2951 53.1313 58.1721 52.8337 58.1721 52.5234V50.1836C58.1731 49.2531 58.5424 48.361 59.199 47.703C59.8556 47.045 60.7458 46.6749 61.6743 46.6738H69.8462C70.7748 46.6749 71.665 47.045 72.3216 47.703C72.9781 48.361 73.3474 49.2531 73.3485 50.1836V64.2226C73.3474 65.1532 72.9781 66.0453 72.3216 66.7033C71.665 67.3612 70.7748 67.7314 69.8462 67.7324Z" fill="#F2F2F2"/>
<path d="M65.2937 58.2556H52.6914C52.4838 58.2554 52.2809 58.1936 52.1083 58.078C51.9357 57.9623 51.8011 57.798 51.7216 57.6058C51.6421 57.4136 51.6212 57.2021 51.6616 56.998C51.7019 56.7939 51.8017 56.6063 51.9484 56.459L55.0992 53.3014C55.1956 53.1987 55.3116 53.1164 55.4403 53.0594C55.569 53.0025 55.7079 52.972 55.8485 52.9699C55.9892 52.9677 56.1289 52.9939 56.2593 53.0468C56.3897 53.0998 56.5082 53.1784 56.6077 53.2782C56.7072 53.3779 56.7856 53.4966 56.8385 53.6273C56.8913 53.758 56.9174 53.8979 56.9152 54.0389C56.9131 54.1799 56.8827 54.319 56.8258 54.448C56.769 54.577 56.6869 54.6932 56.5843 54.7898L55.2272 56.1499H65.2937C65.567 56.1578 65.8265 56.2721 66.017 56.4686C66.2075 56.6651 66.3141 56.9283 66.3141 57.2023C66.3141 57.4763 66.2075 57.7395 66.017 57.9361C65.8265 58.1326 65.567 58.2469 65.2937 58.2548V58.2556Z" fill="#F2F2F2"/>
<path d="M55.8417 61.413C55.7038 61.4132 55.5672 61.386 55.4398 61.3331C55.3123 61.2802 55.1966 61.2026 55.0992 61.1048L51.9484 57.9473C51.7608 57.748 51.6581 57.4833 51.6621 57.2094C51.6661 56.9355 51.7764 56.674 51.9697 56.4803C52.163 56.2866 52.424 56.176 52.6973 56.172C52.9706 56.168 53.2348 56.2709 53.4336 56.4589L56.5843 59.6165C56.731 59.7638 56.8308 59.9513 56.8712 60.1554C56.9116 60.3594 56.8908 60.571 56.8113 60.7632C56.7319 60.9554 56.5974 61.1197 56.4248 61.2354C56.2522 61.3511 56.0493 61.4128 55.8417 61.413Z" fill="#F2F2F2"/>
</svg>
