<svg width="129" height="203" viewBox="0 0 129 203" fill="none" xmlns="http://www.w3.org/2000/svg">
<path d="M22.5 25C22.5 11.7452 33.2452 1 46.5 1H47.5V121H38.5C29.6634 121 22.5 113.837 22.5 105V25Z" fill="url(#paint0_linear_65_975)"/>
<path d="M35 45V35C35 22.5736 45.0736 12.5 57.5 12.5H67.5C79.9264 12.5 90 22.5736 90 35V45C90 57.4264 79.9264 67.5 67.5 67.5H57.5C45.0736 67.5 35 57.4264 35 45Z" stroke="url(#paint1_linear_65_975)" stroke-width="25"/>
<path d="M6.216 160L0.648 143.2H3.888L8.856 158.392H7.248L12.408 143.2H15.288L20.304 158.392H18.744L23.832 143.2H26.808L21.24 160H17.928L13.344 146.296H14.208L9.552 160H6.216ZM34.1248 160.168C32.7008 160.168 31.4528 159.888 30.3808 159.328C29.3248 158.752 28.5008 157.968 27.9088 156.976C27.3328 155.984 27.0448 154.856 27.0448 153.592C27.0448 152.312 27.3248 151.184 27.8848 150.208C28.4608 149.216 29.2448 148.44 30.2368 147.88C31.2448 147.32 32.3888 147.04 33.6688 147.04C34.9168 147.04 36.0288 147.312 37.0048 147.856C37.9808 148.4 38.7488 149.168 39.3088 150.16C39.8688 151.152 40.1488 152.32 40.1488 153.664C40.1488 153.792 40.1408 153.936 40.1248 154.096C40.1248 154.256 40.1168 154.408 40.1008 154.552H29.4208V152.56H38.5168L37.3408 153.184C37.3568 152.448 37.2048 151.8 36.8848 151.24C36.5648 150.68 36.1248 150.24 35.5648 149.92C35.0208 149.6 34.3888 149.44 33.6688 149.44C32.9328 149.44 32.2848 149.6 31.7248 149.92C31.1808 150.24 30.7488 150.688 30.4288 151.264C30.1248 151.824 29.9728 152.488 29.9728 153.256V153.736C29.9728 154.504 30.1488 155.184 30.5008 155.776C30.8528 156.368 31.3488 156.824 31.9888 157.144C32.6288 157.464 33.3648 157.624 34.1968 157.624C34.9168 157.624 35.5648 157.512 36.1408 157.288C36.7168 157.064 37.2288 156.712 37.6768 156.232L39.2848 158.08C38.7088 158.752 37.9808 159.272 37.1008 159.64C36.2368 159.992 35.2448 160.168 34.1248 160.168ZM43.0305 160V142.192H46.0305V160H43.0305ZM55.848 160.168C54.504 160.168 53.304 159.888 52.248 159.328C51.208 158.752 50.392 157.968 49.8 156.976C49.208 155.984 48.912 154.856 48.912 153.592C48.912 152.312 49.208 151.184 49.8 150.208C50.392 149.216 51.208 148.44 52.248 147.88C53.304 147.32 54.504 147.04 55.848 147.04C57.096 147.04 58.192 147.296 59.136 147.808C60.096 148.304 60.824 149.04 61.32 150.016L59.016 151.36C58.632 150.752 58.16 150.304 57.6 150.016C57.056 149.728 56.464 149.584 55.824 149.584C55.088 149.584 54.424 149.744 53.832 150.064C53.24 150.384 52.776 150.848 52.44 151.456C52.104 152.048 51.936 152.76 51.936 153.592C51.936 154.424 52.104 155.144 52.44 155.752C52.776 156.344 53.24 156.8 53.832 157.12C54.424 157.44 55.088 157.6 55.824 157.6C56.464 157.6 57.056 157.456 57.6 157.168C58.16 156.88 58.632 156.432 59.016 155.824L61.32 157.168C60.824 158.128 60.096 158.872 59.136 159.4C58.192 159.912 57.096 160.168 55.848 160.168ZM69.4858 160.168C68.1738 160.168 67.0058 159.888 65.9818 159.328C64.9578 158.752 64.1498 157.968 63.5578 156.976C62.9658 155.984 62.6698 154.856 62.6698 153.592C62.6698 152.312 62.9658 151.184 63.5578 150.208C64.1498 149.216 64.9578 148.44 65.9818 147.88C67.0058 147.32 68.1738 147.04 69.4858 147.04C70.8138 147.04 71.9898 147.32 73.0138 147.88C74.0538 148.44 74.8618 149.208 75.4378 150.184C76.0298 151.16 76.3258 152.296 76.3258 153.592C76.3258 154.856 76.0298 155.984 75.4378 156.976C74.8618 157.968 74.0538 158.752 73.0138 159.328C71.9898 159.888 70.8138 160.168 69.4858 160.168ZM69.4858 157.6C70.2218 157.6 70.8778 157.44 71.4538 157.12C72.0298 156.8 72.4778 156.336 72.7978 155.728C73.1338 155.12 73.3018 154.408 73.3018 153.592C73.3018 152.76 73.1338 152.048 72.7978 151.456C72.4778 150.848 72.0298 150.384 71.4538 150.064C70.8778 149.744 70.2298 149.584 69.5098 149.584C68.7738 149.584 68.1178 149.744 67.5418 150.064C66.9818 150.384 66.5338 150.848 66.1978 151.456C65.8618 152.048 65.6938 152.76 65.6938 153.592C65.6938 154.408 65.8618 155.12 66.1978 155.728C66.5338 156.336 66.9818 156.8 67.5418 157.12C68.1178 157.44 68.7658 157.6 69.4858 157.6ZM95.3706 147.04C96.3946 147.04 97.2986 147.24 98.0826 147.64C98.8826 148.04 99.5066 148.656 99.9546 149.488C100.403 150.304 100.627 151.36 100.627 152.656V160H97.6266V153.04C97.6266 151.904 97.3786 151.056 96.8826 150.496C96.3866 149.936 95.6746 149.656 94.7466 149.656C94.0906 149.656 93.5066 149.8 92.9946 150.088C92.4986 150.376 92.1066 150.8 91.8186 151.36C91.5466 151.92 91.4106 152.632 91.4106 153.496V160H88.4106V153.04C88.4106 151.904 88.1626 151.056 87.6666 150.496C87.1706 149.936 86.4586 149.656 85.5306 149.656C84.8746 149.656 84.2906 149.8 83.7786 150.088C83.2826 150.376 82.8906 150.8 82.6026 151.36C82.3306 151.92 82.1946 152.632 82.1946 153.496V160H79.1946V147.184H82.0506V150.592L81.5466 149.584C81.9786 148.752 82.6026 148.12 83.4186 147.688C84.2506 147.256 85.1946 147.04 86.2506 147.04C87.4506 147.04 88.4906 147.336 89.3706 147.928C90.2666 148.52 90.8586 149.416 91.1466 150.616L89.9706 150.208C90.3866 149.248 91.0746 148.48 92.0346 147.904C92.9946 147.328 94.1066 147.04 95.3706 147.04ZM110.508 160.168C109.084 160.168 107.836 159.888 106.764 159.328C105.708 158.752 104.884 157.968 104.292 156.976C103.716 155.984 103.428 154.856 103.428 153.592C103.428 152.312 103.708 151.184 104.268 150.208C104.844 149.216 105.628 148.44 106.62 147.88C107.628 147.32 108.772 147.04 110.052 147.04C111.3 147.04 112.412 147.312 113.388 147.856C114.364 148.4 115.132 149.168 115.692 150.16C116.252 151.152 116.532 152.32 116.532 153.664C116.532 153.792 116.524 153.936 116.508 154.096C116.508 154.256 116.5 154.408 116.484 154.552H105.804V152.56H114.9L113.724 153.184C113.74 152.448 113.588 151.8 113.268 151.24C112.948 150.68 112.508 150.24 111.948 149.92C111.404 149.6 110.772 149.44 110.052 149.44C109.316 149.44 108.668 149.6 108.108 149.92C107.564 150.24 107.132 150.688 106.812 151.264C106.508 151.824 106.356 152.488 106.356 153.256V153.736C106.356 154.504 106.532 155.184 106.884 155.776C107.236 156.368 107.732 156.824 108.372 157.144C109.012 157.464 109.748 157.624 110.58 157.624C111.3 157.624 111.948 157.512 112.524 157.288C113.1 157.064 113.612 156.712 114.06 156.232L115.668 158.08C115.092 158.752 114.364 159.272 113.484 159.64C112.62 159.992 111.628 160.168 110.508 160.168ZM119.605 154.432L119.029 143.2H122.581L121.981 154.432H119.605ZM120.805 160.168C120.245 160.168 119.781 159.984 119.413 159.616C119.045 159.248 118.861 158.808 118.861 158.296C118.861 157.784 119.045 157.352 119.413 157C119.781 156.632 120.245 156.448 120.805 156.448C121.365 156.448 121.821 156.632 122.173 157C122.525 157.352 122.701 157.784 122.701 158.296C122.701 158.808 122.525 159.248 122.173 159.616C121.821 159.984 121.365 160.168 120.805 160.168Z" fill="white"/>
<path d="M5.664 197V182.84H0.096V180.2H14.352V182.84H8.784V197H5.664ZM20.853 197.168C19.541 197.168 18.373 196.888 17.349 196.328C16.325 195.752 15.517 194.968 14.925 193.976C14.333 192.984 14.037 191.856 14.037 190.592C14.037 189.312 14.333 188.184 14.925 187.208C15.517 186.216 16.325 185.44 17.349 184.88C18.373 184.32 19.541 184.04 20.853 184.04C22.181 184.04 23.357 184.32 24.381 184.88C25.421 185.44 26.229 186.208 26.805 187.184C27.397 188.16 27.693 189.296 27.693 190.592C27.693 191.856 27.397 192.984 26.805 193.976C26.229 194.968 25.421 195.752 24.381 196.328C23.357 196.888 22.181 197.168 20.853 197.168ZM20.853 194.6C21.589 194.6 22.245 194.44 22.821 194.12C23.397 193.8 23.845 193.336 24.165 192.728C24.501 192.12 24.669 191.408 24.669 190.592C24.669 189.76 24.501 189.048 24.165 188.456C23.845 187.848 23.397 187.384 22.821 187.064C22.245 186.744 21.597 186.584 20.877 186.584C20.141 186.584 19.485 186.744 18.909 187.064C18.349 187.384 17.901 187.848 17.565 188.456C17.229 189.048 17.061 189.76 17.061 190.592C17.061 191.408 17.229 192.12 17.565 192.728C17.901 193.336 18.349 193.8 18.909 194.12C19.485 194.44 20.133 194.6 20.853 194.6ZM37.4826 197V180.2H44.3946C45.8826 180.2 47.1546 180.44 48.2106 180.92C49.2826 181.4 50.1066 182.088 50.6826 182.984C51.2586 183.88 51.5466 184.944 51.5466 186.176C51.5466 187.408 51.2586 188.472 50.6826 189.368C50.1066 190.264 49.2826 190.952 48.2106 191.432C47.1546 191.912 45.8826 192.152 44.3946 192.152H39.2106L40.6026 190.688V197H37.4826ZM40.6026 191.024L39.2106 189.512H44.2506C45.6266 189.512 46.6586 189.224 47.3466 188.648C48.0506 188.056 48.4026 187.232 48.4026 186.176C48.4026 185.104 48.0506 184.28 47.3466 183.704C46.6586 183.128 45.6266 182.84 44.2506 182.84H39.2106L40.6026 181.304V191.024ZM54.6086 197V179.192H57.6086V197H54.6086ZM69.4421 197V194.408L69.2741 193.856V189.32C69.2741 188.44 69.0101 187.76 68.4821 187.28C67.9541 186.784 67.1541 186.536 66.0821 186.536C65.3621 186.536 64.6501 186.648 63.9461 186.872C63.2581 187.096 62.6741 187.408 62.1941 187.808L61.0181 185.624C61.7061 185.096 62.5221 184.704 63.4661 184.448C64.4261 184.176 65.4181 184.04 66.4421 184.04C68.2981 184.04 69.7301 184.488 70.7381 185.384C71.7621 186.264 72.2741 187.632 72.2741 189.488V197H69.4421ZM65.4101 197.168C64.4501 197.168 63.6101 197.008 62.8901 196.688C62.1701 196.352 61.6101 195.896 61.2101 195.32C60.8261 194.728 60.6341 194.064 60.6341 193.328C60.6341 192.608 60.8021 191.96 61.1381 191.384C61.4901 190.808 62.0581 190.352 62.8421 190.016C63.6261 189.68 64.6661 189.512 65.9621 189.512H69.6821V191.504H66.1781C65.1541 191.504 64.4661 191.672 64.1141 192.008C63.7621 192.328 63.5861 192.728 63.5861 193.208C63.5861 193.752 63.8021 194.184 64.2341 194.504C64.6661 194.824 65.2661 194.984 66.0341 194.984C66.7701 194.984 67.4261 194.816 68.0021 194.48C68.5941 194.144 69.0181 193.648 69.2741 192.992L69.7781 194.792C69.4901 195.544 68.9701 196.128 68.2181 196.544C67.4821 196.96 66.5461 197.168 65.4101 197.168ZM83.3963 184.04C84.4203 184.04 85.3323 184.24 86.1323 184.64C86.9483 185.04 87.5883 185.656 88.0523 186.488C88.5163 187.304 88.7483 188.36 88.7483 189.656V197H85.7483V190.04C85.7483 188.904 85.4763 188.056 84.9323 187.496C84.4043 186.936 83.6603 186.656 82.7003 186.656C81.9963 186.656 81.3723 186.8 80.8283 187.088C80.2843 187.376 79.8603 187.808 79.5563 188.384C79.2683 188.944 79.1243 189.656 79.1243 190.52V197H76.1243V184.184H78.9803V187.64L78.4763 186.584C78.9243 185.768 79.5723 185.144 80.4203 184.712C81.2843 184.264 82.2763 184.04 83.3963 184.04ZM92.5539 197V184.184H95.5539V197H92.5539ZM94.0659 182.072C93.5059 182.072 93.0419 181.896 92.6739 181.544C92.3219 181.192 92.1459 180.768 92.1459 180.272C92.1459 179.76 92.3219 179.336 92.6739 179C93.0419 178.648 93.5059 178.472 94.0659 178.472C94.6259 178.472 95.0819 178.64 95.4339 178.976C95.8019 179.296 95.9859 179.704 95.9859 180.2C95.9859 180.728 95.8099 181.176 95.4579 181.544C95.1059 181.896 94.6419 182.072 94.0659 182.072ZM104.315 197.168C102.907 197.168 101.819 196.808 101.051 196.088C100.283 195.352 99.8994 194.272 99.8994 192.848V181.352H102.899V192.776C102.899 193.384 103.051 193.856 103.355 194.192C103.675 194.528 104.115 194.696 104.675 194.696C105.347 194.696 105.907 194.52 106.355 194.168L107.195 196.304C106.843 196.592 106.411 196.808 105.899 196.952C105.387 197.096 104.859 197.168 104.315 197.168ZM97.7874 186.68V184.28H106.331V186.68H97.7874ZM109.663 197V179.192H112.663V197H109.663ZM117.657 201.824C117.033 201.824 116.409 201.72 115.785 201.512C115.161 201.304 114.641 201.016 114.225 200.648L115.425 198.44C115.729 198.712 116.073 198.928 116.457 199.088C116.841 199.248 117.233 199.328 117.633 199.328C118.177 199.328 118.617 199.192 118.953 198.92C119.289 198.648 119.601 198.192 119.889 197.552L120.633 195.872L120.873 195.512L125.721 184.184H128.601L122.601 198.032C122.201 198.992 121.753 199.752 121.257 200.312C120.777 200.872 120.233 201.264 119.625 201.488C119.033 201.712 118.377 201.824 117.657 201.824ZM120.297 197.456L114.513 184.184H117.633L122.337 195.248L120.297 197.456Z" fill="white"/>
<defs>
<linearGradient id="paint0_linear_65_975" x1="35" y1="1" x2="35" y2="121" gradientUnits="userSpaceOnUse">
<stop stop-color="#002FFF"/>
<stop offset="1" stop-color="#FC5D00"/>
</linearGradient>
<linearGradient id="paint1_linear_65_975" x1="62.5" y1="0" x2="62.5" y2="80" gradientUnits="userSpaceOnUse">
<stop stop-color="#002FFF"/>
<stop offset="1" stop-color="#FC5D00"/>
</linearGradient>
</defs>
</svg>
