<svg width="200" height="149" viewBox="0 0 200 149" fill="none" xmlns="http://www.w3.org/2000/svg">
<g clip-path="url(#clip0_1026_5451)">
<path d="M146.039 141.572H142.06L140.166 126.272H146.039V141.572Z" fill="#FFB6B6"/>
<path d="M148.14 148.445H145.286L144.776 145.76L143.472 148.445H135.903C135.54 148.445 135.187 148.33 134.894 148.115C134.602 147.901 134.386 147.599 134.278 147.254C134.17 146.909 134.176 146.538 134.294 146.196C134.413 145.854 134.637 145.559 134.936 145.354L140.98 141.193V138.478L147.338 138.856L148.14 148.445Z" fill="#2F2E41"/>
<path d="M169.681 136.567L166.488 138.934L155.809 127.783L160.522 124.289L169.681 136.567Z" fill="#FFB6B6"/>
<path d="M175.481 140.833L173.191 142.53L171.174 140.678L171.735 143.609L165.661 148.111C165.37 148.327 165.018 148.444 164.655 148.446C164.292 148.448 163.938 148.334 163.645 148.121C163.351 147.908 163.134 147.608 163.024 147.263C162.915 146.918 162.918 146.548 163.035 146.205L165.394 139.271L163.769 137.092L169.097 133.614L175.481 140.833Z" fill="#2F2E41"/>
<path d="M150.672 62.6328C150.672 62.6328 158.223 69.135 154.739 87.6713L150.486 105.834L164.356 128.77L159.934 134.133L141.902 109.307L135.368 94.0292L133.535 66.8376L150.672 62.6328Z" fill="#2F2E41"/>
<path d="M138.969 98.3828L138.515 105.393L139.905 135.268L146.445 134.133L147.695 112.863L138.969 98.3828Z" fill="#2F2E41"/>
<path d="M55.0467 145.17L58.6055 145.17L60.2984 131.487L55.0463 131.488L55.0467 145.17Z" fill="#FFB6B6"/>
<path d="M54.139 144.012L55.1407 144.012L59.0514 142.427L61.1474 144.012H61.1477C62.3322 144.012 63.4682 144.481 64.3058 145.316C65.1433 146.151 65.6139 147.283 65.614 148.464V148.608L54.1392 148.609L54.139 144.012Z" fill="#2F2E41"/>
<path d="M68.8376 142.934L72.3088 143.715L76.9838 130.741L71.8606 129.588L68.8376 142.934Z" fill="#FFB6B6"/>
<path d="M68.208 141.605L69.1851 141.825L73.35 141.138L75.0443 143.144L75.0446 143.144C76.2 143.404 77.2044 144.111 77.8369 145.109C78.4694 146.108 78.6782 147.316 78.4174 148.467L78.3854 148.608L67.1924 146.089L68.208 141.605Z" fill="#2F2E41"/>
<path d="M50.5396 61.5234C48.8711 66.5394 49.0475 71.9842 50.9406 77.8278L51.7499 110.729C51.7499 110.729 50.5441 132.305 54.4349 139.898H60.0777L62.8715 108.759L63.2223 87.8582L75.3197 105.491L67.6145 139.389L74.5594 140.007L87.0629 103.221L71.636 67.5316L50.5396 61.5234Z" fill="#2F2E41"/>
<path d="M115.613 47.2357C119.929 43.3589 126.349 41.4096 131.734 43.5835C126.21 46.6404 121.949 51.5464 119.704 57.4335C118.847 59.707 118.131 62.3246 116.022 63.5418C114.71 64.2992 113.078 64.3362 111.607 63.9706C110.136 63.605 108.788 62.872 107.458 62.1464L107.079 62.1379C108.778 56.5997 111.297 51.1125 115.613 47.2357Z" fill="#E6E6E6"/>
<path d="M131.703 43.7008C126.934 44.3152 122.48 46.4118 118.975 49.693C118.207 50.386 117.554 51.1952 117.04 52.0909C116.567 52.9795 116.341 53.9781 116.387 54.983C116.41 55.9209 116.543 56.8774 116.337 57.8046C116.225 58.2776 116.013 58.7216 115.716 59.1074C115.42 59.4933 115.045 59.8123 114.616 60.0435C113.562 60.6473 112.353 60.8376 111.165 60.9829C109.845 61.1441 108.472 61.2907 107.33 62.0285C107.191 62.1179 107.06 61.8986 107.198 61.8093C109.186 60.5257 111.701 60.9928 113.837 60.1361C114.835 59.7364 115.717 59.0347 116.029 57.9738C116.302 57.0461 116.166 56.0596 116.134 55.1102C116.076 54.1305 116.259 53.1515 116.667 52.2585C117.134 51.3397 117.755 50.5067 118.502 49.7954C120.159 48.1671 122.063 46.8087 124.143 45.7699C126.511 44.5712 129.067 43.7851 131.701 43.4456C131.864 43.4246 131.865 43.68 131.703 43.7008Z" fill="white"/>
<path d="M120.041 48.5703C119.569 47.9093 119.347 47.1024 119.417 46.2937C119.486 45.485 119.841 44.7273 120.419 44.1557C120.537 44.0404 120.722 44.2168 120.604 44.3322C120.065 44.8635 119.734 45.5694 119.671 46.3226C119.608 47.0757 119.817 47.8265 120.261 48.4395C120.357 48.5728 120.137 48.7029 120.041 48.5703Z" fill="white"/>
<path d="M116.312 54.5094C117.951 54.7988 119.639 54.4619 121.04 53.5657C121.179 53.4768 121.31 53.6961 121.171 53.7849C119.712 54.7147 117.954 55.0618 116.249 54.7568C116.087 54.7277 116.15 54.4803 116.312 54.5094Z" fill="white"/>
<path d="M126.532 44.9096C126.661 45.2033 126.862 45.4605 127.116 45.6579C127.369 45.8553 127.668 45.9868 127.985 46.0406C128.148 46.0677 128.084 46.3151 127.923 46.2881C127.572 46.227 127.243 46.0814 126.962 45.8639C126.681 45.6464 126.458 45.3637 126.312 45.0405C126.296 45.0111 126.291 44.9767 126.3 44.9442C126.308 44.9117 126.328 44.8836 126.357 44.8655C126.386 44.8483 126.421 44.8433 126.453 44.8516C126.486 44.8598 126.515 44.8807 126.532 44.9096Z" fill="white"/>
<path d="M137.663 62.2787C137.561 62.2647 137.459 62.2507 137.355 62.2382C135.982 62.0564 134.595 61.9862 133.21 62.0283C133.103 62.0298 132.994 62.033 132.887 62.0376C129.551 62.1744 126.269 62.9274 123.208 64.2584C121.991 64.7891 120.816 65.4114 119.693 66.1199C118.143 67.0984 116.54 68.2823 114.807 68.6813C114.626 68.725 114.443 68.7575 114.259 68.7786L107.098 62.5981C107.089 62.576 107.078 62.5553 107.069 62.5331L106.772 62.2993C106.827 62.2588 106.885 62.2179 106.941 62.1773C106.973 62.1536 107.006 62.1313 107.038 62.1077C107.06 62.0923 107.082 62.077 107.101 62.062C107.108 62.0568 107.115 62.0518 107.121 62.0482C107.14 62.0332 107.159 62.0211 107.177 62.0077C107.502 61.7782 107.829 61.5506 108.158 61.3249C108.16 61.3233 108.16 61.3233 108.163 61.323C110.657 59.5792 113.349 58.1365 116.184 57.025C116.269 56.993 116.356 56.9592 116.444 56.93C117.721 56.4569 119.034 56.0885 120.371 55.8286C121.104 55.6886 121.843 55.5857 122.586 55.5202C124.506 55.3548 126.44 55.4914 128.317 55.925C132.06 56.79 135.483 58.8385 137.511 62.0331C137.563 62.1149 137.613 62.1954 137.663 62.2787Z" fill="#E6E6E6"/>
<path d="M137.569 62.3556C133.389 59.9839 128.567 58.9851 123.786 59.5009C122.755 59.5938 121.745 59.8481 120.793 60.2544C119.878 60.6802 119.095 61.3422 118.524 62.1717C117.977 62.9345 117.505 63.778 116.78 64.3947C116.405 64.7049 115.968 64.9325 115.498 65.0626C115.028 65.1927 114.536 65.2222 114.054 65.1494C112.848 64.999 111.768 64.4257 110.731 63.8284C109.58 63.1652 108.395 62.4581 107.037 62.3617C106.873 62.35 106.901 62.0963 107.065 62.1079C109.427 62.2757 111.153 64.1578 113.376 64.7563C114.414 65.0355 115.542 65.0047 116.432 64.3451C117.211 63.7683 117.698 62.8989 118.246 62.1218C118.791 61.3044 119.528 60.6325 120.394 60.1647C121.322 59.7114 122.321 59.4187 123.347 59.2993C125.654 58.9937 127.994 59.0516 130.283 59.4707C132.897 59.9346 135.413 60.8409 137.721 62.1504C137.864 62.2315 137.71 62.4362 137.569 62.3556Z" fill="white"/>
<path d="M125.316 59.2443C125.338 58.433 125.648 57.6559 126.192 57.0518C126.736 56.4478 127.477 56.056 128.284 55.9466C128.447 55.925 128.489 56.177 128.325 56.1986C127.574 56.2991 126.883 56.6641 126.378 57.2276C125.873 57.7912 125.586 58.5162 125.57 59.2718C125.566 59.436 125.312 59.4076 125.316 59.2443Z" fill="white"/>
<path d="M118.751 61.7487C119.885 62.9634 121.436 63.7075 123.096 63.8327C123.26 63.8449 123.233 64.0987 123.068 64.0864C121.341 63.953 119.729 63.1754 118.552 61.9087C118.439 61.7879 118.64 61.6286 118.751 61.7487Z" fill="white"/>
<path d="M132.71 60.2172C132.636 60.5293 132.64 60.8549 132.724 61.1648C132.807 61.4746 132.966 61.759 133.187 61.9924C133.3 62.1117 133.1 62.2709 132.987 62.1524C132.745 61.8934 132.569 61.5791 132.476 61.237C132.384 60.8949 132.376 60.5353 132.455 60.1897C132.46 60.1565 132.477 60.1263 132.503 60.1053C132.529 60.0843 132.563 60.074 132.596 60.0766C132.63 60.0804 132.661 60.0973 132.682 60.1236C132.703 60.1499 132.713 60.1835 132.71 60.2172Z" fill="white"/>
<path d="M11.8866 144.921C11.5505 146.178 10.6672 147.225 9.6008 147.988C9.42693 148.113 9.24842 148.228 9.0676 148.337C9.01196 148.369 8.95631 148.404 8.89836 148.434C8.83576 148.471 8.77317 148.505 8.71058 148.538H3.6961C3.60569 148.355 3.5176 148.17 3.4295 147.988C1.28044 143.486 -0.228766 138.629 0.0285651 133.681C0.130658 131.762 0.535125 129.871 1.22712 128.077C2.60419 124.503 5.11722 121.408 8.5738 119.851C8.65957 119.812 8.74999 119.772 8.83808 119.735C8.81026 119.835 8.78244 119.932 8.75462 120.031C8.38379 121.363 8.12174 122.722 7.97104 124.096C7.95713 124.202 7.94554 124.309 7.93627 124.417C7.60691 127.73 7.89937 131.076 8.79867 134.282C8.80099 134.289 8.8033 134.298 8.80563 134.305C9.00269 135.015 9.23143 135.713 9.49184 136.401C9.69585 136.944 9.91609 137.48 10.1572 138.007C11.1633 140.219 12.5126 142.576 11.8866 144.921Z" fill="#E6E6E6"/>
<path d="M8.90068 119.84C8.852 119.905 8.8033 119.967 8.75463 120.032C7.73639 121.377 6.87174 122.831 6.17669 124.367C6.1396 124.443 6.10482 124.519 6.07468 124.598C5.12232 126.743 4.5107 129.022 4.26178 131.355C4.25908 131.371 4.25753 131.387 4.25714 131.403C4.19918 131.949 4.16441 132.499 4.1505 133.049C4.09895 134.079 4.21083 135.112 4.48201 136.108C4.72928 136.922 5.16258 137.667 5.7478 138.285C5.80576 138.347 5.86372 138.41 5.92631 138.47C5.97268 138.518 6.02368 138.567 6.07236 138.613C6.54066 139.059 7.053 139.473 7.49348 139.951C7.69537 140.166 7.87769 140.398 8.03828 140.644C8.29457 141.058 8.46013 141.521 8.52406 142.003C8.58799 142.485 8.54884 142.975 8.4092 143.44C8.09392 144.61 7.37293 145.596 6.63571 146.537C6.2671 147.008 5.8869 147.484 5.5577 147.988C5.43716 148.168 5.32587 148.351 5.22388 148.538H4.93178C5.02914 148.351 5.13579 148.168 5.2517 147.988C6.09788 146.659 7.30107 145.518 7.9247 144.055C8.34662 143.068 8.47413 141.95 7.94093 140.982C7.78465 140.7 7.59556 140.438 7.37758 140.201C6.95333 139.722 6.44562 139.313 5.98428 138.881C5.86837 138.773 5.75477 138.662 5.64581 138.546C5.06814 137.961 4.62237 137.26 4.33829 136.489C4.01658 135.511 3.86449 134.485 3.88854 133.455C3.88854 132.799 3.92332 132.138 3.98823 131.482C3.99519 131.399 4.00446 131.313 4.01373 131.228C4.48783 127.098 6.06236 123.17 8.57382 119.851C8.62018 119.787 8.66887 119.724 8.71755 119.662C8.81723 119.532 9.00037 119.713 8.90068 119.84Z" fill="white"/>
<path d="M4.10729 131.504C3.30431 131.369 2.5754 130.955 2.05076 130.334C1.52612 129.713 1.23991 128.927 1.24322 128.115C1.24367 128.082 1.25698 128.051 1.28036 128.027C1.30374 128.004 1.33536 127.99 1.36855 127.989C1.40175 127.989 1.43393 128.001 1.45832 128.023C1.48271 128.046 1.4974 128.077 1.49929 128.11C1.4948 128.865 1.76149 129.598 2.25122 130.175C2.74095 130.752 3.42146 131.135 4.16993 131.256C4.33255 131.283 4.26898 131.53 4.10729 131.504Z" fill="white"/>
<path d="M5.68345 138.332C7.04767 137.381 8.00237 135.953 8.35717 134.332C8.39219 134.171 8.64043 134.234 8.60546 134.394C8.23309 136.081 7.23655 137.565 5.81472 138.551C5.67914 138.645 5.5486 138.425 5.68345 138.332Z" fill="white"/>
<path d="M6.09999 124.339C6.3998 124.455 6.72397 124.496 7.04337 124.457C7.36277 124.418 7.66741 124.3 7.92992 124.114C8.06424 124.019 8.19464 124.239 8.06119 124.334C7.7702 124.537 7.4336 124.667 7.0808 124.711C6.72801 124.755 6.36976 124.712 6.03734 124.586C6.00501 124.577 5.97742 124.556 5.96018 124.527C5.94294 124.498 5.93734 124.464 5.94452 124.431C5.95298 124.399 5.97406 124.371 6.00317 124.353C6.03228 124.336 6.06707 124.331 6.09999 124.339Z" fill="white"/>
<path d="M26.2925 128.775C26.2114 128.838 26.1279 128.9 26.0468 128.965C24.9461 129.804 23.9157 130.732 22.9658 131.738C22.8916 131.814 22.8174 131.893 22.7455 131.971L22.7432 131.974C20.4907 134.411 18.7097 137.242 17.4899 140.325L17.483 140.346C17.4807 140.353 17.4784 140.357 17.476 140.364C16.9925 141.598 16.6028 142.866 16.3099 144.159C16.0271 145.42 15.7953 146.772 15.3525 147.988C15.2852 148.175 15.2111 148.36 15.1322 148.538H4.8251C4.85988 148.355 4.89697 148.17 4.93406 147.988C5.45838 145.31 6.27784 142.698 7.37754 140.2C7.41464 140.117 7.45173 140.034 7.49346 139.951C8.06117 138.716 8.72872 137.53 9.48951 136.403L9.48968 136.402L9.49018 136.402L9.49094 136.401L9.49183 136.401C9.90959 135.786 10.3584 135.193 10.8364 134.624C12.0763 133.154 13.5409 131.887 15.1763 130.871C15.1856 130.864 15.1972 130.86 15.2064 130.853C18.4613 128.84 22.319 127.881 26.0074 128.711H26.0097C26.1047 128.731 26.1975 128.752 26.2925 128.775Z" fill="#E6E6E6"/>
<path d="M26.2809 128.897C26.2021 128.918 26.1233 128.941 26.0468 128.965C24.422 129.427 22.8538 130.068 21.3708 130.876C21.2966 130.915 21.2224 130.956 21.1482 130.998C19.0988 132.138 17.2384 133.587 15.633 135.294C15.6318 135.295 15.6309 135.297 15.6307 135.299C15.6121 135.317 15.5913 135.338 15.5751 135.356C15.2041 135.754 14.8471 136.167 14.5086 136.593C13.8466 137.385 13.3131 138.277 12.9276 139.234C12.633 140.032 12.529 140.887 12.6239 141.732C12.6308 141.817 12.6424 141.901 12.654 141.986C12.6633 142.053 12.6725 142.12 12.6841 142.189C12.8371 143.116 13.1014 144.045 13.0272 144.99C12.9821 145.474 12.8346 145.944 12.5945 146.367C12.3543 146.791 12.027 147.158 11.634 147.447C11.3668 147.653 11.0812 147.834 10.7808 147.987C10.3513 148.208 9.90385 148.392 9.44317 148.537H8.53207C8.65494 148.503 8.7755 148.468 8.89836 148.433C9.33438 148.311 9.76251 148.162 10.1804 147.987C10.4191 147.888 10.6514 147.774 10.8759 147.645C11.8078 147.112 12.5845 146.294 12.7467 145.2C12.8882 144.244 12.6146 143.287 12.4523 142.351C12.4245 142.189 12.399 142.03 12.3851 141.871C12.2744 141.06 12.3416 140.235 12.5821 139.453C12.9157 138.478 13.4144 137.567 14.0566 136.759C14.4538 136.233 14.8779 135.728 15.327 135.245C15.3826 135.183 15.4406 135.121 15.5009 135.058C17.14 133.339 19.0327 131.88 21.1135 130.73H21.1158C22.6629 129.871 24.3043 129.194 26.0074 128.71H26.0097C26.0862 128.687 26.165 128.664 26.2415 128.643C26.4015 128.602 26.4386 128.854 26.2809 128.897Z" fill="white"/>
<path d="M15.4092 135.334C14.8492 134.745 14.5176 133.976 14.4736 133.166C14.4296 132.355 14.6761 131.556 15.169 130.91C15.2691 130.779 15.4771 130.928 15.3768 131.059C14.9167 131.66 14.6872 132.405 14.7297 133.159C14.7723 133.914 15.084 134.628 15.6087 135.174C15.7225 135.293 15.5224 135.452 15.4092 135.334Z" fill="white"/>
<path d="M12.5436 141.731C14.207 141.791 15.8319 141.223 17.0942 140.142C17.2192 140.035 17.3796 140.234 17.2548 140.341C15.939 141.464 14.2469 142.051 12.516 141.985C12.3511 141.978 12.3795 141.725 12.5436 141.731Z" fill="white"/>
<path d="M21.3273 130.809C21.4963 131.082 21.7307 131.309 22.0094 131.469C22.2881 131.63 22.6024 131.719 22.9241 131.728C23.089 131.732 23.0604 131.986 22.8965 131.982C22.5411 131.97 22.1942 131.871 21.8858 131.695C21.5775 131.518 21.3173 131.269 21.1278 130.969C21.1076 130.942 21.0983 130.909 21.102 130.876C21.1056 130.842 21.1218 130.811 21.1473 130.79C21.1738 130.769 21.2076 130.759 21.2413 130.762C21.275 130.766 21.3059 130.783 21.3273 130.809Z" fill="white"/>
<path d="M105.803 40.0078C105.565 40.3198 105.261 40.5759 104.913 40.7583C104.565 40.9406 104.181 41.0446 103.789 41.0631C103.396 41.0816 103.004 41.014 102.64 40.8651C102.277 40.7162 101.95 40.4896 101.684 40.2014L92.9208 44.0004L93.7744 39.1242L101.965 36.2641C102.481 35.8503 103.131 35.6393 103.792 35.6711C104.453 35.703 105.079 35.9754 105.552 36.4369C106.025 36.8984 106.312 37.5167 106.358 38.1749C106.404 38.833 106.207 39.4852 105.803 40.0078Z" fill="#FFB8B8"/>
<path d="M99.955 41.5299L79.6009 50.5672L79.5572 50.5517L56.3587 42.3114C54.6308 41.4113 53.3134 39.8867 52.6763 38.0499C52.0392 36.2131 52.1307 34.203 52.9319 32.4313C53.376 31.4523 54.0231 30.5783 54.8306 29.8666C55.638 29.1549 56.5875 28.6218 57.6166 28.3023C58.6456 27.9828 59.7309 27.8841 60.801 28.0128C61.8711 28.1415 62.9017 28.4947 63.8249 29.049L81.0889 39.4152L97.8296 37.2526L99.955 41.5299Z" fill="#E6E6E6"/>
<path d="M200 148.725C200 148.761 199.993 148.797 199.979 148.831C199.965 148.864 199.945 148.894 199.919 148.92C199.894 148.945 199.863 148.966 199.83 148.979C199.796 148.993 199.76 149 199.724 149H0.283595C0.210428 149 0.14026 148.971 0.0885231 148.92C0.0367861 148.868 0.00772095 148.798 0.00772095 148.725C0.00772095 148.652 0.0367861 148.582 0.0885231 148.531C0.14026 148.479 0.210428 148.45 0.283595 148.45H199.724C199.76 148.45 199.796 148.457 199.83 148.471C199.863 148.485 199.894 148.505 199.919 148.531C199.945 148.556 199.965 148.586 199.979 148.62C199.993 148.653 200 148.689 200 148.725Z" fill="#CCCCCC"/>
<path d="M72.6423 68.585L52.124 65.3136C51.5859 65.1418 51.0914 64.8559 50.6746 64.4757C50.2577 64.0954 49.9284 63.6297 49.7091 63.1106C49.4898 62.5915 49.3859 62.0313 49.4043 61.4683C49.4228 60.9054 49.5632 60.3531 49.816 59.8493L50.7465 57.9941L50.3851 38.5029C50.3415 35.9676 50.9685 33.4655 52.2031 31.2484C53.4377 29.0314 55.2363 27.1775 57.4179 25.8733L59.4188 24.6807L60.43 22.1211L69.7542 22.3478L69.7814 25.7048L73.1206 31.0124L73.1205 31.0344L72.911 59.9232L71.9907 62.9045L73.3822 66.3721L72.6423 68.585Z" fill="#E6E6E6"/>
<path d="M65.946 18.9384C70.625 18.9384 74.418 15.1575 74.418 10.4936C74.418 5.82968 70.625 2.04883 65.946 2.04883C61.267 2.04883 57.474 5.82968 57.474 10.4936C57.474 15.1575 61.267 18.9384 65.946 18.9384Z" fill="#FFB8B8"/>
<path d="M57.124 12.3342C56.8714 11.2731 56.9874 9.77992 57.1302 8.7115C57.5045 5.91046 59.0651 3.24757 61.436 1.67025C61.8856 1.3299 62.4198 1.11829 62.9811 1.05823C63.5419 1.03489 64.1499 1.33418 64.3221 1.86679C64.4634 1.51527 64.6755 1.19634 64.9452 0.929693C65.215 0.663045 65.5367 0.454335 65.8905 0.316446C66.6013 0.0450044 67.3658 -0.0576485 68.1232 0.0166246C69.5915 0.13726 70.9996 0.651867 72.1981 1.50583C73.3966 2.3598 74.3408 3.52126 74.9305 4.86696C75.1567 5.4028 75.7888 3.42356 76.0755 3.92985C76.339 4.45611 76.7986 4.85868 77.3561 5.0514C77.9179 5.20766 78.1461 7.51484 78.3672 6.97685C78.5387 7.37444 78.6065 7.80883 78.5643 8.23958C78.522 8.67032 78.3711 9.08341 78.1256 9.44036C77.88 9.79731 77.5479 10.0865 77.16 10.2811C76.7721 10.4756 76.3412 10.5691 75.9073 10.5529C75.3355 10.5316 74.7888 10.322 74.2238 10.2317C72.2034 9.90904 70.0601 11.3694 69.6282 13.3631C69.4735 12.7865 69.2265 12.2386 68.8966 11.7406C68.7292 11.4929 68.5048 11.2886 68.2421 11.1448C67.9795 11.001 67.6862 10.9217 67.3867 10.9136C66.8118 10.9351 66.3066 11.3097 65.9336 11.7462C65.5606 12.1828 65.2805 12.6921 64.9048 13.1262C63.8023 14.4002 62.3112 17.3712 60.74 17.1545C59.5002 16.9835 57.4691 13.783 57.124 12.3342Z" fill="#2F2E41"/>
<path d="M117.158 49.5768C117.218 49.1918 117.138 48.7983 116.934 48.4661C116.73 48.1339 116.415 47.8844 116.044 47.7619L93.2288 40.1877C93.01 40.1147 92.7784 40.0882 92.5488 40.1098L86.8303 40.6489L83.549 40.9591L77.494 41.5295C77.1284 41.5644 76.7847 41.7192 76.5169 41.9697C76.2491 42.2202 76.0722 42.5522 76.0141 42.9136L72.9397 62.0561C72.8815 62.4295 72.9528 62.8115 73.1418 63.139C73.3308 63.4666 73.6263 63.72 73.9793 63.8576L97.0325 72.7277C97.1407 72.7696 97.2531 72.7997 97.3678 72.8174C97.5348 72.8444 97.7049 72.8457 97.8722 72.8212L112.769 70.6205C113.12 70.5698 113.445 70.4076 113.697 70.1578C113.949 69.9081 114.113 69.5842 114.165 69.2342L117.158 49.5768Z" fill="white"/>
<path d="M74.5019 62.5091L97.555 71.3786C97.5886 71.3919 97.6252 71.3961 97.661 71.391L112.555 69.1906C112.599 69.1845 112.64 69.1643 112.672 69.133C112.704 69.1016 112.724 69.0609 112.73 69.0169L115.726 49.3593C115.732 49.3113 115.722 49.2624 115.697 49.221C115.671 49.1797 115.633 49.1483 115.587 49.1325L115.433 49.0807L92.7701 41.5599C92.7597 41.5562 92.7491 41.5537 92.7382 41.5522C92.7206 41.549 92.7027 41.5481 92.6849 41.5495L78.737 42.8651L77.6302 42.9686C77.5848 42.9734 77.5422 42.9929 77.509 43.0241C77.4757 43.0553 77.4536 43.0965 77.446 43.1414L74.3722 62.2831C74.3646 62.3299 74.3734 62.3778 74.397 62.4189C74.4206 62.46 74.4576 62.4918 74.5019 62.5091Z" fill="#FC5D00"/>
<path d="M78.7371 42.8651L92.6849 41.5495C92.7027 41.5481 92.7206 41.549 92.7382 41.5522C92.7491 41.5537 92.7598 41.5562 92.7701 41.5599L115.433 49.0807L109.455 49.7115L107.218 49.9464L100.852 50.6169C100.833 50.6178 100.814 50.6176 100.796 50.6162C100.785 50.6128 100.773 50.6094 100.76 50.6058L78.7371 42.8651Z" fill="#2F2E41"/>
<path d="M73.9789 63.859L97.032 72.7285C97.1405 72.7702 97.2533 72.7996 97.3683 72.8163C97.5353 72.8438 97.7055 72.8459 97.8731 72.8226L112.767 70.6221C113.119 70.5711 113.445 70.4086 113.696 70.1588C113.948 69.9089 114.112 69.5849 114.165 69.2347L117.158 49.5769C117.202 49.2871 117.169 48.9908 117.061 48.718C117.046 48.6818 117.031 48.6455 117.013 48.6113C116.894 48.3623 116.714 48.1477 116.488 47.988C116.352 47.8908 116.203 47.8147 116.044 47.7623L116.017 47.7527L93.23 40.1876C93.1369 40.158 93.0418 40.135 92.9455 40.1187C92.8138 40.1001 92.6803 40.0975 92.548 40.111L86.8304 40.6482L83.5494 40.9602L77.4933 41.5302C77.2455 41.5532 77.0063 41.632 76.7935 41.7607C76.7771 41.7686 76.7614 41.778 76.7466 41.7887C76.736 41.7955 76.726 41.8031 76.7165 41.8114C76.5307 41.9378 76.3726 42.1006 76.252 42.2898C76.1314 42.4791 76.0506 42.6908 76.0148 42.9122L72.9384 62.056C72.8803 62.4297 72.9517 62.8119 73.1408 63.1397C73.33 63.4675 73.6256 63.7212 73.9789 63.859ZM76.4229 42.9789C76.4603 42.7494 76.5624 42.5353 76.7173 42.3616C76.7642 42.3057 76.8167 42.2547 76.8739 42.2094C77.0303 42.0833 77.2153 41.9973 77.4126 41.9589C77.4516 41.9509 77.491 41.9453 77.5307 41.9423L87.7276 40.9821L92.5879 40.5211C92.6208 40.5172 92.651 40.5178 92.6815 40.5161C92.7551 40.5145 92.8286 40.52 92.9012 40.5323C92.9679 40.541 93.0335 40.5565 93.097 40.5788L115.911 48.1535C115.929 48.1599 115.945 48.166 115.963 48.1724C116.17 48.2493 116.352 48.3815 116.49 48.5545C116.598 48.687 116.677 48.8408 116.722 49.0058C116.767 49.1709 116.776 49.3435 116.749 49.5125L113.754 69.1724C113.715 69.4346 113.592 69.6772 113.404 69.8645C113.216 70.0518 112.972 70.1739 112.709 70.2126L97.8122 72.4128C97.5991 72.4433 97.3817 72.4186 97.181 72.3411L74.1276 63.4739C73.8634 63.3701 73.6424 63.1798 73.5009 62.9344C73.3594 62.6889 73.3058 62.4028 73.3489 62.1229L76.4229 42.9789Z" fill="#3F3D56"/>
<path d="M76.6669 41.916C76.6791 41.8812 76.7005 41.8503 76.729 41.8267C76.7385 41.8192 76.7484 41.8124 76.7589 41.8064C76.7686 41.8026 76.7785 41.7966 76.7881 41.7929C76.8344 41.7744 76.8859 41.7735 76.9328 41.7904L77.4126 41.9592L100.854 50.2018L106.341 49.624L109.411 49.3012L115.909 48.6155L116.49 48.5548L116.603 48.5423C116.651 48.5379 116.7 48.5506 116.74 48.5781C116.781 48.6057 116.81 48.6465 116.823 48.6934C116.827 48.7042 116.829 48.7152 116.83 48.7264C116.834 48.7709 116.824 48.8158 116.801 48.8542C116.778 48.8926 116.744 48.9225 116.702 48.9395C116.684 48.9471 116.664 48.9523 116.645 48.9549L115.854 49.0375L109.455 49.7117L107.218 49.9467L100.852 50.6171C100.833 50.618 100.814 50.6178 100.796 50.6164C100.785 50.613 100.773 50.6096 100.76 50.606L76.8739 42.2096L76.7928 42.181C76.7743 42.1749 76.757 42.1654 76.742 42.153C76.7058 42.1265 76.6791 42.0893 76.6656 42.0467C76.6521 42.0041 76.6525 41.9583 76.6669 41.916Z" fill="#3F3D56"/>
<path d="M97.4311 72.8769C97.3772 72.8683 97.3288 72.8388 97.2966 72.7948C97.2644 72.7509 97.2508 72.696 97.259 72.6421L100.624 50.3808C100.633 50.3267 100.662 50.278 100.706 50.2454C100.75 50.2129 100.806 50.1992 100.86 50.2074L100.862 50.2077C100.916 50.2163 100.964 50.2458 100.997 50.2897C101.029 50.3337 101.042 50.3886 101.034 50.4424L97.6687 72.7037C97.6605 72.7579 97.6311 72.8066 97.5869 72.8391C97.5427 72.8716 97.4873 72.8853 97.433 72.8772L97.4311 72.8769Z" fill="#3F3D56"/>
<path d="M105.962 71.4645L103.723 71.6999L106.342 49.6234C106.342 49.6234 109.331 49.0839 109.411 49.3002C109.46 49.4294 105.983 71.3229 105.962 71.4645Z" fill="#3F3D56"/>
<path d="M76.7935 42.1807L76.7332 52.2483L94.6133 59.0394L101.034 50.4422L76.7935 42.1807Z" fill="#3F3D56"/>
<path d="M116.49 48.5548C116.341 48.3676 116.14 48.2281 115.912 48.1535L93.0981 40.5791C93.0341 40.5576 92.9683 40.5416 92.9015 40.5313C92.8288 40.5189 92.755 40.5134 92.6812 40.5149L92.7182 40.2844L92.9465 40.1196L98.364 36.21L116.456 41.7368L116.487 47.988L116.49 48.5548Z" fill="#3F3D56"/>
<path d="M77.7047 58.3424C77.7304 58.3448 77.7558 58.3501 77.7803 58.3582L84.7801 60.6498C84.8677 60.6785 84.9403 60.7407 84.982 60.8227C85.0236 60.9048 85.0308 60.9999 85.0021 61.0873C84.9733 61.1746 84.9109 61.247 84.8286 61.2885C84.7463 61.33 84.6508 61.3372 84.5632 61.3086L77.5634 59.0169C77.4822 58.9903 77.4136 58.9348 77.3708 58.8609C77.328 58.7871 77.314 58.7001 77.3315 58.6167C77.349 58.5332 77.3967 58.4591 77.4656 58.4085C77.5344 58.3579 77.6196 58.3343 77.7047 58.3424Z" fill="white"/>
<path d="M105.947 100.576C107.483 100.576 108.729 99.3348 108.729 97.8033C108.729 96.2718 107.483 95.0303 105.947 95.0303C104.41 95.0303 103.165 96.2718 103.165 97.8033C103.165 99.3348 104.41 100.576 105.947 100.576Z" fill="#F2F2F2"/>
<path d="M35.007 110.744C36.5434 110.744 37.7889 109.503 37.7889 107.971C37.7889 106.44 36.5434 105.198 35.007 105.198C33.4706 105.198 32.225 106.44 32.225 107.971C32.225 109.503 33.4706 110.744 35.007 110.744Z" fill="#F2F2F2"/>
<path d="M92.9644 19.0031C94.5008 19.0031 95.7463 17.7615 95.7463 16.23C95.7463 14.6986 94.5008 13.457 92.9644 13.457C91.4279 13.457 90.1824 14.6986 90.1824 16.23C90.1824 17.7615 91.4279 19.0031 92.9644 19.0031Z" fill="#F2F2F2"/>
<path d="M97.5287 62.4208C97.1682 62.577 96.7777 62.6524 96.3847 62.6418C95.9917 62.6313 95.6058 62.5349 95.2542 62.3596C94.9026 62.1843 94.5939 61.9343 94.3497 61.6272C94.1055 61.3201 93.9319 60.9633 93.841 60.5821L84.3332 59.6246L87.4699 55.7871L96.0178 57.2847C96.6704 57.1749 97.3408 57.3077 97.9018 57.6577C98.4629 58.0077 98.8757 58.5507 99.0619 59.1838C99.2482 59.8169 99.195 60.4961 98.9124 61.0927C98.6298 61.6893 98.1375 62.1619 97.5287 62.4208Z" fill="#FFB8B8"/>
<path d="M91.6808 60.8989L69.4928 58.8611L69.4623 58.8263L53.2689 40.331C52.2032 38.7036 51.8019 36.7316 52.1473 34.8189C52.4926 32.9061 53.5585 31.1973 55.1266 30.0424C55.9942 29.4049 56.9874 28.9579 58.0409 28.7307C59.0943 28.5035 60.1841 28.5012 61.2385 28.7241C62.2929 28.947 63.288 29.3899 64.1582 30.0237C65.0285 30.6576 65.7542 31.4679 66.2877 32.4015L76.2615 49.8587L91.9252 56.1319L91.6808 60.8989Z" fill="#E6E6E6"/>
<path d="M147.372 25.3303C146.821 21.3016 146.13 16.9762 143.279 14.068C142.374 13.1452 141.292 12.4145 140.096 11.9201C138.901 11.4256 137.617 11.1776 136.323 11.1909C135.029 11.2043 133.751 11.4788 132.566 11.9978C131.381 12.5168 130.314 13.2696 129.429 14.2108C127.354 16.4174 126.437 19.5158 126.353 22.5391C126.269 25.5624 126.945 28.5521 127.694 31.4829C131.66 31.5618 135.596 30.7895 139.236 29.2184C140.146 28.8246 141.042 28.3794 142.003 28.1354C142.965 27.8915 143.65 28.5054 144.545 28.9335L145.036 27.9963C145.438 28.7419 146.683 28.5209 147.134 27.804C147.585 27.0871 147.486 26.169 147.372 25.3303Z" fill="#2F2E41"/>
<path d="M131.652 47.8172L115.453 48.1625C115.204 47.7338 114.836 47.3865 114.393 47.1627C113.949 46.939 113.45 46.8484 112.957 46.9021C112.463 46.9558 111.995 47.1514 111.611 47.4652C111.226 47.7789 110.942 48.1972 110.792 48.6693C110.641 49.1413 110.632 49.6466 110.765 50.1238C110.897 50.6011 111.166 51.0295 111.539 51.3572C111.912 51.6848 112.372 51.8974 112.863 51.9692C113.355 52.0409 113.857 51.9687 114.308 51.7614C116.456 51.8831 133.265 54.2611 134.268 52.7286C135.285 51.1731 140.718 45.6837 140.718 45.6837L136.542 39.7578L131.652 47.8172Z" fill="#FFB6B6"/>
<path d="M135.6 29.3166C139.803 29.3166 143.211 25.92 143.211 21.7301C143.211 17.5402 139.803 14.1436 135.6 14.1436C131.396 14.1436 127.989 17.5402 127.989 21.7301C127.989 25.92 131.396 29.3166 135.6 29.3166Z" fill="#FFB6B6"/>
<path d="M147.79 36.3271C146.893 34.5478 146.457 32.3497 144.545 31.7728C143.254 31.3833 138.031 31.9671 136.854 32.6246C134.897 33.7183 136.671 35.7679 135.516 37.6858C134.261 39.7708 130.849 43.9551 129.593 46.0401C128.73 47.4735 131.637 51.6807 131.171 53.2864C130.704 54.8921 130.682 56.6943 131.477 58.1663C132.188 59.4838 131.159 60.6493 131.874 61.9646C132.618 63.3326 133.532 68.4472 132.839 69.8418L132.375 71.2283C136.976 71.4978 140.845 66.0187 145.418 65.4415C146.553 65.2982 147.733 65.1109 148.668 64.4538C150.047 63.4859 150.592 61.7295 150.933 60.0833C152.572 52.0368 151.466 43.675 147.79 36.3271Z" fill="#3F3D56"/>
<path d="M154.688 55.1148C154.047 53.3711 152.887 45.7474 152.887 45.7474L145.625 45.5352L149.175 54.2637L139.487 67.7828C139.487 67.7828 139.505 67.8125 139.538 67.8654C139.028 67.784 138.506 67.8577 138.04 68.0769C137.573 68.2961 137.184 68.6507 136.922 69.0941C136.661 69.5376 136.54 70.0493 136.576 70.5623C136.611 71.0753 136.801 71.5658 137.121 71.9694C137.44 72.3731 137.875 72.6711 138.367 72.8246C138.859 72.9781 139.387 72.9799 139.88 72.8297C140.374 72.6795 140.81 72.3844 141.132 71.9829C141.455 71.5814 141.648 71.0923 141.687 70.5795C141.722 70.5999 141.764 70.6072 141.805 70.6003C141.845 70.5934 141.882 70.5726 141.909 70.5415C142.987 69.193 155.329 56.8585 154.688 55.1148Z" fill="#FFB6B6"/>
<path d="M155.426 50.2998C154.76 47.4956 154.088 44.6762 152.965 42.021C151.841 39.3658 150.232 36.8579 147.969 35.0641C147.246 34.4906 146.437 33.9844 145.53 33.8061C144.624 33.6278 143.602 33.8274 142.965 34.4951C141.946 35.5635 142.252 37.2785 142.626 38.7049C143.728 42.9107 144.83 47.1166 145.933 51.3224C149.116 50.9861 152.298 50.6498 155.481 50.3135L155.426 50.2998Z" fill="#3F3D56"/>
<path d="M144.926 22.7823C144.645 20.947 144.352 19.0964 143.694 17.3683C143.036 15.6402 141.974 14.0216 140.452 13.0427C138.041 11.4928 134.92 11.7917 132.217 12.6832C130.127 13.3727 128.086 14.4207 126.612 16.1054C125.138 17.7902 124.31 20.1942 124.858 22.3971C127.742 21.7181 130.625 21.0391 133.508 20.3601L133.192 20.5824C134.139 21.0529 134.966 21.7323 135.609 22.5688C136.253 23.4053 136.698 24.3771 136.909 25.4104C137.115 26.4562 137.085 27.5346 136.822 28.5676C136.559 29.6007 136.068 30.5624 135.387 31.3834C137.353 30.6881 139.319 29.9928 141.285 29.2976C142.499 28.8684 143.798 28.3739 144.518 27.2732C145.352 25.9969 145.158 24.3053 144.926 22.7823Z" fill="#2F2E41"/>
</g>
<defs>
<clipPath id="clip0_1026_5451">
<rect width="200" height="149" fill="white"/>
</clipPath>
</defs>
</svg>
