<svg width="200" height="212" viewBox="0 0 200 212" fill="none" xmlns="http://www.w3.org/2000/svg">
<g clip-path="url(#clip0_1026_5253)">
<path d="M32.9527 88.2229L40.9027 90.8322V79.4062H33.692L32.9527 88.2229Z" fill="#FFB8B8"/>
<path d="M39.9186 82.5676C44.2923 82.5676 47.8378 79.0261 47.8378 74.6573C47.8378 70.2886 44.2923 66.7471 39.9186 66.7471C35.545 66.7471 31.9994 70.2886 31.9994 74.6573C31.9994 79.0261 35.545 82.5676 39.9186 82.5676Z" fill="#FFB8B8"/>
<path d="M37.9021 75.2768L38.9929 76.6016L40.9666 73.15C40.9666 73.15 43.4865 73.2825 43.4865 71.4106C43.4865 69.5387 45.7993 69.491 45.7993 69.491C45.7993 69.491 49.0747 63.7809 42.2918 65.2856C42.2918 65.2856 37.5896 62.0659 35.2493 64.8188C35.2493 64.8188 28.0786 68.4261 30.1317 74.7067L33.5413 81.1795L34.3143 79.7146C34.3143 79.7146 33.8472 73.5618 37.9021 75.2768Z" fill="#090814"/>
<path d="M37.1689 196.484H30.7712V205.551H37.1689V196.484Z" fill="#FFB8B8"/>
<path d="M43.4011 211.039C44.0733 211.039 44.6722 211.023 45.1253 210.981C46.8229 210.825 48.4463 209.571 49.2633 208.838C49.4417 208.678 49.5657 208.466 49.6183 208.232C49.6709 207.998 49.6493 207.753 49.5567 207.532C49.4899 207.372 49.3879 207.23 49.2583 207.115C49.1287 207 48.9748 206.917 48.8081 206.87L44.3168 205.588L37.0451 200.686L36.9626 200.833C36.5665 201.536 36.2371 202.275 35.9787 203.039C35.9307 203.172 35.9121 203.315 35.9242 203.456C35.9364 203.597 35.9789 203.734 36.049 203.857C36.132 203.981 36.2486 204.078 36.3851 204.138C36.2525 204.275 35.8413 204.556 34.5702 204.757C32.7156 205.05 32.3246 203.131 32.3092 203.051L32.297 202.987L32.2421 202.951C31.3591 202.383 30.8153 202.124 30.6288 202.179C30.5126 202.212 30.3171 202.273 29.7885 207.501C29.5323 208.315 29.4737 209.177 29.6174 210.018C29.8893 211.269 35.3644 210.839 36.461 210.741C36.4915 210.745 40.5918 211.037 43.3995 211.037L43.4011 211.039Z" fill="#090814"/>
<path d="M11.4334 189.883L16.366 193.954L22.1483 186.963L17.2156 182.893L11.4334 189.883Z" fill="#FFB8B8"/>
<path d="M17.661 202.136C18.1804 202.564 18.6509 202.933 19.0236 203.189C20.4321 204.151 22.4823 204.218 23.5759 204.172C23.8161 204.162 24.0472 204.077 24.2372 203.93C24.4272 203.783 24.5669 203.58 24.6369 203.351C24.6871 203.185 24.6994 203.01 24.673 202.839C24.6466 202.668 24.582 202.505 24.4842 202.362L21.8414 198.513L19.3666 190.109L19.2109 190.17C18.4569 190.46 17.7317 190.819 17.0445 191.244C16.9226 191.316 16.8178 191.414 16.7371 191.53C16.6564 191.646 16.6019 191.779 16.5772 191.918C16.5613 192.067 16.589 192.218 16.6567 192.352C16.4673 192.373 15.9724 192.327 14.8633 191.674C13.2471 190.722 14.1697 188.992 14.2127 188.919L14.2432 188.861L14.2249 188.8C13.9066 187.799 13.6535 187.256 13.4734 187.179C13.3604 187.131 13.1739 187.051 9.43116 190.747C8.71317 191.209 8.11694 191.837 7.69268 192.578C7.10302 193.717 11.5972 196.872 12.5047 197.491C12.5262 197.513 15.4989 200.348 17.662 202.136H17.661Z" fill="#090814"/>
<path d="M47.7495 126.563H25.8033L30.6795 199.023H37.9939L47.7463 126.563L47.7495 126.563Z" fill="#090814"/>
<path d="M43.2794 130.555L47.7492 126.563L45.5157 166.414L20.5204 190.161L14.2869 185.019L28.8516 166.143L43.2794 130.555Z" fill="#090814"/>
<path d="M43.2797 83.9382L32.4424 82.1802L29.0755 88.058C24.7978 95.5309 23.0531 104.185 24.1014 112.729L25.8033 126.563H47.7495L43.2797 83.9382Z" fill="#FC5D00"/>
<path d="M65.4211 129.99C67.2421 131.367 67.9723 133.445 67.0527 134.635C66.1331 135.825 63.9089 135.676 62.0879 134.299C61.3513 133.76 60.7611 133.046 60.3709 132.221L52.7315 126.294L55.7329 122.669L62.9465 128.898C63.8504 129.054 64.7022 129.429 65.4275 129.99H65.4214L65.4211 129.99Z" fill="#FFB8B8"/>
<path d="M62.3813 127.153L47.8378 112.415L39.1518 95.7735C38.734 94.9725 38.1564 94.2654 37.4544 93.6961C36.7525 93.1268 35.9411 92.7072 35.0705 92.4633C34.1998 92.2194 33.2884 92.1563 32.3924 92.278C31.4964 92.3997 30.6349 92.7036 29.8611 93.1708C29.0873 93.6381 28.4175 94.2588 27.8932 94.9947C27.3689 95.7306 27.0012 96.566 26.8128 97.4494C26.6244 98.3327 26.6192 99.2453 26.7977 100.131C26.9761 101.016 27.3343 101.856 27.8503 102.597L40.3438 120.542L40.3621 120.569L59.4762 131.812L62.3786 127.149H62.3818L62.3813 127.153Z" fill="#FC5D00"/>
<path d="M191.933 50.1512H190.771V18.3853C190.771 13.5092 188.831 8.83285 185.38 5.38494C181.928 1.93702 177.246 0 172.365 0H104.99C100.108 0 95.4263 1.93702 91.9744 5.38494C88.5226 8.83285 86.5834 13.5092 86.5834 18.3853V192.652C86.5834 197.529 88.5226 202.205 91.9744 205.653C95.4263 209.101 100.108 211.038 104.99 211.038H172.365C177.246 211.038 181.928 209.101 185.38 205.653C188.831 202.205 190.771 197.529 190.771 192.652V72.7597H191.933V50.1512Z" fill="#090814"/>
<path d="M173.11 4.78418H164.317C164.721 5.77478 164.876 6.84956 164.767 7.91382C164.657 8.97808 164.288 9.99915 163.69 10.887C163.093 11.7749 162.286 12.5024 161.34 13.0053C160.395 13.5082 159.34 13.7712 158.269 13.771H119.668C118.597 13.7712 117.543 13.5082 116.597 13.0053C115.652 12.5024 114.845 11.7749 114.247 10.887C113.65 9.99915 113.28 8.97808 113.171 7.91382C113.061 6.84956 113.216 5.77478 113.62 4.78418H105.408C101.763 4.78418 98.2666 6.23073 95.6889 8.80561C93.1111 11.3805 91.6629 14.8728 91.6629 18.5142V192.526C91.6629 196.168 93.111 199.66 95.6887 202.235C98.2664 204.809 101.762 206.256 105.408 206.256H173.108C174.913 206.256 176.701 205.901 178.368 205.211C180.036 204.521 181.551 203.51 182.828 202.235C184.104 200.96 185.117 199.446 185.807 197.78C186.498 196.114 186.854 194.329 186.854 192.526V18.5142C186.854 14.8731 185.406 11.381 182.828 8.80619C180.251 6.23135 176.755 4.7846 173.11 4.78418Z" fill="white"/>
<path d="M154.116 86.5938H71.5243C70.7885 86.593 70.083 86.3006 69.5626 85.7808C69.0423 85.2611 68.7496 84.5564 68.7487 83.8213V71.7393C68.7496 71.0043 69.0423 70.2995 69.5626 69.7798C70.083 69.26 70.7885 68.9676 71.5243 68.9668H154.116C154.852 68.9676 155.557 69.26 156.078 69.7798C156.598 70.2995 156.891 71.0043 156.892 71.7393V83.8213C156.891 84.5564 156.598 85.2612 156.078 85.781C155.557 86.3008 154.852 86.5932 154.116 86.5941V86.5938Z" fill="#D6D6E3"/>
<path d="M146.091 84.7237H73.3971C72.6612 84.7229 71.9557 84.4305 71.4353 83.9107C70.915 83.391 70.6223 82.6863 70.6215 81.9512V73.6104C70.6223 72.8753 70.915 72.1706 71.4353 71.6509C71.9557 71.1311 72.6612 70.8387 73.3971 70.8379H152.244C152.979 70.8388 153.685 71.1312 154.205 71.6509C154.726 72.1707 155.018 72.8754 155.019 73.6104V75.8056C155.016 78.1699 154.075 80.4366 152.401 82.1085C150.727 83.7803 148.458 84.7209 146.091 84.7237Z" fill="white"/>
<path d="M121.016 76.9205H87.8207C87.6307 76.9205 87.4486 76.8451 87.3143 76.711C87.18 76.5768 87.1045 76.3949 87.1045 76.2051C87.1045 76.0154 87.18 75.8334 87.3143 75.6993C87.4486 75.5651 87.6307 75.4897 87.8207 75.4897H121.016C121.206 75.4897 121.388 75.5651 121.523 75.6993C121.657 75.8334 121.732 76.0154 121.732 76.2051C121.732 76.3949 121.657 76.5768 121.523 76.711C121.388 76.8451 121.206 76.9205 121.016 76.9205Z" fill="#FC5D00"/>
<path d="M137.82 79.8438H87.8189C87.6289 79.8438 87.4468 79.7685 87.3125 79.6343C87.1782 79.5002 87.1027 79.3182 87.1027 79.1285C87.1027 78.9387 87.1782 78.7568 87.3125 78.6226C87.4468 78.4885 87.6289 78.4131 87.8189 78.4131H137.82C138.01 78.4131 138.192 78.4885 138.326 78.6226C138.46 78.7568 138.536 78.9387 138.536 79.1285C138.536 79.3182 138.46 79.5002 138.326 79.6343C138.192 79.7685 138.01 79.8438 137.82 79.8438Z" fill="#D6D6E3"/>
<path d="M154.116 112.23H71.5243C70.7885 112.229 70.083 111.936 69.5626 111.417C69.0423 110.897 68.7496 110.192 68.7487 109.457V97.375C68.7496 96.64 69.0423 95.9353 69.5627 95.4156C70.083 94.8958 70.7885 94.6035 71.5243 94.6025H154.116C154.852 94.6034 155.557 94.8958 156.078 95.4155C156.598 95.9353 156.891 96.64 156.892 97.375V109.457C156.891 110.192 156.598 110.897 156.078 111.417C155.557 111.936 154.852 112.229 154.116 112.23Z" fill="#D6D6E3"/>
<path d="M146.091 110.359H73.3971C72.6612 110.359 71.9557 110.066 71.4353 109.546C70.915 109.027 70.6223 108.322 70.6215 107.587V99.2461C70.6223 98.5111 70.915 97.8064 71.4353 97.2866C71.9557 96.7669 72.6612 96.4745 73.3971 96.4736H152.244C152.979 96.4745 153.685 96.7669 154.205 97.2867C154.726 97.8064 155.018 98.5111 155.019 99.2461V101.441C155.016 103.806 154.075 106.072 152.401 107.744C150.727 109.416 148.458 110.357 146.091 110.359Z" fill="white"/>
<path d="M121.016 102.556H87.8207C87.6307 102.556 87.4486 102.481 87.3143 102.347C87.18 102.213 87.1045 102.031 87.1045 101.841C87.1045 101.651 87.18 101.469 87.3143 101.335C87.4486 101.201 87.6307 101.125 87.8207 101.125H121.016C121.206 101.125 121.388 101.201 121.523 101.335C121.657 101.469 121.732 101.651 121.732 101.841C121.732 102.031 121.657 102.213 121.523 102.347C121.388 102.481 121.206 102.556 121.016 102.556Z" fill="#FC5D00"/>
<path d="M137.82 105.48H87.8189C87.7248 105.48 87.6317 105.461 87.5448 105.425C87.4579 105.389 87.379 105.336 87.3125 105.27C87.246 105.204 87.1932 105.125 87.1572 105.038C87.1212 104.951 87.1027 104.858 87.1027 104.764C87.1027 104.67 87.1212 104.577 87.1572 104.49C87.1932 104.404 87.246 104.325 87.3125 104.258C87.379 104.192 87.4579 104.139 87.5448 104.103C87.6317 104.067 87.7248 104.049 87.8189 104.049H137.82C137.914 104.049 138.007 104.067 138.094 104.103C138.181 104.139 138.259 104.192 138.326 104.258C138.392 104.325 138.445 104.404 138.481 104.49C138.517 104.577 138.536 104.67 138.536 104.764C138.536 104.858 138.517 104.951 138.481 105.038C138.445 105.125 138.392 105.204 138.326 105.27C138.259 105.336 138.181 105.389 138.094 105.425C138.007 105.461 137.914 105.48 137.82 105.48Z" fill="#D6D6E3"/>
<path d="M154.116 137.865H71.5243C70.7885 137.864 70.083 137.572 69.5626 137.052C69.0423 136.532 68.7496 135.827 68.7487 135.092V123.01C68.7496 122.275 69.0423 121.571 69.5626 121.051C70.083 120.531 70.7885 120.239 71.5243 120.238H154.116C154.852 120.239 155.557 120.531 156.078 121.051C156.598 121.571 156.891 122.275 156.892 123.01V135.092C156.891 135.827 156.598 136.532 156.078 137.052C155.557 137.572 154.852 137.864 154.116 137.865Z" fill="#D6D6E3"/>
<path d="M146.091 135.995H73.3971C72.6612 135.994 71.9557 135.702 71.4353 135.182C70.915 134.662 70.6223 133.957 70.6215 133.222V124.881C70.6224 124.146 70.9151 123.442 71.4354 122.922C71.9558 122.402 72.6612 122.11 73.3971 122.109H152.244C152.979 122.11 153.685 122.402 154.205 122.922C154.726 123.442 155.018 124.146 155.019 124.881V127.077C155.016 129.441 154.075 131.708 152.401 133.379C150.727 135.051 148.458 135.992 146.091 135.995Z" fill="white"/>
<path d="M121.016 128.192H87.8207C87.7266 128.192 87.6335 128.173 87.5466 128.137C87.4597 128.101 87.3808 128.048 87.3143 127.982C87.2478 127.916 87.195 127.837 87.159 127.75C87.123 127.663 87.1045 127.57 87.1045 127.476C87.1045 127.382 87.123 127.289 87.159 127.202C87.195 127.116 87.2478 127.037 87.3143 126.97C87.3808 126.904 87.4597 126.851 87.5466 126.815C87.6335 126.779 87.7266 126.761 87.8207 126.761H121.016C121.11 126.761 121.203 126.779 121.29 126.815C121.377 126.851 121.456 126.904 121.523 126.97C121.589 127.037 121.642 127.116 121.678 127.202C121.714 127.289 121.732 127.382 121.732 127.476C121.732 127.57 121.714 127.663 121.678 127.75C121.642 127.837 121.589 127.916 121.523 127.982C121.456 128.048 121.377 128.101 121.29 128.137C121.203 128.173 121.11 128.192 121.016 128.192Z" fill="#FC5D00"/>
<path d="M137.82 131.115H87.8189C87.6289 131.115 87.4468 131.039 87.3125 130.905C87.1782 130.771 87.1027 130.589 87.1027 130.399C87.1027 130.21 87.1782 130.028 87.3125 129.894C87.4468 129.759 87.6289 129.684 87.8189 129.684H137.82C138.01 129.684 138.192 129.759 138.326 129.894C138.46 130.028 138.536 130.21 138.536 130.399C138.536 130.589 138.46 130.771 138.326 130.905C138.192 131.039 138.01 131.115 137.82 131.115Z" fill="#D6D6E3"/>
<path d="M150.229 47.4284H128.289C128.02 47.4284 127.757 47.3391 127.543 47.1746C127.33 47.01 127.176 46.7794 127.108 46.5187C127.039 46.258 127.059 45.9819 127.163 45.7335C127.268 45.4851 127.452 45.2783 127.687 45.1455C128.644 44.6045 129.161 43.6194 129.363 41.952L129.817 37.8552C129.909 36.0286 130.467 34.2557 131.437 32.7046C132.407 31.1535 133.758 29.8756 135.361 28.9922C135.701 26.9873 137.289 24.9648 139.27 24.9648C141.376 24.9648 142.817 27.1332 143.149 28.9877C144.764 29.88 146.122 31.1707 147.095 32.7367C148.068 34.3026 148.623 36.0915 148.707 37.9326L149.158 41.9639C149.359 43.6199 149.874 44.6047 150.831 45.1455C151.066 45.2783 151.25 45.4851 151.355 45.7335C151.46 45.9819 151.479 46.258 151.41 46.5187C151.342 46.7794 151.189 47.01 150.975 47.1746C150.761 47.3391 150.499 47.4284 150.229 47.4284ZM131.029 44.9868H147.489C147.083 44.1223 146.827 43.1954 146.73 42.2453L146.272 38.1244C146.212 36.5942 145.733 35.1097 144.888 33.8318C144.043 32.5539 142.865 31.5314 141.479 30.8752C141.27 30.7764 141.093 30.6202 140.969 30.4248C140.845 30.2294 140.78 30.0029 140.78 29.7717C140.78 28.7553 139.92 27.4075 139.271 27.4075C138.617 27.4075 137.751 28.7368 137.739 29.7508C137.743 29.9899 137.677 30.2249 137.548 30.4267C137.42 30.6284 137.235 30.7882 137.016 30.8861C135.647 31.536 134.48 32.5458 133.641 33.8072C132.802 35.0687 132.322 36.5344 132.253 38.0473L131.791 42.2336C131.694 43.1877 131.436 44.1185 131.029 44.9868Z" fill="black"/>
<path d="M139.259 52.907C137.844 52.9054 136.488 52.3434 135.488 51.3442C134.488 50.3451 133.925 48.9904 133.923 47.5774V46.2076C133.923 45.8838 134.052 45.5733 134.281 45.3444C134.511 45.1154 134.821 44.9868 135.146 44.9868C135.47 44.9868 135.781 45.1154 136.01 45.3444C136.239 45.5733 136.368 45.8838 136.368 46.2076V47.5772C136.368 47.9564 136.443 48.332 136.588 48.6824C136.733 49.0328 136.946 49.3511 137.215 49.6193C137.483 49.8875 137.802 50.1002 138.153 50.2453C138.503 50.3905 138.879 50.4652 139.259 50.4652C139.639 50.4652 140.015 50.3905 140.366 50.2453C140.716 50.1002 141.035 49.8875 141.304 49.6193C141.572 49.3511 141.785 49.0328 141.93 48.6824C142.076 48.332 142.15 47.9564 142.15 47.5772V46.2076C142.15 45.8838 142.279 45.5733 142.508 45.3444C142.738 45.1154 143.048 44.9868 143.373 44.9868C143.697 44.9868 144.008 45.1154 144.237 45.3444C144.466 45.5733 144.595 45.8838 144.595 46.2076V47.5772C144.593 48.9902 144.03 50.3449 143.03 51.3441C142.03 52.3433 140.674 52.9054 139.259 52.907Z" fill="black"/>
<path d="M127.758 183.691C127.806 184.371 128.006 185.031 128.345 185.622C129.101 186.855 130.244 187.803 131.597 188.317C133.242 188.989 135.076 189.01 136.823 188.86C138.444 188.721 140.05 188.398 141.677 188.33C142.936 188.29 144.196 188.32 145.451 188.42C147.887 188.593 150.312 188.913 152.722 189.301C153.375 189.405 154.026 189.517 154.676 189.636C154.738 189.642 154.798 189.653 154.858 189.67C154.869 189.675 154.888 189.67 154.899 189.678C154.919 189.69 154.82 189.647 154.88 189.696C154.964 189.784 155.038 189.88 155.103 189.982L155.992 191.126C156.226 191.486 156.502 191.817 156.815 192.112C157.047 192.291 157.328 192.398 157.621 192.418C157.914 192.439 158.207 192.372 158.462 192.227C158.729 192.058 158.942 191.817 159.075 191.531C159.28 191.156 159.524 190.804 159.804 190.481C160.863 189.247 162.334 188.488 163.565 187.45C164.161 186.967 164.67 186.386 165.069 185.732C165.41 185.14 165.622 184.483 165.691 183.803C165.799 182.411 165.452 181.021 164.701 179.842C163.926 178.581 162.812 177.562 161.486 176.901C159.981 176.18 158.358 175.736 156.695 175.59C154.937 175.424 153.169 175.366 151.404 175.415C149.425 175.437 147.45 175.524 145.479 175.676C143.505 175.828 141.539 176.045 139.581 176.326C137.689 176.565 135.813 176.908 133.96 177.355C132.335 177.777 130.714 178.436 129.501 179.631C128.421 180.696 127.671 182.149 127.758 183.691Z" fill="#D6D6E3"/>
<path d="M136.343 178.145C134.589 178.468 132.753 178.864 131.281 179.823C129.825 180.771 128.94 182.262 129.027 183.621C129.152 185.605 131.265 187.09 133.189 187.479C135.032 187.851 136.952 187.599 138.985 187.332C139.435 187.273 139.899 187.211 140.36 187.158C145.363 186.581 154.757 188.36 155.155 188.436L155.568 188.515L157.755 191.326C158.286 190.221 159.067 189.254 160.036 188.501C160.456 188.165 160.895 187.854 161.32 187.552C162.403 186.783 163.426 186.056 163.99 185.058C165.22 182.884 163.767 179.852 161.694 178.491C159.36 176.958 156.281 176.717 153.303 176.686C152.993 176.682 152.682 176.681 152.372 176.681C147 176.681 141.639 177.171 136.355 178.142L136.343 178.145Z" fill="white"/>
<path d="M134.944 180.548C134.944 180.488 134.955 180.428 134.978 180.372C135.001 180.316 135.035 180.266 135.078 180.223C135.12 180.18 135.171 180.147 135.227 180.124C135.283 180.1 135.342 180.088 135.403 180.088H156.521C156.642 180.088 156.759 180.137 156.846 180.223C156.932 180.309 156.98 180.426 156.98 180.547C156.98 180.669 156.932 180.786 156.846 180.872C156.759 180.958 156.642 181.006 156.521 181.006H135.403C135.281 181.006 135.164 180.958 135.078 180.872C134.992 180.786 134.944 180.669 134.944 180.548Z" fill="#D6D6E3"/>
<path d="M134.944 183.365C134.944 183.305 134.955 183.245 134.978 183.19C135.001 183.134 135.035 183.083 135.078 183.041C135.12 182.998 135.171 182.964 135.227 182.941C135.283 182.918 135.342 182.906 135.403 182.906H156.521C156.643 182.906 156.76 182.954 156.846 183.04C156.932 183.126 156.981 183.243 156.981 183.365C156.981 183.486 156.932 183.603 156.846 183.689C156.76 183.775 156.643 183.824 156.521 183.824H135.403C135.281 183.823 135.164 183.775 135.078 183.689C134.992 183.603 134.944 183.487 134.944 183.365Z" fill="#D6D6E3"/>
<path d="M153.6 186.182C153.6 186.122 153.612 186.062 153.635 186.006C153.658 185.951 153.692 185.9 153.735 185.857C153.777 185.815 153.828 185.781 153.884 185.758C153.939 185.735 153.999 185.723 154.059 185.723H156.52C156.642 185.723 156.759 185.771 156.845 185.857C156.931 185.943 156.98 186.06 156.98 186.182C156.98 186.303 156.931 186.42 156.845 186.506C156.759 186.592 156.642 186.64 156.52 186.64H154.059C153.938 186.64 153.821 186.592 153.735 186.506C153.649 186.42 153.601 186.304 153.6 186.182Z" fill="#D6D6E3"/>
<path d="M119.053 185.501C119.042 185.501 119.03 185.501 119.019 185.501C118.87 185.485 118.728 185.428 118.608 185.338C118.489 185.247 118.396 185.126 118.34 184.987C117.817 183.929 117.14 182.953 116.333 182.091C115.862 181.59 115.37 181.123 114.894 180.672C113.666 179.509 112.51 178.414 111.868 176.9C110.468 173.6 112.116 169.005 114.471 166.942C117.112 164.63 120.586 164.267 123.946 164.22C124.296 164.215 124.645 164.212 124.995 164.212C131.079 164.219 137.14 164.958 143.047 166.412C145.027 166.898 147.1 167.494 148.766 168.941C150.421 170.379 151.428 172.644 151.33 174.711C151.186 177.729 148.785 179.984 146.598 180.573C144.514 181.134 142.348 180.755 140.056 180.353C139.55 180.264 139.027 180.172 138.51 180.093C132.886 179.227 122.322 181.895 121.875 182.01L121.432 182.123L119.711 185.072C119.65 185.196 119.557 185.301 119.441 185.377C119.325 185.452 119.191 185.496 119.053 185.502L119.053 185.501Z" fill="#FC5D00"/>
<path d="M144.095 171.847H120.327C120.189 171.847 120.058 171.793 119.961 171.696C119.864 171.599 119.809 171.468 119.809 171.331C119.809 171.194 119.864 171.062 119.961 170.965C120.058 170.868 120.189 170.814 120.327 170.814H144.095C144.232 170.814 144.364 170.868 144.461 170.965C144.558 171.062 144.612 171.194 144.612 171.331C144.612 171.468 144.558 171.599 144.461 171.696C144.364 171.793 144.232 171.847 144.095 171.847Z" fill="white"/>
<path d="M144.095 175.018H120.327C120.19 175.018 120.058 174.964 119.961 174.867C119.864 174.77 119.81 174.639 119.81 174.502C119.81 174.364 119.864 174.233 119.961 174.136C120.058 174.039 120.19 173.985 120.327 173.985H144.096C144.234 173.985 144.365 174.039 144.462 174.136C144.559 174.233 144.614 174.364 144.614 174.502C144.614 174.639 144.559 174.77 144.462 174.867C144.365 174.964 144.234 175.018 144.096 175.018H144.095Z" fill="white"/>
<path d="M123.097 178.189H120.327C120.189 178.189 120.058 178.134 119.961 178.037C119.864 177.94 119.809 177.809 119.809 177.672C119.809 177.535 119.864 177.403 119.961 177.307C120.058 177.21 120.189 177.155 120.327 177.155H123.097C123.165 177.155 123.232 177.169 123.295 177.195C123.357 177.221 123.414 177.259 123.462 177.307C123.51 177.355 123.549 177.412 123.575 177.474C123.601 177.537 123.614 177.604 123.614 177.672C123.614 177.74 123.601 177.807 123.575 177.87C123.549 177.932 123.51 177.989 123.462 178.037C123.414 178.085 123.357 178.123 123.295 178.149C123.232 178.175 123.165 178.189 123.097 178.189Z" fill="white"/>
<path d="M5.21176e-05 211.518C-0.010078 211.634 0.0261794 211.75 0.100961 211.84C0.175744 211.93 0.283021 211.987 0.399528 211.998H199.601C199.713 211.978 199.815 211.918 199.888 211.83C199.961 211.742 200.001 211.632 200.001 211.518C200.001 211.404 199.961 211.293 199.888 211.205C199.815 211.117 199.713 211.058 199.601 211.037H0.399528C0.283021 211.049 0.175744 211.105 0.100961 211.195C0.0261794 211.285 -0.010078 211.401 5.21176e-05 211.518Z" fill="#F2F2F2"/>
</g>
<defs>
<clipPath id="clip0_1026_5253">
<rect width="200" height="212" fill="white"/>
</clipPath>
</defs>
</svg>
