<svg width="200" height="211" viewBox="0 0 200 211" fill="none" xmlns="http://www.w3.org/2000/svg">
<g clip-path="url(#clip0_1123_4051)">
<path d="M146.845 203.162L134.4 195.219L150.61 199.86C160.793 190.131 168.252 176.653 168.252 176.653C168.252 176.653 140.979 159.998 124.178 164.442C107.378 168.887 104.154 180.426 107.413 192.747C110.672 205.068 119.18 213.504 135.981 209.059C139.72 208.07 143.393 205.914 146.845 203.162Z" fill="#F2F2F2"/>
<path d="M133.163 192.657L132.334 192.876C122.696 195.373 114.756 195.736 108.625 193.95C108.535 193.926 108.448 193.896 108.358 193.871L108.481 193.457L108.605 193.061C115.25 195.084 123.653 194.199 132.061 192.023C132.332 191.955 132.608 191.887 132.882 191.81C136.433 190.858 139.97 189.689 143.371 188.417C143.635 188.321 143.902 188.219 144.169 188.118C148.649 186.415 152.868 184.553 156.504 182.828C156.762 182.707 157.018 182.583 157.27 182.459C163.413 179.513 167.766 177.015 168.727 176.454C168.846 176.387 168.91 176.348 168.925 176.34L169.139 176.7L169.144 176.703L169.359 177.068C169.344 177.076 169.128 177.208 168.724 177.437C167.217 178.305 163.111 180.611 157.594 183.268C157.345 183.387 157.088 183.511 156.831 183.632C153.881 185.035 150.564 186.523 147.043 187.937C146.159 188.293 145.284 188.634 144.418 188.96C144.152 189.065 143.885 189.167 143.621 189.263C139.945 190.639 136.459 191.77 133.163 192.657Z" fill="white"/>
<path d="M157.594 183.268C157.484 183.003 157.374 182.734 157.27 182.459C156.988 181.711 156.744 180.95 156.54 180.178C155.665 176.888 155.539 173.443 156.172 170.098C155.909 169.984 155.646 169.869 155.378 169.751C154.68 173.279 154.797 176.919 155.72 180.395C155.938 181.219 156.2 182.031 156.504 182.828C156.606 183.099 156.717 183.368 156.831 183.632C157.756 185.814 159.006 187.842 160.54 189.647C160.719 189.411 160.895 189.181 161.068 188.955C159.636 187.241 158.466 185.324 157.594 183.268Z" fill="white"/>
<path d="M144.418 188.96C144.327 188.681 144.244 188.401 144.169 188.118C144.142 188.033 144.119 187.943 144.096 187.856C143.152 184.29 143.085 180.549 143.9 176.951C144.715 173.353 146.388 170.006 148.776 167.195C148.491 167.095 148.206 166.995 147.917 166.9C145.517 169.807 143.845 173.243 143.038 176.926C142.23 180.608 142.312 184.429 143.276 188.073C143.306 188.188 143.337 188.303 143.371 188.417C143.451 188.703 143.534 188.983 143.621 189.263C145.003 193.581 147.6 197.409 151.1 200.291C151.307 200.095 151.515 199.9 151.721 199.701C148.293 196.907 145.756 193.175 144.418 188.96Z" fill="white"/>
<path d="M133.163 192.657C133.062 192.376 132.97 192.094 132.882 191.81C132.788 191.506 132.698 191.201 132.617 190.893C131.355 186.1 131.68 181.026 133.542 176.433C135.404 171.839 138.705 167.972 142.949 165.411C142.568 165.315 142.191 165.217 141.812 165.128C137.624 167.857 134.402 171.836 132.604 176.5C130.806 181.164 130.524 186.276 131.797 191.11C131.879 191.417 131.964 191.724 132.061 192.023C132.146 192.312 132.238 192.594 132.335 192.876C134.321 198.553 138.391 203.262 143.719 206.051C144 205.884 144.273 205.707 144.551 205.528C139.225 202.882 135.141 198.265 133.163 192.657Z" fill="white"/>
<path d="M116.697 209.466L55.1574 184.695C51.4697 183.205 48.5232 180.314 46.9645 176.655C45.4058 172.996 45.3621 168.868 46.843 165.177L109.544 9.4002C111.033 5.71231 113.924 2.76575 117.583 1.20696C121.242 -0.35183 125.37 -0.395552 129.061 1.08539L190.6 25.8571C194.288 27.3464 197.234 30.2378 198.793 33.8968C200.352 37.5559 200.396 41.6838 198.915 45.3751L136.214 201.152C134.725 204.84 131.834 207.786 128.175 209.345C124.516 210.904 120.388 210.947 116.697 209.466Z" fill="#3F3D56"/>
<path d="M188.173 29.9001L181.323 27.1428C180.711 26.8973 180.027 26.9045 179.421 27.1628C178.814 27.4211 178.335 27.9094 178.089 28.5205C177.584 29.77 176.605 30.7684 175.365 31.2965C174.126 31.8246 172.727 31.8393 171.477 31.3373L137.975 17.8516C136.725 17.3473 135.727 16.3678 135.199 15.1282C134.671 13.8885 134.656 12.49 135.158 11.2395C135.404 10.6279 135.396 9.94386 135.138 9.33754C134.88 8.73121 134.392 8.25213 133.78 8.00544L127.74 5.57414C124.941 4.45137 121.81 4.48476 119.035 5.66697C116.26 6.84917 114.068 9.0837 112.938 11.8805L50.6828 166.55C49.5601 169.349 49.5935 172.48 50.7756 175.255C51.9578 178.03 54.1922 180.223 56.9889 181.353L117.421 205.679C120.221 206.802 123.351 206.769 126.126 205.586C128.901 204.404 131.094 202.17 132.224 199.373L194.479 44.7035C195.601 41.9038 195.568 38.7732 194.386 35.9981C193.204 33.223 190.969 31.03 188.173 29.9001Z" fill="white"/>
<path d="M164.739 24.0757L145.839 16.4677C145.66 16.3956 145.517 16.2554 145.441 16.0779C145.366 15.9003 145.364 15.7 145.436 15.521C145.508 15.3419 145.648 15.1989 145.826 15.1232C146.003 15.0476 146.203 15.0456 146.382 15.1176L165.283 22.7256C165.371 22.7613 165.452 22.8141 165.52 22.881C165.589 22.9479 165.643 23.0275 165.68 23.1155C165.718 23.2034 165.738 23.2978 165.739 23.3934C165.74 23.4889 165.722 23.5837 165.686 23.6724C165.65 23.761 165.597 23.8418 165.531 23.91C165.464 23.9783 165.384 24.0327 165.296 24.0701C165.208 24.1076 165.114 24.1273 165.018 24.1283C164.923 24.1292 164.828 24.1114 164.739 24.0757Z" fill="white"/>
<path d="M167.981 25.1783C168.303 25.1783 168.563 24.9177 168.563 24.5962C168.563 24.2747 168.303 24.0141 167.981 24.0141C167.66 24.0141 167.399 24.2747 167.399 24.5962C167.399 24.9177 167.66 25.1783 167.981 25.1783Z" fill="white"/>
<path d="M180.331 93.1042C180.009 92.9742 179.752 92.7217 179.616 92.4023C179.48 92.0828 179.476 91.7224 179.605 91.4001L189.169 67.6388C189.299 67.317 189.551 67.0598 189.871 66.9239C190.19 66.788 190.551 66.7845 190.873 66.9142C191.195 67.0438 191.452 67.2959 191.588 67.6152C191.724 67.9345 191.728 68.2948 191.599 68.617L182.035 92.3782C181.905 92.7002 181.653 92.9575 181.333 93.0936C181.014 93.2297 180.653 93.2335 180.331 93.1042Z" fill="#3F3D56"/>
<path d="M97.4842 39.3611C97.1622 39.231 96.9049 38.9786 96.7688 38.6591C96.6327 38.3396 96.6289 37.9792 96.7582 37.6569L98.9319 32.2566C98.9959 32.0968 99.0908 31.9511 99.2112 31.828C99.3315 31.7049 99.475 31.6067 99.6334 31.5391C99.7917 31.4714 99.9619 31.4357 100.134 31.4339C100.306 31.4321 100.477 31.4643 100.637 31.5286C100.797 31.5929 100.942 31.688 101.065 31.8086C101.188 31.9292 101.286 32.0728 101.353 32.2313C101.42 32.3898 101.456 32.56 101.457 32.7322C101.459 32.9044 101.426 33.0752 101.362 33.2348L99.1883 38.6351C99.0582 38.9571 98.8058 39.2143 98.4863 39.3504C98.1669 39.4865 97.8065 39.4904 97.4842 39.3611Z" fill="#3F3D56"/>
<path d="M93.463 49.3516C93.141 49.2215 92.8837 48.9691 92.7476 48.6496C92.6115 48.3301 92.6077 47.9697 92.737 47.6474L94.9106 42.2471C94.9746 42.0873 95.0695 41.9416 95.1899 41.8184C95.3103 41.6952 95.4537 41.597 95.6121 41.5294C95.7705 41.4617 95.9406 41.426 96.1128 41.4242C96.285 41.4224 96.4559 41.4545 96.6157 41.5188C96.7754 41.5831 96.9209 41.6783 97.0438 41.7989C97.1668 41.9195 97.2647 42.0632 97.3321 42.2217C97.3994 42.3802 97.4348 42.5504 97.4363 42.7227C97.4378 42.8949 97.4053 43.0657 97.3407 43.2253L95.167 48.6256C95.037 48.9476 94.7846 49.2049 94.4651 49.341C94.1456 49.4771 93.7852 49.4809 93.463 49.3516Z" fill="#3F3D56"/>
<path d="M151.207 72.2861L125.064 61.7628C124.528 61.5456 124.1 61.1252 123.874 60.5935C123.647 60.0617 123.64 59.4619 123.855 58.9251L130.129 43.3369C130.346 42.8013 130.767 42.3734 131.298 42.1468C131.83 41.9202 132.43 41.9133 132.966 42.1277L159.109 52.651C159.645 52.8681 160.073 53.2885 160.299 53.8201C160.526 54.3518 160.533 54.9516 160.319 55.4883L154.044 71.0767C153.827 71.6123 153.407 72.0402 152.875 72.2668C152.343 72.4934 151.744 72.5004 151.207 72.2861ZM132.526 43.2244C132.28 43.1262 132.005 43.1294 131.761 43.2333C131.518 43.3372 131.325 43.5333 131.225 43.7788L124.951 59.3659C124.853 59.612 124.857 59.8869 124.96 60.1306C125.064 60.3743 125.26 60.567 125.506 60.6666L151.647 71.1892C151.893 71.2874 152.168 71.2843 152.412 71.1804C152.656 71.0765 152.848 70.8803 152.948 70.6347L159.222 55.0477C159.32 54.8016 159.317 54.5267 159.213 54.2831C159.109 54.0394 158.913 53.8467 158.667 53.7472L132.526 43.2244Z" fill="#3F3D56"/>
<path d="M151.362 62.3669L151.36 62.3663L131.18 54.243C130.898 54.1289 130.659 53.931 130.494 53.6761C130.329 53.4212 130.247 53.1217 130.258 52.8183L130.639 43.3662C130.649 43.1306 130.714 42.9008 130.831 42.696C130.948 42.4913 131.112 42.3175 131.31 42.1893C131.508 42.0612 131.734 41.9824 131.968 41.9596C132.203 41.9368 132.44 41.9706 132.658 42.0583L159.365 52.7561C159.726 52.9008 160.016 53.1825 160.17 53.5396C160.324 53.8967 160.33 54.3002 160.188 54.6622L160.276 54.7499L159.438 55.584L159.438 55.5837L152.95 62.044C152.746 62.2476 152.487 62.3868 152.204 62.4442C151.922 62.5016 151.629 62.4747 151.362 62.3669Z" fill="#3F3D56"/>
<path d="M136.208 63.0544L127.233 59.4415C127.012 59.3524 126.835 59.1792 126.742 58.9599C126.648 58.7406 126.646 58.4932 126.735 58.2722C126.824 58.0511 126.997 57.8744 127.216 57.7809C127.435 57.6875 127.683 57.6849 127.904 57.7738L136.879 61.3866C137.1 61.4757 137.277 61.649 137.37 61.8682C137.463 62.0875 137.466 62.3349 137.377 62.556C137.288 62.777 137.115 62.9537 136.896 63.0472C136.676 63.1406 136.429 63.1432 136.208 63.0544Z" fill="#3F3D56"/>
<path d="M141.765 60.0639C142.978 60.0639 143.962 59.0802 143.962 57.8667C143.962 56.6533 142.978 55.6696 141.765 55.6696C140.551 55.6696 139.568 56.6533 139.568 57.8667C139.568 59.0802 140.551 60.0639 141.765 60.0639Z" fill="white"/>
<path d="M112.224 169.137L86.0811 158.614C85.5454 158.397 85.1175 157.976 84.891 157.445C84.6644 156.913 84.6575 156.313 84.8719 155.776L91.1462 140.188C91.3634 139.652 91.7837 139.224 92.3154 138.998C92.8471 138.771 93.4468 138.764 93.9836 138.979L120.126 149.502C120.662 149.719 121.09 150.139 121.316 150.671C121.543 151.203 121.55 151.803 121.336 152.339L115.061 167.928C114.844 168.463 114.424 168.891 113.892 169.118C113.36 169.344 112.761 169.351 112.224 169.137ZM93.5429 140.075C93.2968 139.977 93.022 139.98 92.7783 140.084C92.5346 140.188 92.342 140.384 92.2424 140.63L85.9685 156.217C85.8704 156.463 85.8736 156.738 85.9775 156.982C86.0814 157.225 86.2775 157.418 86.523 157.518L112.664 168.04C112.91 168.138 113.185 168.135 113.429 168.031C113.673 167.927 113.865 167.731 113.965 167.486L120.239 151.899C120.337 151.653 120.334 151.378 120.23 151.134C120.126 150.89 119.93 150.698 119.684 150.598L93.5429 140.075Z" fill="#3F3D56"/>
<path d="M112.379 159.218L112.377 159.217L92.1971 151.094C91.9157 150.98 91.6763 150.782 91.5114 150.527C91.3465 150.272 91.264 149.973 91.2753 149.669L91.6563 140.217C91.6658 139.982 91.7317 139.752 91.8485 139.547C91.9652 139.342 92.1295 139.169 92.3273 139.04C92.5252 138.912 92.7509 138.833 92.9855 138.811C93.2201 138.788 93.4568 138.822 93.6756 138.909L120.383 149.607C120.744 149.752 121.033 150.034 121.187 150.391C121.341 150.748 121.348 151.151 121.205 151.513L121.293 151.601L120.455 152.435L120.455 152.435L113.967 158.895C113.763 159.099 113.504 159.238 113.222 159.295C112.939 159.353 112.646 159.326 112.379 159.218Z" fill="#3F3D56"/>
<path d="M97.225 159.905L88.2496 156.293C88.0286 156.203 87.852 156.03 87.7587 155.811C87.6654 155.592 87.6629 155.344 87.7519 155.123C87.8409 154.902 88.014 154.725 88.2332 154.632C88.4524 154.538 88.6998 154.536 88.9209 154.625L97.8962 158.238C98.0057 158.282 98.1055 158.347 98.1898 158.43C98.2741 158.512 98.3413 158.611 98.3875 158.719C98.4338 158.828 98.4582 158.944 98.4594 159.062C98.4606 159.181 98.4385 159.298 98.3944 159.407C98.3504 159.517 98.2852 159.616 98.2025 159.701C98.1199 159.785 98.0215 159.852 97.9129 159.898C97.8043 159.945 97.6876 159.969 97.5696 159.97C97.4516 159.972 97.3345 159.949 97.225 159.905Z" fill="#3F3D56"/>
<path d="M102.782 156.915C103.995 156.915 104.979 155.931 104.979 154.718C104.979 153.504 103.995 152.521 102.782 152.521C101.568 152.521 100.585 153.504 100.585 154.718C100.585 155.931 101.568 156.915 102.782 156.915Z" fill="white"/>
<path d="M122.581 129.659C135.853 129.659 146.612 118.899 146.612 105.627C146.612 92.354 135.853 81.5943 122.581 81.5943C109.309 81.5943 98.5494 92.354 98.5494 105.627C98.5494 118.899 109.309 129.659 122.581 129.659Z" fill="#FC5D00"/>
<path d="M131.701 120.706L105.558 110.183C105.022 109.965 104.595 109.545 104.368 109.013C104.141 108.481 104.135 107.882 104.349 107.345L110.623 91.7566C110.84 91.221 111.261 90.7931 111.792 90.5665C112.324 90.3399 112.924 90.3331 113.461 90.5474L139.603 101.071C140.139 101.288 140.567 101.708 140.793 102.24C141.02 102.772 141.027 103.371 140.813 103.908L134.538 119.496C134.321 120.032 133.901 120.46 133.369 120.686C132.837 120.913 132.238 120.92 131.701 120.706ZM113.02 91.6441C112.774 91.5459 112.499 91.5492 112.255 91.6531C112.012 91.7569 111.819 91.953 111.719 92.1985L105.446 107.786C105.347 108.032 105.351 108.307 105.455 108.55C105.558 108.794 105.755 108.987 106 109.086L132.141 119.609C132.387 119.707 132.662 119.704 132.906 119.6C133.15 119.496 133.343 119.3 133.442 119.054L139.716 103.467C139.814 103.221 139.811 102.946 139.707 102.703C139.603 102.459 139.407 102.266 139.161 102.167L113.02 91.6441Z" fill="#3F3D56"/>
<path d="M131.856 110.787L131.855 110.786L111.674 102.663C111.393 102.549 111.153 102.351 110.988 102.096C110.824 101.841 110.741 101.541 110.752 101.238L111.133 91.7859C111.143 91.5504 111.209 91.3206 111.326 91.1158C111.442 90.911 111.607 90.7372 111.804 90.6091C112.002 90.4809 112.228 90.4022 112.463 90.3793C112.697 90.3565 112.934 90.3904 113.153 90.478L139.86 101.176C140.221 101.321 140.51 101.602 140.664 101.959C140.818 102.316 140.825 102.72 140.682 103.082L140.77 103.17L139.932 104.004L139.932 104.003L133.444 110.464C133.24 110.667 132.981 110.807 132.699 110.864C132.416 110.921 132.123 110.894 131.856 110.787Z" fill="#3F3D56"/>
<path d="M116.702 111.474L107.727 107.861C107.506 107.772 107.329 107.599 107.236 107.38C107.142 107.16 107.14 106.913 107.229 106.692C107.318 106.471 107.491 106.294 107.71 106.201C107.929 106.107 108.177 106.105 108.398 106.193L117.373 109.806C117.594 109.895 117.771 110.069 117.864 110.288C117.958 110.507 117.96 110.755 117.871 110.976C117.782 111.197 117.609 111.373 117.39 111.467C117.17 111.56 116.923 111.563 116.702 111.474Z" fill="#3F3D56"/>
<path d="M57.6404 123.218C57.6427 122.758 57.5443 122.304 57.3519 121.886C57.1595 121.468 56.8779 121.098 56.527 120.801C56.176 120.504 55.7642 120.288 55.3205 120.167C54.8769 120.047 54.4122 120.025 53.9592 120.103L48.5483 110.325L45.8545 115.47L51.4058 123.967C51.588 124.719 52.0399 125.378 52.6757 125.82C53.3115 126.261 54.0872 126.454 54.8557 126.362C55.6242 126.269 56.3321 125.898 56.8453 125.319C57.3586 124.74 57.6415 123.992 57.6404 123.218Z" fill="#9E616A"/>
<path d="M54.1444 83.7223L48.5801 83.3319C48.5801 83.3319 47.8947 83.2386 46.0097 86.2277C44.1248 89.2169 37.6636 104.375 37.6636 104.375L48.9834 120.806L52.66 117.146L46.087 103.924L52.3872 95.0758L54.1444 83.7223Z" fill="#CACACA"/>
<path d="M115.487 101.485C115.115 101.628 114.715 101.686 114.317 101.657C113.919 101.628 113.532 101.513 113.183 101.318C112.835 101.123 112.533 100.855 112.3 100.531C112.067 100.207 111.907 99.8362 111.832 99.4441L102.234 98.031L105.593 94.2711L114.193 96.1895C114.86 96.108 115.534 96.274 116.086 96.656C116.639 97.038 117.033 97.6096 117.192 98.2624C117.352 98.9151 117.266 99.6038 116.952 100.198C116.638 100.792 116.117 101.25 115.487 101.485Z" fill="#9E616A"/>
<path d="M78.5919 206.629H82.6936L84.6448 190.807L78.5914 190.808L78.5919 206.629Z" fill="#9E616A"/>
<path d="M77.5458 205.289L78.7003 205.289L83.2076 203.456L85.6233 205.289H85.6237C86.9889 205.289 88.2981 205.832 89.2635 206.797C90.2289 207.762 90.7712 209.072 90.7713 210.437V210.604L77.546 210.605L77.5458 205.289Z" fill="#2F2E41"/>
<path d="M53.8501 206.629H57.9518L59.903 190.807L53.8496 190.808L53.8501 206.629Z" fill="#9E616A"/>
<path d="M52.804 205.289L53.9584 205.289L58.4657 203.456L60.8815 205.289H60.8818C62.247 205.289 63.5563 205.832 64.5217 206.797C65.487 207.762 66.0294 209.072 66.0295 210.437V210.604L52.8042 210.605L52.804 205.289Z" fill="#2F2E41"/>
<path d="M55.4324 128.72L52.7214 145.062L53.633 197.593H60.3052L70.5561 142.027L77.93 196.679L84.6386 196.389L87.9866 141.223L84.9782 127.142L55.4324 128.72Z" fill="#2F2E41"/>
<path d="M79.9477 80.1216L72.8064 79.0694L71.2881 75.127L61.2273 75.1131L58.9667 80.2608L48.6858 83.3649L57.2035 112.626C57.2035 112.626 52.5093 123.5 53.6638 123.547C54.8183 123.593 55.3871 125.244 54.5818 126.112C53.7766 126.979 52.1608 126.427 52.9687 127.745C53.4315 128.458 53.7415 129.259 53.8791 130.098C53.8791 130.098 87.9447 137.371 86.0576 127.993C85.823 126.827 82.9766 110.675 82.9766 110.675C82.9766 110.675 85.4552 107.932 84.3959 106.842C83.3365 105.752 83.896 94.2406 83.896 94.2406L79.9477 80.1216Z" fill="#CACACA"/>
<path d="M78.7787 81.4003L79.9475 80.1217L95.8266 89.4328L109.263 94.7916L109.523 99.4797L92.0736 97.3961L79.7236 91.357L78.7787 81.4003Z" fill="#CACACA"/>
<path d="M74.3636 63.8205C74.3636 64.9244 74.1462 66.0175 73.7238 67.0374C73.3014 68.0572 72.6822 68.9839 71.9017 69.7645C71.1211 70.545 70.1945 71.1642 69.1747 71.5867C68.1549 72.0091 67.0618 72.2265 65.958 72.2265C65.296 72.2255 64.6364 72.1483 63.992 71.9965C62.4568 71.628 61.0563 70.8346 59.9509 69.7072C58.8455 68.5799 58.0797 67.164 57.7414 65.6218C57.403 64.0795 57.5057 62.4732 58.0376 60.9866C58.5696 59.4999 59.5093 58.1931 60.7492 57.2157C61.9892 56.2382 63.4793 55.6296 65.049 55.4595C66.6186 55.2894 68.2045 55.5647 69.625 56.2538C71.0456 56.943 72.2434 58.0182 73.0814 59.3564C73.9194 60.6945 74.3638 62.2416 74.3636 63.8205Z" fill="#9E616A"/>
<path d="M68.2095 70.6371L62.1723 71.8015C61.6098 71.9536 61.0205 71.978 60.4473 71.8731C59.5493 71.6366 58.9474 70.8078 58.488 70.0007C56.3565 66.2208 55.6852 61.7903 56.6013 57.5485C56.8075 56.6122 57.2483 55.5394 58.1879 55.3487C58.4608 55.2933 58.7695 55.3152 58.9856 55.1394C59.3037 54.8805 59.199 54.3318 58.8865 54.0661C58.5469 53.832 58.1464 53.7018 57.734 53.6915C58.0005 53.3783 58.3302 53.1251 58.7016 52.9484C59.0729 52.7718 59.4774 52.6758 59.8886 52.6667L58.2738 51.7693C59.0516 51.2296 60.0966 51.2789 61.0141 51.5121C61.9317 51.7453 62.8148 52.1402 63.7574 52.2286C64.9409 52.3395 66.1087 51.9592 67.2882 51.8122C69.0482 51.6214 70.8261 51.9392 72.4109 52.728C73.9958 53.5169 75.3212 54.7437 76.23 56.263C76.5504 56.7697 76.7533 57.3417 76.824 57.937C76.8565 58.2347 76.8191 58.5358 76.7148 58.8165C76.6105 59.0972 76.4421 59.3497 76.2231 59.5539C75.562 60.11 74.5207 60.0282 73.8803 60.608C73.3867 61.0549 73.2638 61.7765 73.2359 62.4418C73.208 63.107 73.2396 63.8022 72.9545 64.404C72.6695 65.0057 71.9255 65.4581 71.3306 65.159C71.3043 64.3349 70.3545 63.7515 69.5477 63.9216C68.741 64.0918 68.1451 64.8255 67.913 65.6167C67.6809 66.4079 67.7498 67.2533 67.8509 68.0716C67.952 68.8899 68.0834 69.7178 67.97 70.5345" fill="#2F2E41"/>
<path d="M121.321 108.728C122.534 108.728 123.518 107.744 123.518 106.53C123.518 105.317 122.534 104.333 121.321 104.333C120.107 104.333 119.124 105.317 119.124 106.53C119.124 107.744 120.107 108.728 121.321 108.728Z" fill="#FC5D00"/>
<path d="M168.891 211H0.31006C0.227971 211 0.149324 210.967 0.0913624 210.909C0.0334009 210.851 0.000854492 210.772 0.000854492 210.69C0.000854492 210.608 0.0334009 210.529 0.0913624 210.471C0.149324 210.413 0.227971 210.38 0.31006 210.38H168.891C168.974 210.38 169.053 210.412 169.111 210.471C169.169 210.529 169.202 210.608 169.202 210.69C169.202 210.772 169.169 210.851 169.111 210.909C169.053 210.967 168.974 211 168.891 211Z" fill="#CACACA"/>
</g>
<defs>
<clipPath id="clip0_1123_4051">
<rect width="200" height="211" fill="white"/>
</clipPath>
</defs>
</svg>
