<svg width="17" height="16" viewBox="0 0 17 16" fill="none" xmlns="http://www.w3.org/2000/svg">
<path d="M13.5204 7.01999C13.423 7.11733 13.295 7.16664 13.167 7.16664C13.039 7.16664 12.911 7.11799 12.8136 7.01999L9.00033 3.20668V14C9.00033 14.276 8.77633 14.5 8.50033 14.5C8.22433 14.5 8.00033 14.276 8.00033 14V3.20733L4.18702 7.02065C3.99168 7.21598 3.67499 7.21598 3.47966 7.02065C3.28433 6.82531 3.28433 6.50862 3.47966 6.31329L8.14633 1.64662C8.34166 1.45129 8.65835 1.45129 8.85368 1.64662L13.5204 6.31329C13.7157 6.50862 13.7157 6.82466 13.5204 7.01999Z" fill="#079500"/>
</svg>
