<svg width="12" height="14" viewBox="0 0 12 14" fill="none" xmlns="http://www.w3.org/2000/svg">
<path d="M11.0197 8.68669L6.35303 13.3534C6.2557 13.4507 6.12768 13.5 5.99968 13.5C5.87168 13.5 5.74366 13.4514 5.64633 13.3534L0.97966 8.68669C0.784327 8.49135 0.784327 8.17466 0.97966 7.97933C1.17499 7.784 1.49168 7.784 1.68702 7.97933L5.50033 11.7926V1C5.50033 0.724 5.72433 0.5 6.00033 0.5C6.27633 0.5 6.50033 0.724 6.50033 1V11.7926L10.3137 7.97933C10.509 7.784 10.8257 7.784 11.021 7.97933C11.2163 8.17466 11.215 8.49135 11.0197 8.68669Z" fill="#EB1418"/>
</svg>
