<svg width="24" height="25" viewBox="0 0 24 25" fill="none" xmlns="http://www.w3.org/2000/svg">
<path d="M20.4547 16.1465L19.3487 14.3005C18.9527 13.6405 18.7447 12.8855 18.7447 12.1165V9.4895C18.7447 5.7735 15.7187 2.74951 11.9997 2.74951C8.28068 2.74951 5.25466 5.7725 5.25466 9.4895V12.1165C5.25466 12.8855 5.04566 13.6405 4.65066 14.3005L3.54467 16.1465C3.15967 16.7875 3.15067 17.5595 3.51867 18.2095C3.88767 18.8615 4.55466 19.2505 5.30366 19.2505H9.28367C9.27567 19.3345 9.25067 19.4155 9.25067 19.5005C9.25067 21.0175 10.4837 22.2505 12.0007 22.2505C13.5177 22.2505 14.7507 21.0175 14.7507 19.5005C14.7507 19.4155 14.7257 19.3345 14.7177 19.2505H18.6977C19.4467 19.2505 20.1147 18.8615 20.4827 18.2104C20.8497 17.5594 20.8397 16.7875 20.4547 16.1465ZM13.2487 19.5005C13.2487 20.1895 12.6877 20.7505 11.9987 20.7505C11.3097 20.7505 10.7487 20.1895 10.7487 19.5005C10.7487 19.4155 10.7647 19.3325 10.7817 19.2505H13.2157C13.2327 19.3325 13.2487 19.4155 13.2487 19.5005ZM19.1757 17.4705C19.1277 17.5545 18.9867 17.7495 18.6957 17.7495H5.30166C5.01166 17.7495 4.86967 17.5545 4.82167 17.4705C4.77467 17.3865 4.67967 17.1655 4.82867 16.9175L5.93467 15.0715C6.47067 14.1785 6.75267 13.1565 6.75267 12.1165V9.4895C6.75267 6.6005 9.10566 4.24951 11.9977 4.24951C14.8897 4.24951 17.2427 6.6005 17.2427 9.4895V12.1165C17.2427 13.1565 17.5257 14.1785 18.0607 15.0715L19.1667 16.9175C19.3167 17.1655 19.2227 17.3865 19.1757 17.4705Z" fill="#717171"/>
</svg>
