<svg width="40" height="40" viewBox="0 0 40 40" fill="none" xmlns="http://www.w3.org/2000/svg">
<rect x="0.25" y="0.25" width="39.5" height="39.5" rx="19.75" stroke="#D9D9D9" stroke-width="0.5"/>
<path fill-rule="evenodd" clip-rule="evenodd" d="M16.9451 10.25H23.0549C24.4225 10.25 25.5248 10.25 26.3918 10.3665C27.2919 10.4875 28.0497 10.7464 28.6517 11.3484C29.2536 11.9503 29.5125 12.7081 29.6335 13.6083C29.75 14.4752 29.75 15.5775 29.75 16.9451V22.052C29.75 22.9505 29.7501 23.6997 29.6701 24.2945C29.5857 24.9223 29.4 25.4891 28.9445 25.9445C28.4891 26.4 27.9223 26.5857 27.2945 26.6701C26.6997 26.7501 25.9505 26.75 25.052 26.75H14.948C14.0495 26.75 13.3003 26.7501 12.7055 26.6701C12.0777 26.5857 11.5109 26.4 11.0555 25.9445C10.6 25.4891 10.4143 24.9223 10.3299 24.2945C10.2499 23.6997 10.25 22.9505 10.25 22.052L10.25 16.9451C10.25 15.5775 10.25 14.4752 10.3665 13.6082C10.4875 12.7081 10.7464 11.9503 11.3483 11.3484C11.9503 10.7464 12.7081 10.4875 13.6082 10.3665C14.4752 10.25 15.5775 10.25 16.9451 10.25ZM13.8081 11.8531C13.0743 11.9518 12.6858 12.1322 12.409 12.409C12.1322 12.6858 11.9518 13.0743 11.8531 13.8081C11.7516 14.5635 11.75 15.5646 11.75 17V22C11.75 22.964 11.7516 23.6116 11.8165 24.0946C11.8786 24.5561 11.9858 24.7536 12.1161 24.8839C12.2464 25.0142 12.4439 25.1214 12.9054 25.1835C13.3884 25.2484 14.036 25.25 15 25.25H25C25.964 25.25 26.6116 25.2484 27.0946 25.1835C27.5561 25.1214 27.7536 25.0142 27.8839 24.8839C28.0142 24.7536 28.1214 24.5561 28.1835 24.0946C28.2484 23.6116 28.25 22.964 28.25 22V17C28.25 15.5646 28.2484 14.5635 28.1469 13.8081C28.0482 13.0743 27.8678 12.6858 27.591 12.409C27.3142 12.1322 26.9257 11.9518 26.1919 11.8531C25.4365 11.7516 24.4354 11.75 23 11.75H17C15.5646 11.75 14.5635 11.7516 13.8081 11.8531ZM16.25 23C16.25 22.5858 16.5858 22.25 17 22.25H23C23.4142 22.25 23.75 22.5858 23.75 23C23.75 23.4142 23.4142 23.75 23 23.75H17C16.5858 23.75 16.25 23.4142 16.25 23ZM9.25 29C9.25 28.5858 9.58579 28.25 10 28.25H30C30.4142 28.25 30.75 28.5858 30.75 29C30.75 29.4142 30.4142 29.75 30 29.75H10C9.58579 29.75 9.25 29.4142 9.25 29Z" fill="#717171"/>
</svg>
