<svg width="40" height="40" viewBox="0 0 40 40" fill="none" xmlns="http://www.w3.org/2000/svg">
<rect x="0.25" y="0.25" width="39.5" height="39.5" rx="19.75" stroke="#D9D9D9" stroke-width="0.5"/>
<path fill-rule="evenodd" clip-rule="evenodd" d="M19.9436 9.25H20.0564C21.8942 9.24998 23.3498 9.24997 24.489 9.40314C25.6614 9.56076 26.6104 9.89288 27.3588 10.6412C28.1071 11.3896 28.4392 12.3386 28.5969 13.511C28.75 14.6502 28.75 16.1058 28.75 17.9436V22.0564C28.75 23.8942 28.75 25.3498 28.5969 26.489C28.4392 27.6614 28.1071 28.6104 27.3588 29.3588C26.6104 30.1071 25.6614 30.4392 24.489 30.5969C23.3498 30.75 21.8942 30.75 20.0564 30.75H19.9436C18.1058 30.75 16.6502 30.75 15.511 30.5969C14.3386 30.4392 13.3896 30.1071 12.6412 29.3588C11.8929 28.6104 11.5608 27.6614 11.4031 26.489C11.25 25.3498 11.25 23.8942 11.25 22.0564V17.9436C11.25 16.1058 11.25 14.6502 11.4031 13.511C11.5608 12.3386 11.8929 11.3896 12.6412 10.6412C13.3896 9.89288 14.3386 9.56076 15.511 9.40314C16.6502 9.24997 18.1058 9.24998 19.9436 9.25ZM15.7108 10.8898C14.7048 11.025 14.1251 11.2787 13.7019 11.7019C13.2787 12.1251 13.025 12.7048 12.8898 13.7108C12.7516 14.7385 12.75 16.0932 12.75 18V22C12.75 23.9068 12.7516 25.2615 12.8898 26.2892C13.025 27.2952 13.2787 27.8749 13.7019 28.2981C14.1251 28.7213 14.7048 28.975 15.7108 29.1102C16.7385 29.2484 18.0932 29.25 20 29.25C21.9068 29.25 23.2615 29.2484 24.2892 29.1102C25.2952 28.975 25.8749 28.7213 26.2981 28.2981C26.7213 27.8749 26.975 27.2952 27.1102 26.2892C27.2484 25.2615 27.25 23.9068 27.25 22V18C27.25 16.0932 27.2484 14.7385 27.1102 13.7108C26.975 12.7048 26.7213 12.1251 26.2981 11.7019C25.8749 11.2787 25.2952 11.025 24.2892 10.8898C23.2615 10.7516 21.9068 10.75 20 10.75C18.0932 10.75 16.7385 10.7516 15.7108 10.8898ZM16.25 27C16.25 26.5858 16.5858 26.25 17 26.25H23C23.4142 26.25 23.75 26.5858 23.75 27C23.75 27.4142 23.4142 27.75 23 27.75H17C16.5858 27.75 16.25 27.4142 16.25 27Z" fill="#717171"/>
</svg>
