<svg width="32" height="33" viewBox="0 0 32 33" fill="none" xmlns="http://www.w3.org/2000/svg">
<path d="M2 11.9556C2 8.47078 2 6.7284 2.67818 5.39739C3.27473 4.22661 4.22661 3.27473 5.39739 2.67818C6.7284 2 8.47078 2 11.9556 2H20.0444C23.5292 2 25.2716 2 26.6026 2.67818C27.7734 3.27473 28.7253 4.22661 29.3218 5.39739C30 6.7284 30 8.47078 30 11.9556V20.0444C30 23.5292 30 25.2716 29.3218 26.6026C28.7253 27.7734 27.7734 28.7253 26.6026 29.3218C25.2716 30 23.5292 30 20.0444 30H11.9556C8.47078 30 6.7284 30 5.39739 29.3218C4.22661 28.7253 3.27473 27.7734 2.67818 26.6026C2 25.2716 2 23.5292 2 20.0444V11.9556Z" fill="white"/>
<path d="M16.0021 12.5279L12.5412 6.38257C12.6561 6.26485 12.7883 6.18764 12.9205 6.13574C11.8999 6.4737 11.4316 7.62683 11.4316 7.62683L5.10911 18.8505C5.02014 19.2023 4.99543 19.5201 5.00655 19.7998H11.9073L16.0021 12.5279Z" fill="#34A853"/>
<path d="M16.0019 12.5279L20.0967 19.7998H26.9974C27.0085 19.5201 26.9838 19.2023 26.8949 18.8505L20.5724 7.62683C20.5724 7.62683 20.1028 6.4737 19.0835 6.13574C19.2145 6.18764 19.3479 6.26485 19.4628 6.38257L16.0019 12.5279Z" fill="#FBBC05"/>
<path d="M16.0019 12.5282L19.4628 6.38288C19.3479 6.26517 19.2145 6.18795 19.0835 6.13606C18.9328 6.08669 18.7709 6.05378 18.5954 6.04492H18.4126H13.5913H13.4084C13.2342 6.05252 13.0711 6.08543 12.9204 6.13606C12.7894 6.18795 12.656 6.26517 12.5411 6.38288L16.0019 12.5282Z" fill="#188038"/>
<path d="M11.9084 19.7998L8.48709 25.8755C8.48709 25.8755 8.37341 25.8198 8.21896 25.7047C8.70455 26.0806 9.17655 26.1603 9.17655 26.1603H22.6136C23.3549 26.1603 23.5094 25.8755 23.5094 25.8755C23.5119 25.8743 23.5131 25.873 23.5156 25.8717L20.0967 19.7998H11.9084Z" fill="#4285F4"/>
<path d="M11.9087 19.7998H5.00793C5.04253 20.6251 5.39838 21.1074 5.39838 21.1074L5.65786 21.5605C5.67639 21.5871 5.68751 21.6023 5.68751 21.6023L6.25217 22.5997L7.51989 24.8199C7.55695 24.9097 7.6002 24.992 7.64592 25.0705C7.66322 25.0971 7.67928 25.1262 7.69781 25.1515C7.70275 25.1591 7.7077 25.1667 7.71264 25.1743C7.86956 25.3971 8.04501 25.5692 8.22047 25.7047C8.37492 25.8211 8.48859 25.8755 8.48859 25.8755L11.9087 19.7998Z" fill="#1967D2"/>
<path d="M20.0967 19.7998H26.9974C26.9628 20.6251 26.607 21.1074 26.607 21.1074L26.3475 21.5605C26.329 21.5871 26.3179 21.6023 26.3179 21.6023L25.7532 22.5997L24.4855 24.8199C24.4484 24.9097 24.4052 24.992 24.3595 25.0705C24.3422 25.0971 24.3261 25.1262 24.3076 25.1515C24.3026 25.1591 24.2977 25.1667 24.2927 25.1743C24.1358 25.3971 23.9604 25.5692 23.7849 25.7047C23.6305 25.8211 23.5168 25.8755 23.5168 25.8755L20.0967 19.7998Z" fill="#EA4335"/>
</svg>
