<svg width="21" height="20" viewBox="0 0 21 20" fill="none" xmlns="http://www.w3.org/2000/svg">
<path d="M18.6447 5.31544L13.6447 1.29403C11.9187 -0.093452 9.41466 -0.093452 7.68866 1.29403L2.68866 5.31544C1.56266 6.22075 0.916656 7.5682 0.916656 9.0127V15.0068C0.916656 17.6237 3.04766 19.7534 5.66666 19.7534H8.41666V15.0068C8.41666 13.7684 9.42566 12.76 10.6667 12.76C11.9077 12.76 12.9167 13.7684 12.9167 15.0068V19.7534H15.6667C18.2857 19.7534 20.4167 17.6247 20.4167 15.0068V9.0127C20.4167 7.5682 19.7707 6.22075 18.6447 5.31544ZM18.9167 15.0068C18.9167 16.7964 17.4587 18.2529 15.6667 18.2529H14.4167V15.0068C14.4167 12.9411 12.7347 11.2594 10.6667 11.2594C8.59866 11.2594 6.91666 12.9411 6.91666 15.0068V18.2529H5.66666C3.87466 18.2529 2.41666 16.7964 2.41666 15.0068V9.0127C2.41666 8.02536 2.85766 7.10406 3.62766 6.48485L8.62766 2.46344C9.80966 1.51411 11.5237 1.51411 12.7047 2.46344L17.7047 6.48485C18.4747 7.10406 18.9156 8.02536 18.9156 9.0127V15.0068H18.9167Z" fill="#FC5D00"/>
</svg>
