<svg width="32" height="32" viewBox="0 0 32 32" fill="none" xmlns="http://www.w3.org/2000/svg">
<rect x="0.5" y="0.5" width="31" height="31" rx="15.5" stroke="#FC5D00"/>
<g clip-path="url(#clip0_710_625)">
<path fill-rule="evenodd" clip-rule="evenodd" d="M16.0001 5.25C11.7199 5.25 8.25007 8.71979 8.25007 13V13.7041C8.25007 14.401 8.04378 15.0824 7.6572 15.6622L6.50859 17.3851C5.1755 19.3848 6.19321 22.1028 8.5118 22.7351C9.26741 22.9412 10.0294 23.1155 10.7958 23.2581L10.7977 23.2632C11.5667 25.3151 13.622 26.75 16 26.75C18.378 26.75 20.4333 25.3151 21.2023 23.2632L21.2042 23.2581C21.9706 23.1155 22.7327 22.9412 23.4883 22.7351C25.8069 22.1028 26.8246 19.3848 25.4915 17.3851L24.3429 15.6622C23.9564 15.0824 23.7501 14.401 23.7501 13.7041V13C23.7501 8.71979 20.2803 5.25 16.0001 5.25ZM19.3765 23.537C17.1335 23.805 14.8665 23.8049 12.6235 23.5369C13.3345 24.5585 14.571 25.25 16 25.25C17.429 25.25 18.6655 24.5585 19.3765 23.537ZM9.75007 13C9.75007 9.54822 12.5483 6.75 16.0001 6.75C19.4518 6.75 22.2501 9.54822 22.2501 13V13.7041C22.2501 14.6972 22.544 15.668 23.0949 16.4943L24.2435 18.2172C25.0086 19.3649 24.4245 20.925 23.0937 21.288C18.4494 22.5546 13.5507 22.5546 8.90647 21.288C7.57564 20.925 6.9915 19.3649 7.75667 18.2172L8.90527 16.4943C9.45612 15.668 9.75007 14.6972 9.75007 13.7041V13Z" fill="#FC5D00"/>
</g>
<defs>
<clipPath id="clip0_710_625">
<rect width="24" height="24" fill="white" transform="translate(4 4)"/>
</clipPath>
</defs>
</svg>
