<svg width="20" height="20" viewBox="0 0 20 20" fill="none" xmlns="http://www.w3.org/2000/svg">
<path d="M18.4831 1.51794C17.6661 0.699944 16.5791 0.25 15.4211 0.25C14.2651 0.25 13.1781 0.699944 12.3591 1.51794L1.82608 12.051C1.41808 12.458 1.1521 12.9749 1.0571 13.5439L0.267117 18.282C0.200117 18.683 0.331107 19.093 0.619107 19.38C0.857107 19.618 1.17907 19.749 1.51107 19.749C1.57907 19.749 1.64913 19.7441 1.71713 19.7321L6.45608 18.942C7.02408 18.848 7.54009 18.582 7.94809 18.174L18.4811 7.64099C19.2991 6.82299 19.7501 5.73598 19.7501 4.57898C19.7501 3.42198 19.3021 2.33594 18.4831 1.51794ZM6.8901 17.114C6.7041 17.3 6.47012 17.42 6.21212 17.463L1.8041 18.197L2.53811 13.79C2.58111 13.531 2.70211 13.2971 2.88711 13.1121L10.9701 5.02905L14.9721 9.03101L6.8901 17.114ZM17.4231 6.58105L16.0331 7.97095L12.0311 3.96899L13.4211 2.57898C13.9561 2.04498 14.6661 1.75 15.4221 1.75C16.1781 1.75 16.8891 2.04398 17.4231 2.57898C17.9571 3.11398 18.2521 3.82396 18.2521 4.57996C18.2521 5.33596 17.9571 6.04605 17.4231 6.58105Z" fill="#717171"/>
</svg>
