<svg width="20" height="20" viewBox="0 0 20 20" fill="none" xmlns="http://www.w3.org/2000/svg">
<path d="M19.6857 14.6002C19.6627 14.4652 19.6347 14.3473 19.6057 14.2423C19.4307 13.6173 18.8867 13.1412 18.2197 13.0312L13.8877 12.3103C13.2497 12.2033 12.6107 12.4502 12.2187 12.9522C12.1647 13.0212 12.1127 13.0912 12.0647 13.1622C11.9937 13.2662 11.8527 13.3632 11.6997 13.2962C9.4527 12.3192 7.67869 10.5452 6.70269 8.29818C6.63469 8.14318 6.72966 8.0072 6.83166 7.9382C6.92666 7.8742 7.01866 7.80524 7.10766 7.73324C7.59466 7.33924 7.8367 6.70922 7.7387 6.08822L7.06768 1.83322C6.96468 1.18122 6.51771 0.64818 5.89971 0.44418C5.75471 0.39618 5.58672 0.352226 5.39172 0.317226C4.12572 0.0912264 2.83069 0.449188 1.83569 1.30319C0.792686 2.19919 0.214678 3.50126 0.252678 4.87326C0.471678 12.9953 7.00366 19.5283 15.1257 19.7473C15.1667 19.7483 15.2077 19.7492 15.2487 19.7492C16.5657 19.7492 17.8107 19.1792 18.6797 18.1732C19.5407 17.1762 19.9077 15.8732 19.6857 14.6002ZM17.5427 17.1932C16.9417 17.8882 16.0677 18.2592 15.1647 18.2492C7.84067 18.0512 1.94866 12.1582 1.75066 4.83322C1.72666 3.91422 2.11268 3.04225 2.81268 2.44125C3.34168 1.98725 3.97267 1.74923 4.63067 1.74923C4.79467 1.74923 4.9607 1.76418 5.1267 1.79318C5.2427 1.81418 5.34167 1.83925 5.42767 1.86825C5.51067 1.89525 5.57166 1.97223 5.58666 2.06723L6.25768 6.32223C6.27268 6.41523 6.2367 6.50925 6.1657 6.56625C6.1077 6.61325 6.04866 6.65721 5.98766 6.69821C5.25366 7.19721 4.98171 8.10121 5.32671 8.89621C6.45471 11.4922 8.5057 13.5432 11.1007 14.6712C11.8927 15.0152 12.7987 14.7443 13.3037 14.0073C13.3337 13.9643 13.3647 13.9213 13.3987 13.8773C13.4527 13.8083 13.5467 13.7753 13.6417 13.7893L17.9737 14.5102C18.0657 14.5262 18.1427 14.5822 18.1617 14.6472C18.1797 14.7092 18.1947 14.7783 18.2087 14.8573C18.3527 15.6853 18.1097 16.5362 17.5427 17.1932Z" fill="#717171"/>
</svg>
