<svg width="32" height="33" viewBox="0 0 32 33" fill="none" xmlns="http://www.w3.org/2000/svg">
<path d="M16 2.01221C8.27812 2.01221 2 8.32901 2 16.0984C2 23.8679 8.27812 30.1847 16 30.1847C23.7219 30.1847 30 23.8679 30 16.0984C30 8.32901 23.7219 2.01221 16 2.01221Z" fill="url(#paint0_radial_728_2075)"/>
<path fill-rule="evenodd" clip-rule="evenodd" d="M13.195 14.5488C13.1778 14.555 13.1573 14.5493 13.1458 14.5351C12.6016 13.8144 12.4649 12.5755 12.4316 12.0996C12.4248 12.0079 12.3218 11.9564 12.2393 12.0025C10.5591 12.9465 9 15.1797 9 17.3359C9 21.0401 11.5721 24.1476 16 24.1476C20.1485 24.1476 23 20.9448 23 17.3363C23 12.6147 19.6267 9.47751 16.6221 8.05937C16.5518 8.0262 16.4586 8.09449 16.4689 8.17153C16.8559 10.7161 16.3213 13.4835 13.195 14.5488Z" fill="white"/>
<defs>
<radialGradient id="paint0_radial_728_2075" cx="0" cy="0" r="1" gradientUnits="userSpaceOnUse" gradientTransform="translate(16 30.1847) scale(29.9132 30.0975)">
<stop stop-color="#FF7854"/>
<stop offset="1" stop-color="#FD267D"/>
</radialGradient>
</defs>
</svg>
