<svg width="18" height="15" viewBox="0 0 18 15" fill="none" xmlns="http://www.w3.org/2000/svg">
<path fill-rule="evenodd" clip-rule="evenodd" d="M8.99999 4.375C7.2741 4.375 5.87499 5.77411 5.87499 7.5C5.87499 9.22589 7.2741 10.625 8.99999 10.625C10.7259 10.625 12.125 9.22589 12.125 7.5C12.125 5.77411 10.7259 4.375 8.99999 4.375ZM7.12499 7.5C7.12499 6.46446 7.96446 5.625 8.99999 5.625C10.0355 5.625 10.875 6.46446 10.875 7.5C10.875 8.53553 10.0355 9.375 8.99999 9.375C7.96446 9.375 7.12499 8.53553 7.12499 7.5Z" fill="#717171"/>
<path fill-rule="evenodd" clip-rule="evenodd" d="M8.99999 0.208332C5.23821 0.208332 2.7044 2.46183 1.2338 4.37238L1.20727 4.40683C0.874689 4.83878 0.568373 5.2366 0.360563 5.707C0.138027 6.21072 0.0416565 6.75974 0.0416565 7.5C0.0416565 8.24026 0.138027 8.78927 0.360563 9.293C0.568375 9.7634 0.874691 10.1612 1.20728 10.5932L1.2338 10.6276C2.7044 12.5382 5.23821 14.7917 8.99999 14.7917C12.7618 14.7917 15.2956 12.5382 16.7662 10.6276L16.7927 10.5932C17.1253 10.1612 17.4316 9.76341 17.6394 9.293C17.862 8.78927 17.9583 8.24026 17.9583 7.5C17.9583 6.75974 17.862 6.21072 17.6394 5.707C17.4316 5.23659 17.1253 4.83876 16.7927 4.40681L16.7662 4.37238C15.2956 2.46183 12.7618 0.208332 8.99999 0.208332ZM2.22434 5.13483C3.58219 3.37076 5.79196 1.45833 8.99999 1.45833C12.208 1.45833 14.4178 3.37076 15.7756 5.13483C16.1411 5.60966 16.3552 5.89338 16.496 6.21212C16.6276 6.51001 16.7083 6.87411 16.7083 7.5C16.7083 8.12589 16.6276 8.48999 16.496 8.78788C16.3552 9.10662 16.1411 9.39034 15.7756 9.86517C14.4178 11.6292 12.208 13.5417 8.99999 13.5417C5.79196 13.5417 3.58219 11.6292 2.22434 9.86517C1.85885 9.39034 1.64477 9.10662 1.50396 8.78788C1.37235 8.48998 1.29166 8.12589 1.29166 7.5C1.29166 6.87411 1.37235 6.51001 1.50396 6.21212C1.64477 5.89338 1.85885 5.60966 2.22434 5.13483Z" fill="#717171"/>
</svg>
